<?xml version="1.0" encoding="UTF-8"?><svg id="b" xmlns="http://www.w3.org/2000/svg" viewBox="0 0 235.19 181.2"><defs><style>.d,.e,.f,.g,.h,.i,.j,.k,.l,.m{stroke-width:0px;}.d,.f{fill:#bdbdbd;}.d,.f,.h,.j,.k{isolation:isolate;}.d,.n{opacity:.81;}.e{fill:#f8f8f8;}.f{opacity:.66;}.g,.k{fill:#9e9e9e;}.h{opacity:.39;}.h,.m{fill:rgba(22,54,107,.75);}.i{fill:rgba(31,56,107,.85);}.j{opacity:.47;}.j,.l{fill:#fff;}.k{opacity:.36;}</style></defs><g id="c"><g class="n"><path class="d" d="M219.7,78.14h-16.94c-.71,0-1.3-.58-1.3-1.3s.59-1.3,1.3-1.3h16.94c.71,0,1.3.58,1.3,1.3s-.59,1.3-1.3,1.3Z"/><path class="d" d="M219.7,106.07h-16.94c-.71,0-1.3-.58-1.3-1.3s.59-1.3,1.3-1.3h16.94c.71,0,1.3.58,1.3,1.3s-.59,1.3-1.3,1.3Z"/><g class="n"><g class="n"><g class="n"><path class="d" d="M231.67,134.26h-102.99c-1.95,0-3.52-1.59-3.52-3.52V44.62c0-1.95,1.58-3.52,3.52-3.52h102.99c1.95,0,3.52,1.59,3.52,3.52v86.11c0,1.95-1.57,3.52-3.52,3.52ZM128.68,43.7c-.51,0-.92.42-.92.92v86.11c0,.51.42.92.92.92h102.99c.51,0,.92-.42.92-.92V44.62c0-.51-.41-.92-.92-.92h-102.99Z"/><path class="f" d="M231.67,134.26h-102.99c-1.95,0-3.52-1.59-3.52-3.52V44.62c0-1.95,1.58-3.52,3.52-3.52h102.99c1.95,0,3.52,1.59,3.52,3.52v86.11c0,1.95-1.57,3.52-3.52,3.52ZM128.68,43.7c-.51,0-.92.42-.92.92v86.11c0,.51.42.92.92.92h102.99c.51,0,.92-.42.92-.92V44.62c0-.51-.41-.92-.92-.92h-102.99Z"/></g></g><path class="d" d="M219.7,64.6h-80.72c-.71,0-1.3-.58-1.3-1.3s.58-1.3,1.3-1.3h80.72c.71,0,1.3.58,1.3,1.3s-.58,1.3-1.3,1.3Z"/><path class="d" d="M219.7,91.7h-80.72c-.71,0-1.3-.58-1.3-1.3s.58-1.3,1.3-1.3h80.72c.71,0,1.3.58,1.3,1.3s-.58,1.3-1.3,1.3Z"/><path class="d" d="M182.5,78.14h-43.52c-.71,0-1.3-.58-1.3-1.3s.58-1.3,1.3-1.3h43.52c.71,0,1.3.58,1.3,1.3s-.58,1.3-1.3,1.3Z"/><path class="d" d="M182.5,106.07h-43.52c-.71,0-1.3-.58-1.3-1.3s.58-1.3,1.3-1.3h43.52c.71,0,1.3.58,1.3,1.3s-.58,1.3-1.3,1.3Z"/><path class="d" d="M168.32,119h-29.35c-.71,0-1.3-.58-1.3-1.3s.58-1.3,1.3-1.3h29.35c.71,0,1.3.58,1.3,1.3s-.58,1.3-1.3,1.3Z"/></g></g><g class="n"><path class="d" d="M107.09,41.68h-19.22c-.71,0-1.3-.58-1.3-1.3s.58-1.3,1.3-1.3h19.22c.72,0,1.3.58,1.3,1.3s-.57,1.3-1.3,1.3Z"/><path class="d" d="M107.09,73.37h-19.22c-.71,0-1.3-.58-1.3-1.3s.58-1.3,1.3-1.3h19.22c.72,0,1.3.58,1.3,1.3s-.57,1.3-1.3,1.3Z"/><g class="n"><g class="n"><g class="n"><path class="d" d="M120.98,105.35H3.52c-1.95,0-3.52-1.58-3.52-3.52V3.52C0,1.57,1.59,0,3.52,0h117.46c1.95,0,3.52,1.59,3.52,3.52v98.3c0,1.94-1.58,3.52-3.52,3.52ZM3.52,2.6c-.51,0-.92.42-.92.92v98.3c0,.51.42.92.92.92h117.46c.51,0,.92-.42.92-.92V3.52c0-.51-.42-.92-.92-.92H3.52Z"/><path class="f" d="M120.98,105.35H3.52c-1.95,0-3.52-1.58-3.52-3.52V3.52C0,1.57,1.59,0,3.52,0h117.46c1.95,0,3.52,1.59,3.52,3.52v98.3c0,1.94-1.58,3.52-3.52,3.52ZM3.52,2.6c-.51,0-.92.42-.92.92v98.3c0,.51.42.92.92.92h117.46c.51,0,.92-.42.92-.92V3.52c0-.51-.42-.92-.92-.92H3.52Z"/></g></g><path class="d" d="M107.09,26.31H15.5c-.71,0-1.3-.58-1.3-1.3s.58-1.3,1.3-1.3h91.58c.72,0,1.3.58,1.3,1.3s-.57,1.3-1.3,1.3Z"/><path class="d" d="M107.09,57.06H15.5c-.71,0-1.3-.58-1.3-1.3s.58-1.3,1.3-1.3h91.58c.72,0,1.3.58,1.3,1.3s-.57,1.3-1.3,1.3Z"/><path class="d" d="M64.88,41.68H15.5c-.71,0-1.3-.58-1.3-1.3s.58-1.3,1.3-1.3h49.38c.71,0,1.3.58,1.3,1.3s-.58,1.3-1.3,1.3Z"/><path class="d" d="M64.88,73.37H15.5c-.71,0-1.3-.58-1.3-1.3s.58-1.3,1.3-1.3h49.38c.71,0,1.3.58,1.3,1.3s-.58,1.3-1.3,1.3Z"/><path class="d" d="M48.81,88.04H15.5c-.71,0-1.3-.58-1.3-1.3s.58-1.3,1.3-1.3h33.3c.71,0,1.3.58,1.3,1.3s-.58,1.3-1.3,1.3Z"/></g></g><path class="k" d="M161.11,147.15l-102.31,33.8c-2.5.83-5.2-.53-6.03-3.03L18.97,75.61c-.83-2.5.53-5.2,3.03-6.03l102.31-33.8c2.5-.83,5.2.53,6.03,3.03l33.8,102.31c.83,2.51-.53,5.21-3.02,6.03Z"/><path class="l" d="M153.59,143.36l-102.31,33.8c-2.5.83-5.2-.53-6.03-3.03L11.45,71.83c-.83-2.5.53-5.2,3.03-6.03L116.79,32c2.5-.83,5.2.53,6.03,3.03l33.8,102.31c.83,2.51-.52,5.2-3.02,6.03Z"/><path class="m" d="M114.9,43.14l-92.4,30.53,30.53,92.4,92.4-30.53-30.53-92.4Z"/><path class="j" d="M52.25,166.85l-6.91-20.92,10.11-24.37c1.4-3.37,5.08-5.1,8.57-4.01l18.72,5.82c1.1.35,2.3-.11,2.89-1.1l15.58-25.93c3.31-5.51,10.26-7.74,16.16-5.21l17.16,7.38.16.48,12.11,36.64-1.07.35-93.47,30.88ZM47.74,146.02l5.94,17.99,90.26-29.82-11.24-34.02-16.22-6.98c-4.88-2.09-10.61-.25-13.34,4.3l-15.58,25.93c-1.13,1.88-3.38,2.75-5.49,2.09l-18.72-5.82c-2.37-.74-4.88.44-5.82,2.73l-9.79,23.59Z"/><path class="j" d="M83.1,94.8c-5.03,0-9.72-3.19-11.38-8.22-2.07-6.27,1.34-13.06,7.62-15.13,6.27-2.07,13.06,1.34,15.13,7.62,2.07,6.27-1.34,13.06-7.62,15.13-1.25.41-2.51.6-3.75.6ZM83.08,73.09c-1.01,0-2.03.16-3.05.5-5.09,1.68-7.87,7.19-6.18,12.29,1.68,5.09,7.2,7.87,12.29,6.18,5.09-1.68,7.87-7.19,6.18-12.29-1.34-4.08-5.16-6.68-9.24-6.68Z"/><path class="k" d="M191.91,165.57h-79.87c-2.63,0-4.77-2.14-4.77-4.77v-79.87c0-2.63,2.14-4.77,4.77-4.77h79.87c2.63,0,4.77,2.14,4.77,4.77v79.87c0,2.63-2.14,4.77-4.77,4.77Z"/><path class="l" d="M187.37,161.04h-79.87c-2.63,0-4.77-2.14-4.77-4.77v-79.87c0-2.63,2.14-4.77,4.77-4.77h79.87c2.63,0,4.77,2.14,4.77,4.77v79.87c0,2.63-2.14,4.77-4.77,4.77Z"/><path class="h" d="M184.48,79.23h-74.19v74.19h74.19v-74.19Z"/><path class="j" d="M185.71,154.06h-76.44v-17.16l13.21-15.29c1.91-2.21,5.15-2.6,7.53-.9l12.16,8.68c.62.44,1.45.4,2.03-.09l17.48-15.04c3.81-3.29,9.53-3.24,13.29.1l10.75,9.52v30.18ZM111.52,151.81h71.93v-26.92l-9.99-8.86c-2.93-2.6-7.37-2.63-10.33-.08l-17.48,15.05c-1.37,1.17-3.34,1.26-4.8.22l-12.16-8.68c-1.43-1.02-3.37-.79-4.51.54l-12.66,14.66v14.06Z"/><path class="j" d="M151.96,109.75c-5.18,0-9.4-4.22-9.4-9.4s4.22-9.4,9.4-9.4,9.4,4.22,9.4,9.4-4.21,9.4-9.4,9.4ZM151.96,93.2c-3.94,0-7.14,3.2-7.14,7.15s3.2,7.14,7.14,7.14,7.15-3.2,7.15-7.14-3.21-7.15-7.15-7.15Z"/><path class="i" d="M170.38,46.26l-2.21-2.92-8.28-5.25-3.19-.5-42.42,67.04c-1.02,1.62-1.78,3.39-2.22,5.25,5.16.06,9.85,3.03,12.11,7.67,1.49-1.2,2.77-2.64,3.79-4.25l42.42-67.04Z"/><path class="i" d="M176.37,25.61l-3.58-2.27c-2.79-1.77-6.49-.94-8.25,1.85l-3.28,5.19,1.05,2.11,9.96,6.31,2.68.25,3.29-5.19c1.76-2.79.94-6.48-1.85-8.25Z"/><path class="g" d="M156.7,37.57l4.56-7.2,13.69,8.67-4.56,7.2-13.69-8.67Z"/><path class="g" d="M124.16,117.54l-12.08,9.73c-1.7,1.37-4.18-.19-3.67-2.32l3.63-15.08c5.16.06,9.85,3.03,12.11,7.67Z"/><path class="e" d="M120.99,113.36l44.47-70.22-3.81-2.41-44.47,70.22c1.39.59,2.68,1.4,3.81,2.41Z"/></g></svg>