<svg width="160" height="160" viewBox="0 0 160 160" fill="none" xmlns="http://www.w3.org/2000/svg">
<path fill-rule="evenodd" clip-rule="evenodd" d="M129.863 36.4135C146.325 48.6325 150.189 73.4032 145.721 93.4118C141.831 110.835 123.054 118.524 109.055 129.602C97.6212 138.651 87.444 151.304 72.8645 151.071C58.413 150.84 48.5828 138.102 37.8133 128.463C26.0063 117.895 10.3972 109.137 8.44526 93.4118C6.35344 76.5601 14.8723 59.3434 27.8782 48.4255C40.0591 38.2001 57.0698 41.1948 72.8645 39.3345C92.5059 37.0211 113.982 24.6262 129.863 36.4135Z" fill="#1F386B" fill-opacity="0.05"/>
<path d="M42.5555 75.4789C54.8632 94.4381 65.1466 115.55 73.1395 136.667C73.7291 136.437 74.2978 136.139 74.7778 135.758C71.0891 125.074 65.8301 114.824 60.7901 104.746C55.6719 94.5113 50.5381 83.9789 44.152 74.4445C43.6407 74.8311 43.1138 75.1759 42.5555 75.4841V75.4789Z" fill="#1F386B" fill-opacity="0.35"/>
<path d="M40.5039 71.7167C40.0888 72.1355 39.6615 72.4465 39.2222 72.6858C39.6051 73.2361 39.9638 73.8283 40.2983 74.4444C41.1408 73.9181 41.8542 73.1823 42.5555 72.3029C42.3983 71.5492 42.2532 70.7836 42.1524 70C41.6808 70.6161 41.1367 71.1904 40.5079 71.7167H40.5039Z" fill="white"/>
<path d="M25.2564 62.861C21.5597 61.3967 18.9372 62.8151 15.3363 63.4988C13.6014 63.8253 11.9724 63.4987 10.3334 63.0447C11.8817 67.907 14.7765 72.0551 19.4466 74.55C23.6426 76.7899 28.2521 75.0296 31.4445 71.8102C29.7096 70.8153 28.1916 69.3713 27.1577 67.7693C26.1289 66.1723 25.5489 64.5294 25.2615 62.861H25.2564Z" fill="#F5E4D7"/>
<path d="M24.7729 55.8063C22.7991 53.5779 18.966 52.9951 16.157 53.5057C15.3367 55.2286 13.8651 59.0767 15.5554 60C15.9432 59.9226 16.3459 59.8247 16.7735 59.7009C19.5725 58.8755 21.8496 58.5764 24.5193 59.3965C24.5044 58.205 24.6038 57.0082 24.7778 55.8115C24.7778 55.8115 24.7779 55.8115 24.7729 55.8115V55.8063Z" fill="#F5E4D7"/>
<path d="M26.9499 49.5235C26.9818 49.4139 27.0458 49.3271 27.1097 49.2403C27.1257 49.2129 27.1364 49.1901 27.1523 49.1627C27.1737 49.1353 27.195 49.117 27.2216 49.0896C27.4508 48.8155 27.8131 48.6328 28.314 48.7059C29.6995 48.9023 31.1329 49.0074 32.5556 49.1535C32.5236 48.9388 32.5077 48.7196 32.497 48.5049C32.4757 48.4912 32.4544 48.4912 32.4331 48.4729C31.2821 47.6187 29.9179 47.0797 28.4259 46.8284C27.7225 46.7097 26.822 46.5817 26.0813 46.7416C24.6212 48.4135 24.6212 50.8346 24.9676 52.8263C25.2766 52.9816 25.5644 53.1506 25.8468 53.3333C26.1825 52.0543 26.5768 50.7798 26.9552 49.5144L26.9499 49.5235Z" fill="#F5E4D7"/>
<path d="M32.5022 48.5193C32.5022 48.7041 32.5182 48.8796 32.5556 49.046C31.5678 48.4638 30.4678 48.0757 29.2771 47.8771C28.5669 47.7616 27.6645 47.623 26.9223 47.7847C25.6034 49.3139 25.4699 51.4622 25.7209 53.3333C25.4806 53.1809 25.2243 53.0376 24.968 52.8944C24.6209 50.8847 24.6209 48.4269 26.084 46.7406C26.8262 46.5789 27.7285 46.7175 28.4334 46.8238C29.9338 47.0825 31.3008 47.623 32.4542 48.487C32.4702 48.5054 32.4915 48.5008 32.5075 48.5193H32.5022Z" fill="white"/>
<path d="M42.5532 44.5322C42.6499 42.1966 39.8084 41.4784 37.7995 41.1111C35.9624 43.3809 34.2006 46.7251 34.958 49.6528C36.376 49.9378 37.7511 50.3819 39.0188 51.1111C39.556 48.485 40.8612 46.6155 42.5479 44.5322H42.5532Z" fill="#F5E4D7"/>
<path d="M24.7778 55.8053C24.7331 56.099 24.6983 56.4031 24.6635 56.6916C22.5705 55.1869 19.4235 54.8365 17.0272 55.2642C16.4903 56.3876 15.665 58.4334 15.6451 59.9742C15.6103 59.9845 15.5854 59.9897 15.5556 60C13.8653 59.0776 15.3369 55.2333 16.1522 53.507C18.9711 52.9917 22.7992 53.5843 24.7778 55.8105V55.8053Z" fill="white"/>
<path d="M42.5556 44.0155C41.5713 43.3004 39.9953 42.9722 38.7421 42.7714C37.2522 44.4269 35.8107 46.6947 35.7139 48.8889C35.4718 48.835 35.2136 48.786 34.9608 48.737C34.1971 46.1167 35.9559 43.1339 37.7954 41.1111C39.7587 41.4295 42.5126 42.0466 42.5502 44.0204L42.5556 44.0155Z" fill="white"/>
<path d="M28.6241 51.1111C27.796 54.0131 26.8664 56.7856 27.016 59.879C27.2617 64.8655 32.7435 74.4093 39.4487 69.9607C44.9626 66.9709 44.3909 62.0257 41.5966 57.2719C38.471 51.9594 33.951 51.8715 28.6241 51.1111Z" fill="#F5E4D7"/>
<path d="M45.918 43.2081C43.8538 46.4612 40.8316 48.2834 40.3334 52.2982C42.1292 53.9145 43.4159 56.0455 44.363 58.1713C44.9872 59.5714 45.3979 60.9251 45.5676 62.2222C50.4514 60.6626 54.8588 57.0595 54.7767 51.9431C54.6891 46.6105 51.9078 41.2728 47.6481 37.7778C47.336 39.6617 46.9637 41.5559 45.918 43.203V43.2081Z" fill="#F5E4D7"/>
<path d="M31.4444 71.0839C28.1992 74.9203 23.5095 77.0151 19.2222 74.3784C22.942 75.1883 26.9249 73.2031 30.0566 70C30.5003 70.4019 30.9646 70.7612 31.4444 71.0839Z" fill="#16366B"/>
<path d="M43.6104 62.2222C43.9449 65.2204 42.8242 67.951 39.267 69.8951C36.3342 71.872 33.6189 71.2331 31.4445 69.4473C33.4349 70.2446 35.7711 70.0972 38.3916 68.3387C41.4749 66.5966 43.0584 64.4886 43.6048 62.2277L43.6104 62.2222Z" fill="#16366B"/>
<path d="M54.363 48.8939C54.6157 49.9693 54.7593 51.0649 54.7765 52.1503C54.8684 57.1636 50.251 60.6874 45.1167 62.2222C45.0478 61.7073 44.9329 61.1974 44.7778 60.6673C49.8604 58.8498 54.3171 55.24 54.409 50.3833C54.4204 49.8885 54.4032 49.3836 54.3687 48.8889L54.363 48.8939Z" fill="#16366B"/>
<path d="M25.3901 62.8134C25.5021 63.4424 25.6751 64.0571 25.8889 64.6766C22.6567 63.8427 20.1676 64.9958 16.8539 65.5724C15.113 65.8774 13.4638 65.5724 11.8044 65.1436C12.2575 66.4492 12.8123 67.7072 13.5147 68.8889C12.1098 67.1306 11.0714 65.134 10.3334 62.985C11.9826 63.4186 13.6318 63.7236 15.3828 63.4138C19.0223 62.7753 21.659 61.4554 25.3901 62.8134Z" fill="white"/>
<path d="M41.0533 57.2401C41.1923 57.477 41.3106 57.7087 41.4444 57.9354C38.5161 54.2683 34.5944 54.1138 30.05 53.4442C29.2574 56.3336 28.3619 59.0891 28.506 62.169C28.5883 63.7708 29.1802 65.8464 30.1786 67.7778C28.3001 65.3829 27.1216 62.1278 27.0186 59.8359C26.8591 56.7508 27.7546 53.9953 28.5626 51.1111C33.6886 51.8631 38.0477 51.9558 41.0585 57.2401H41.0533Z" fill="white"/>
<path d="M51.4445 43.2685C50.6264 42.1231 49.6804 41.0774 48.6526 40.1474C48.3561 42.081 48.0084 44.0093 47.0317 45.6855C45.1961 48.8643 42.5321 50.7034 41.898 54.4444C41.4327 53.7771 40.9112 53.1519 40.3334 52.5896C40.8038 48.486 43.6161 46.626 45.5489 43.3053C46.5204 41.6239 46.8732 39.6903 47.1647 37.7778C48.8776 39.312 50.3349 41.1931 51.4445 43.2738V43.2685Z" fill="white"/>
<path d="M47.4855 34.611C47.4594 34.5954 47.4281 34.585 47.3969 34.5747C47.2979 34.5332 47.1988 34.4866 47.105 34.471C46.5788 34.3621 46.0004 34.5851 45.8128 35.1968C45.7398 35.3524 45.6877 35.513 45.6982 35.679C45.2865 38.1208 44.9634 40.2153 43.8014 42.2113C42.6029 40.1686 39.7474 39.3288 37.241 38.914C37.1472 38.8985 37.0743 38.9192 36.9909 38.9244C36.9909 38.9244 36.9857 38.9244 36.9805 38.9244C36.8398 38.9296 36.7148 38.9555 36.6001 39.0022C36.5637 39.0177 36.5272 39.0385 36.4907 39.0592C36.4177 39.1059 36.35 39.1474 36.2875 39.2096C36.2458 39.2459 36.1937 39.2614 36.152 39.308C34.6305 40.993 33.2079 43.2637 32.5878 45.6434C31.4102 44.8813 30.0762 44.3628 28.685 44.0933C27.5282 43.8703 26.0222 43.6785 24.9071 44.1762C24.8915 44.1814 24.8811 44.197 24.8707 44.2022C24.7091 44.2644 24.5476 44.3577 24.4069 44.5236C22.6457 46.5663 22.2601 49.4851 22.4737 52.1551C20.0299 51.4603 17.2733 51.4707 15.0692 51.9425C14.5794 52.0462 14.3501 52.3624 14.3136 52.7253C13.2194 54.7628 11.9479 58.3452 12.8911 60.756C11.4477 60.6834 10.0356 60.336 8.27956 59.8331C7.31036 59.5532 6.82053 60.5175 7.06023 61.2848C7.06544 61.3367 7.05502 61.3833 7.06544 61.4352C8.73289 68.3045 13.235 74.9042 20.2591 77.258C25.1416 78.8963 30.4931 76.133 33.828 72.5039C34.5158 72.7165 35.2193 72.8565 35.9227 72.9083C35.9384 72.9187 35.9436 72.9342 35.9592 72.9498C37.2515 73.8 38.2832 74.9613 39.1951 76.1952C39.4817 76.584 39.8829 76.6877 40.2529 76.6307C52.7379 95.6886 63.0969 116.903 71.1163 138.159C71.2831 138.605 71.627 138.807 71.9865 138.854C72.0438 138.87 72.0959 138.88 72.1585 138.885C72.1689 138.885 72.1741 138.885 72.1845 138.885C72.3096 138.89 72.4399 138.896 72.5805 138.859C74.076 138.45 75.681 137.672 76.7336 136.511C76.7909 136.449 76.8065 136.381 76.8482 136.319C76.8534 136.309 76.8586 136.298 76.8638 136.288C77.0201 136.008 77.0358 135.728 76.942 135.474C76.9368 135.448 76.942 135.427 76.9316 135.401C73.0808 124.084 67.4323 113.243 62.0444 102.599C56.9743 92.5779 51.9146 82.2817 45.5887 72.9653C45.745 72.7165 45.8024 72.4002 45.6773 72.0425C45.1875 70.6116 44.8592 69.1444 44.854 67.6357C45.349 66.6973 45.6408 65.6915 45.7503 64.6287C45.8232 64.6184 45.8858 64.6288 45.9639 64.608C51.2424 63.0112 56.3177 58.9726 56.7346 53.2593C57.2557 46.2085 53.3528 38.6548 47.6001 34.6887C47.5584 34.6576 47.5115 34.6576 47.4698 34.6317L47.4855 34.611ZM37.4808 41.273C39.4296 41.6203 42.1861 42.2995 42.0923 44.508C40.4561 46.4781 39.1899 48.246 38.6688 50.7293C37.4339 50.0346 36.1051 49.6199 34.7294 49.3503C33.9947 46.5818 35.6987 43.4193 37.486 41.273H37.4808ZM25.9858 46.2448C26.7101 46.0582 27.5907 46.2085 28.2785 46.3433C29.7375 46.6285 31.0715 47.2402 32.197 48.2097C32.2179 48.2253 32.2387 48.2304 32.2595 48.246C32.2648 48.4948 32.2856 48.7385 32.3169 48.9822C30.9256 48.8163 29.5239 48.6971 28.1691 48.4741C27.6793 48.3912 27.325 48.6037 27.1009 48.9096C27.08 48.9355 27.054 48.9615 27.0331 48.9926C27.0175 49.0185 27.0071 49.0496 26.9915 49.0807C26.9341 49.1792 26.8664 49.2725 26.8351 49.4021C26.46 50.833 26.0744 52.2846 25.7513 53.7363C25.4803 53.5289 25.1937 53.3371 24.8915 53.1608C24.5528 50.9004 24.5528 48.1475 25.9806 46.2552L25.9858 46.2448ZM19.2065 74.3081C14.3814 71.7729 11.3904 67.5579 9.79067 62.6172C11.4842 63.0838 13.1725 63.4104 14.9598 63.0786C18.6803 62.3839 21.3899 60.9426 25.2094 62.4305C25.5064 64.1259 26.1056 65.7952 27.1686 67.418C28.2368 69.0459 29.8105 70.5131 31.5978 71.524C28.3046 74.7954 23.5419 76.584 19.2013 74.3081H19.2065ZM16.8617 60.2583C16.4136 60.3827 15.9915 60.4812 15.5851 60.559C13.8134 59.631 15.361 55.7634 16.2156 54.0318C19.1597 53.5134 23.1772 54.0992 25.2459 56.344C25.2459 56.344 25.2459 56.344 25.2511 56.344C25.0687 57.552 24.9645 58.7548 24.9801 59.9473C22.1819 59.1281 19.7954 59.4236 16.8617 60.2531V60.2583ZM60.5541 104.653C65.5877 114.653 70.835 124.83 74.5242 135.427C74.0448 135.806 73.4768 136.101 72.888 136.329C64.9051 115.374 54.6346 94.4288 42.3424 75.6094C42.8948 75.3035 43.4263 74.9613 43.9369 74.5777C50.3201 84.0392 55.4475 94.491 60.5541 104.647V104.653ZM43.3324 72.1513C42.4258 72.9134 41.5087 73.5512 40.4144 74.0074C39.9819 73.4734 39.5182 72.9653 39.0232 72.4831C39.5911 72.281 40.1435 72.0062 40.6802 71.6433C41.4983 71.187 42.1965 70.6893 42.8062 70.1553C42.9364 70.8293 43.124 71.4929 43.3272 72.1513H43.3324ZM41.4618 57.0543C44.187 61.8188 44.7446 66.7751 39.367 69.7717C32.8275 74.2251 27.4813 64.6651 27.2416 59.6673C27.0904 56.567 27.9971 53.7934 28.81 50.8797C34.0052 51.6418 38.4135 51.7299 41.4618 57.0543ZM54.4991 51.9114C54.5825 57.0647 50.3879 60.6938 45.7346 62.2647C45.5679 60.9582 45.1823 59.5895 44.5883 58.1845C43.6868 56.0434 42.4571 53.9022 40.7531 52.2691C41.2273 48.2201 44.1088 46.3899 46.0681 43.1134C47.0634 41.4544 47.4177 39.5517 47.7147 37.6491C51.7687 41.1641 54.4158 46.5403 54.4991 51.9166V51.9114Z" fill="#16366B"/>
<path d="M133.667 70.4777C133.016 70.3582 132.376 70.2025 131.746 70C128.67 80.5927 127.065 91.6839 125.377 102.526C123.593 114.017 121.607 125.773 121.444 137.42C122.052 137.632 122.719 137.741 123.376 137.778C124.406 115.325 127.667 92.2291 133.667 70.4725V70.4777Z" fill="#1F386B" fill-opacity="0.35"/>
<path d="M133.288 66.2212C133.259 66.2116 133.234 66.2212 133.205 66.2116C132.61 66.0186 132.025 65.7967 131.444 65.5555C131.597 66.3804 131.671 67.215 131.69 68.0784C132.728 68.4981 133.745 68.8069 134.861 68.8889C135.151 68.1026 135.486 67.3356 135.889 66.6072C135.107 66.5493 134.311 66.4625 133.48 66.2984C133.406 66.284 133.352 66.2454 133.288 66.2212Z" fill="white"/>
<path d="M133.645 63.3333C137.249 60.4214 137.284 52.8455 136.753 48.7841C136.155 44.2324 134.379 40.1865 131.566 36.6667C126.536 40.447 122.098 44.7943 122.593 51.7471C123.029 57.8416 128.261 61.4942 133.514 63.3129C133.559 63.3231 133.6 63.3231 133.645 63.3333Z" fill="#F5E4D7"/>
<path d="M137 51.936C136.393 47.4746 134.606 43.5162 131.831 40.0508C127.23 43.4857 123.119 47.3984 122.841 53.3333C122.714 52.7998 122.633 52.2459 122.593 51.6717C122.102 44.751 126.536 40.4319 131.568 36.6667C134.378 40.1677 136.155 44.1972 136.762 48.7246C136.889 49.6443 136.98 50.7469 137 51.9309V51.936Z" fill="white"/>
<path d="M137.678 41.1111C138.896 39.3864 140.547 37.7989 142.388 36.4487C142.875 33.5531 142.317 30.2039 140.487 27.7778C139.918 28.6217 139.17 29.339 138.377 30.1037C136.869 31.5647 135.197 33.2999 133.667 34.7978C135.312 36.7388 136.65 38.859 137.672 41.1111H137.678Z" fill="#F5E4D7"/>
<path d="M142.497 35.7218C142.262 33.9028 141.627 32.1109 140.565 30.6503C139.997 31.5191 139.247 32.2576 138.454 33.0449C137.327 34.1635 136.107 35.4449 134.936 36.6667C134.542 36.0965 134.115 35.5427 133.667 34.9997C135.193 33.4576 136.873 31.6711 138.377 30.1615C139.176 29.3688 139.925 28.6357 140.489 27.7778C142.119 29.9986 142.754 32.9851 142.502 35.7218H142.497Z" fill="white"/>
<path d="M148.6 33.5973C148.465 30.909 148.551 28.1222 149.222 25.5555C147.204 26.4014 145.25 27.6702 143.667 29.1418C144.434 31.1581 144.772 33.3655 144.729 35.5555C146.007 34.7502 147.317 34.0839 148.605 33.5973H148.6Z" fill="#F5E4D7"/>
<path d="M148.6 33.6084C147.982 33.8465 147.344 34.1251 146.726 34.4444C146.705 32.3078 146.882 30.1713 147.403 28.1566C146.211 28.6443 145.046 29.2946 143.967 30.0435C143.876 29.7416 143.785 29.4339 143.667 29.1378C145.239 27.6689 147.199 26.3974 149.222 25.5555C148.557 28.116 148.465 30.9028 148.6 33.6084Z" fill="white"/>
<path d="M138.619 43.6728C138.619 43.6728 138.619 43.6728 138.614 43.6779C139.387 46.1633 139.817 48.7717 139.843 51.4416C139.879 55.1672 139.397 60.1226 137 63.3254C150.841 63.761 155.236 46.1223 147.998 35.5555C144.233 37.1237 140.309 40.183 138.614 43.6677L138.619 43.6728Z" fill="#F5E4D7"/>
<path d="M148.626 57.7778C150.696 51.8973 149.983 44.548 146.194 39.0479C143.326 40.2367 140.378 42.2391 138.324 44.6537C138.26 44.4159 138.186 44.1676 138.111 43.9298C138.111 43.9298 138.122 43.9298 138.127 43.9192C139.883 40.3265 143.959 37.1723 147.87 35.5555C152.457 42.2074 152.542 51.5961 148.626 57.7725V57.7778Z" fill="white"/>
<path d="M151.616 24.9276C152.076 24.0912 151.36 23.3942 150.612 23.3478C150.481 23.3271 150.34 23.3271 150.188 23.358C147.364 24.0034 144.377 25.702 142.039 27.5813C141.631 26.9669 141.191 26.3732 140.668 25.8363C140.543 25.7072 140.412 25.6246 140.276 25.5729C139.669 25.2115 138.681 25.3716 138.445 26.2648C138.032 27.8549 136.306 29.0837 135.176 30.2041C133.962 31.407 132.566 32.9249 131.352 34.1279C131.321 34.1589 131.295 34.195 131.269 34.226C131.232 34.2467 131.201 34.2467 131.164 34.2725C124.965 38.7126 119.29 43.9788 120.054 52.1981C120.546 57.4953 123.914 61.3365 128.292 63.8147C128.847 65.3894 128.998 66.8867 128.993 68.5698C128.993 68.9364 129.134 69.1997 129.349 69.3598C126.148 80.5169 124.542 92.2419 122.847 103.688C121.158 115.062 119.316 126.668 119.222 138.192C119.222 138.75 119.546 139.059 119.96 139.157C121.304 139.88 123.082 140.061 124.584 139.983C125.253 139.952 125.562 139.467 125.583 138.956C125.598 138.889 125.63 138.827 125.635 138.755C126.561 116.244 129.757 92.9905 135.6 71.1565C136.049 71.0687 136.369 70.7021 136.515 70.2478C136.965 68.8745 137.54 67.4134 138.44 66.262C152.484 65.2243 157.626 47.536 150.424 35.811C150.068 32.2434 149.838 28.1596 151.611 24.9224L151.616 24.9276ZM148.551 26.4248C147.897 28.7069 147.813 31.1902 147.944 33.591C146.689 34.0298 145.412 34.6184 144.168 35.3361C144.215 33.3845 143.88 31.4174 143.132 29.6207C144.675 28.3093 146.584 27.1786 148.546 26.4248H148.551ZM137.896 30.7307C138.654 29.9821 139.371 29.2799 139.915 28.4538C141.667 30.8288 142.201 34.1073 141.735 36.9417C139.973 38.2634 138.393 39.8175 137.226 41.5057C136.248 39.3012 134.967 37.2257 133.392 35.3257C134.857 33.8646 136.457 32.1608 137.901 30.7307H137.896ZM122.361 52.002C121.848 44.9753 126.435 40.5816 131.635 36.761C134.543 40.3183 136.379 44.4073 136.996 49.0075C137.545 53.112 137.509 60.7686 133.785 63.7115C133.737 63.7012 133.696 63.7012 133.649 63.6908C128.219 61.8477 122.81 58.1562 122.361 52.002ZM123.402 137.712C122.769 137.676 122.125 137.567 121.539 137.356C121.696 125.775 123.611 114.081 125.332 102.661C126.958 91.8753 128.507 80.8473 131.473 70.3201C132.079 70.5214 132.697 70.6814 133.324 70.795C127.539 92.4277 124.395 115.392 123.402 137.717V137.712ZM134.653 68.6989C133.465 68.6111 132.383 68.2807 131.279 67.8315C131.263 66.9073 131.18 66.009 131.017 65.1313C131.635 65.3843 132.257 65.6218 132.89 65.8335C132.921 65.8438 132.948 65.8335 132.979 65.8438C133.047 65.8696 133.099 65.9109 133.183 65.9264C134.067 66.102 134.914 66.1949 135.746 66.2569C135.317 67.0365 134.956 67.8625 134.653 68.6989ZM136.614 64.0368C139.062 60.8099 139.554 55.8174 139.517 52.064C139.491 49.3689 139.052 46.7461 138.262 44.2421C138.262 44.2421 138.262 44.2421 138.267 44.237C139.999 40.721 144.005 37.6438 147.85 36.064C155.236 46.71 150.753 64.4756 136.62 64.0419L136.614 64.0368Z" fill="#16366B"/>
<path d="M92.4258 133.328C93.134 133.344 93.8539 133.287 94.5153 133.122C95.2762 121.978 94.2285 110.632 93.333 99.5296C92.4258 88.2411 91.6298 76.6892 89.1013 65.5555C88.4047 65.7156 87.7082 65.8291 87 65.9014C91.6122 87.8746 93.2101 111.03 92.4258 133.333V133.328Z" fill="#1F386B" fill-opacity="0.35"/>
<path d="M87.9738 60.7389C87.2527 60.8738 86.5561 60.9008 85.8889 60.8253C86.2127 61.6343 86.4776 62.4811 86.6885 63.3333C87.8021 63.3225 88.8372 63.0745 89.9017 62.7023C89.9851 61.7961 90.1273 60.89 90.3334 60C89.627 60.3236 88.847 60.5771 87.9738 60.7389Z" fill="white"/>
<path d="M75.8339 43.1978C74.9887 41.1363 72.9992 39.3993 71.4479 37.9343C70.0563 36.621 68.5771 35.4647 67 34.4445C67.7834 40.2678 65.7682 46.2376 68.5204 51.8308C70.7573 56.3775 75.5092 58.3866 80.3333 58.8889C78.0347 56.8431 76.4473 53.7248 75.8391 50.7059C75.3495 48.2886 75.4164 45.7406 75.8288 43.1925L75.8339 43.1978Z" fill="#F5E4D7"/>
<path d="M81.5397 28.3753C81.9048 27.7643 82.5979 27.769 83.0899 28.0722C83.1058 28.0816 83.127 28.0817 83.1428 28.0959C83.5873 28.3848 84.0264 28.6879 84.4603 28.9958C84.8465 28.3421 85.328 27.6506 85.8889 26.9638C84.8412 25.1117 82.9259 23.3638 80.9259 22.2222C79.2592 23.8517 78.4603 25.9501 78.1958 28.1432C78.1852 28.2332 78.1428 28.2995 78.1111 28.3753C78.9894 28.8537 79.836 29.3842 80.5926 30C80.9047 29.4458 81.2169 28.8964 81.5291 28.3753H81.5397Z" fill="#F5E4D7"/>
<path d="M85.8889 27.868C85.7247 28.1105 85.5765 28.353 85.4229 28.5955C84.3481 26.9486 82.8445 25.454 81.2878 24.3937C79.9324 25.9842 79.1541 27.9244 78.7729 30C78.5611 29.8477 78.3388 29.7011 78.1111 29.5488C78.1376 29.4529 78.1799 29.3796 78.1852 29.2781C78.4605 26.661 79.26 24.1624 80.9278 22.2222C82.9292 23.5815 84.8405 25.6627 85.8889 27.868Z" fill="white"/>
<path d="M91.7683 37.7778C92.1102 36.0098 92.7985 34.2945 93.6667 32.6844C93.6442 32.5896 93.6127 32.5002 93.6082 32.3897C93.5362 29.843 93.2933 26.9017 92.5196 24.4445C90.3873 25.5126 87.8952 29.0538 87 31.3268C88.7994 33.2369 90.4323 35.3995 91.7638 37.7725L91.7683 37.7778Z" fill="#F5E4D7"/>
<path d="M76.788 40C77.4098 37.5564 78.2726 35.165 79.2222 32.9198C78.3546 31.9278 77.3134 31.202 76.2193 30.5023C75.1106 29.7922 73.8718 28.9985 72.5608 28.8889C72.4981 31.322 73.009 33.9171 73.6212 36.2511C74.831 37.3998 75.9204 38.6633 76.7929 40H76.788Z" fill="#F5E4D7"/>
<path d="M93.6082 31.9072C93.6082 32.0161 93.6397 32.1003 93.6667 32.1844C93.4507 32.5658 93.2483 32.952 93.0549 33.3333C92.9514 31.2238 92.677 28.9409 92.0158 26.9848C90.4683 27.7128 88.7319 29.659 87.5578 31.4912C87.3779 31.303 87.1934 31.1 87 30.9168C87.8952 28.7775 90.3828 25.4398 92.5196 24.4445C93.2933 26.757 93.5362 29.5154 93.6082 31.9121V31.9072Z" fill="white"/>
<path d="M79.2222 33.0605C79.121 33.309 79.0247 33.536 78.9332 33.7791C78.5333 33.4657 78.1045 33.1739 77.6757 32.8929C76.5677 32.1527 75.3343 31.3367 74.0143 31.2233C73.9661 33.3847 74.3322 35.6488 74.8237 37.7778C74.4382 37.3401 74.0384 36.9186 73.6144 36.5025C73.0122 34.0817 72.5064 31.4015 72.5594 28.8889C73.8794 29.0024 75.1127 29.8183 76.2208 30.5586C77.3144 31.2773 78.3502 32.0392 79.2222 33.0605Z" fill="white"/>
<path d="M98.5881 30C96.0897 32.9618 93.6616 37.1199 93.6666 40.7931C94.8631 43.4071 95.6574 46.2108 95.8886 49.141C96.1098 52.008 95.768 54.6008 94.7324 56.6667C100.142 54.1001 103.595 48.693 102.273 41.9051C101.454 37.6943 99.302 34.1265 98.5881 30Z" fill="#F5E4D7"/>
<path d="M92.3928 43.8328C90.665 38.7253 86.9595 34.4184 82.648 31.1111C80.6543 35.0098 79.1817 39.0968 78.363 43.4037C78.3577 43.4455 78.3471 43.4874 78.3418 43.5293C78.3418 43.5659 78.3311 43.6026 78.3258 43.634C77.438 48.888 79.0967 60.1496 87.22 58.7733C95.0243 57.4702 94.3332 49.5631 92.3928 43.8276V43.8328Z" fill="#F5E4D7"/>
<path d="M75.8889 43.296C75.785 43.9305 75.702 44.5597 75.6448 45.1784C74.8816 44.1367 73.999 43.1744 73.2253 42.3019C71.9481 40.8531 70.567 39.5524 69.0716 38.3838C69.2741 42.6615 67.9969 46.8916 68.1267 51.1111C65.9616 45.7283 67.7425 40.0176 67 34.4445C68.594 35.4703 70.0737 36.6388 71.4756 37.9608C73.0436 39.4466 75.0426 41.2021 75.8889 43.2854V43.296Z" fill="white"/>
<path d="M102.284 42.1202C102.435 42.92 102.53 43.6876 102.556 44.4444C101.276 40.6227 99.0352 37.3859 97.9927 33.5427C96.3005 36.0547 94.7091 39.2807 94.2307 42.3349C94.0544 41.8787 93.8681 41.4439 93.6666 40.993C93.6666 37.2464 96.0941 33.0166 98.5971 30C99.3072 34.2029 101.468 37.8368 102.289 42.1202H102.284Z" fill="white"/>
<path d="M93.6613 49.5249C93.5651 49.1489 93.4422 48.7728 93.3246 48.413C91.5875 43.1703 87.8568 38.7495 83.5275 35.3708C81.5285 39.3619 80.048 43.5625 79.2196 47.9886C79.2196 48.0262 79.2036 48.0746 79.1982 48.1122C79.1982 48.1498 79.1929 48.1874 79.1768 48.225C78.9416 49.6269 78.8829 51.4372 79.0753 53.3333C78.0437 50.1372 77.9208 46.4148 78.327 43.9653C78.343 43.9277 78.3484 43.8901 78.3484 43.8525C78.3484 43.8149 78.3644 43.7612 78.3697 43.729C79.1928 39.3028 80.6787 35.1129 82.6777 31.1111C87.0123 34.4952 90.7377 38.9268 92.4801 44.1695C93.0306 45.84 93.4903 47.6986 93.6666 49.5249H93.6613Z" fill="white"/>
<path d="M100.611 27.9212C100.611 27.9212 100.611 27.9109 100.611 27.9057C100.611 27.8128 100.585 27.7301 100.559 27.6423C100.493 27.353 100.333 27.1309 100.112 26.9914C99.8036 26.7538 99.4077 26.6661 99.0222 26.8468C98.8628 26.9037 98.7291 27.0018 98.616 27.1257C97.7214 27.9677 96.8063 28.9182 95.9374 29.9564C95.7163 27.5338 95.2587 25.0596 94.3282 22.9056C94.2973 22.8281 94.2408 22.7867 94.1996 22.7247C94.1842 22.6937 94.1637 22.6731 94.1431 22.6421C94.0968 22.5905 94.0608 22.5285 94.0094 22.4871C93.7729 22.2392 93.4439 22.0791 93.0172 22.1411C91.1509 22.42 89.1406 23.9335 87.4543 25.7724C86.0765 23.4841 83.8348 21.3869 81.5881 20.1471C81.2488 19.9612 80.9198 19.9663 80.6318 20.08C80.4108 20.0955 80.1846 20.1678 79.9738 20.3641C77.8042 22.42 76.7142 25.1422 76.2772 28.04C74.6886 27.2342 73.0896 26.7229 71.2645 26.9656C70.6013 27.0535 70.3648 27.5751 70.4316 28.0865C70.4213 28.133 70.3956 28.1692 70.3905 28.2208C70.2157 30.1372 70.4419 32.1983 70.848 34.1922C69.3674 33.1539 67.8712 32.2655 66.5242 31.563C66.2312 31.408 65.9433 31.4028 65.6862 31.4751C65.1772 31.5526 64.7556 31.9245 64.7865 32.4979C64.7608 32.6942 64.7916 32.8853 64.8893 33.0609C67.2543 41.1242 63.023 48.8984 69.1309 56.0991C72.4058 59.9577 78.236 61.3524 83.2848 61.3575C83.9274 62.5353 84.3233 63.8422 84.642 65.1439C84.7551 65.6139 85.079 65.8567 85.4441 65.9393C89.5828 88.2181 90.9607 111.685 90.1895 134.289C90.174 134.785 90.4311 135.111 90.7704 135.286C90.791 135.302 90.8167 135.317 90.8373 135.328C90.8733 135.343 90.9092 135.353 90.9452 135.364C91.048 135.41 91.1457 135.457 91.2743 135.472C92.7961 135.663 94.5492 135.55 95.9528 134.883C96.3744 134.682 96.5338 134.336 96.5338 133.984C96.5338 133.964 96.5492 133.953 96.5492 133.933C97.341 122.057 96.3076 109.934 95.4438 98.0894C94.6315 86.9423 93.9323 75.5471 91.7061 64.5705C91.9426 64.4 92.1123 64.1314 92.138 63.7543C92.2357 62.3441 92.5287 60.9237 93.0172 59.5858C97.7728 58.2273 102.287 55.1434 103.983 50.3653C106.965 41.9817 100.59 36.0001 100.611 27.9109V27.9212ZM92.5853 24.6515C93.4696 27.0638 93.7472 29.9461 93.8295 32.4514C93.8295 32.5599 93.8706 32.6477 93.8963 32.7406C92.8989 34.3161 92.1174 36.0053 91.7267 37.7409C90.2049 35.4112 88.3386 33.2882 86.2821 31.4131C87.3052 29.1816 90.1483 25.7053 92.5904 24.6567L92.5853 24.6515ZM78.4314 28.9647C78.6936 26.5679 79.4648 24.2847 81.0843 22.5078C83.0277 23.7527 84.8888 25.6536 85.9068 27.6785C85.3618 28.4275 84.894 29.1816 84.5186 29.8944C84.0971 29.5587 83.6703 29.2281 83.2385 28.913C83.223 28.8975 83.2025 28.9027 83.1871 28.8872C82.7038 28.5566 82.0303 28.5566 81.6807 29.2178C81.3773 29.7912 81.074 30.3852 80.7707 30.9895C80.0355 30.3128 79.2129 29.7395 78.3594 29.2178C78.3903 29.1351 78.4314 29.0628 78.4417 28.9647H78.4314ZM72.6166 29.1868C74.0151 29.2952 75.3364 30.0856 76.5188 30.783C77.6859 31.4751 78.7964 32.1931 79.7218 33.1746C78.709 35.3958 77.7939 37.7615 77.1255 40.179C76.2001 38.8566 75.033 37.6066 73.7426 36.4702C73.0896 34.1612 72.5498 31.5939 72.6115 29.1868H72.6166ZM69.1052 51.9925C66.3597 46.4706 68.3699 40.5767 67.5885 34.8275C69.1617 35.8348 70.6372 36.9712 72.0254 38.2729C73.5729 39.7244 75.5574 41.4394 76.4006 43.4694C75.9893 45.985 75.9224 48.5006 76.4109 50.887C77.0175 53.8624 78.6011 56.9462 80.8941 58.9659C76.0818 58.47 71.3416 56.4865 69.1103 51.9976L69.1052 51.9925ZM93.2896 99.4634C94.0762 110.58 94.9914 121.928 94.3282 133.081C93.7472 133.246 93.12 133.303 92.4927 133.287C93.1817 110.972 91.7781 87.7946 87.7268 65.805C88.3489 65.7327 88.9607 65.6243 89.5725 65.459C91.7935 76.5958 92.4927 88.1562 93.2896 99.4583V99.4634ZM89.9478 62.995C88.8322 63.3514 87.7525 63.5942 86.5803 63.5993C86.3541 62.7832 86.0816 61.9774 85.7423 61.1974C86.4415 61.2697 87.1715 61.2439 87.9273 61.1148C88.8424 60.9598 89.6548 60.7119 90.4002 60.4071C90.1843 61.2594 90.0404 62.1272 89.9478 62.995ZM87.4235 58.8987C79.5625 60.2573 77.9584 49.1411 78.8221 43.955C78.8273 43.9188 78.8376 43.8878 78.8376 43.8516C78.8427 43.8103 78.853 43.769 78.8581 43.7277C79.6499 39.4765 81.074 35.4422 83.002 31.5939C87.1664 34.8533 90.7499 39.1046 92.4259 44.1513C94.3025 49.8127 94.976 57.6177 87.4235 58.9039V58.8987ZM94.6469 56.5639C95.706 54.5339 96.0556 51.9977 95.8294 49.1876C95.5981 46.3156 94.7806 43.5675 93.557 41.0054C93.557 37.4051 96.0351 33.3295 98.5903 30.4265C99.3203 34.4711 101.521 37.9681 102.359 42.0954C103.711 48.7485 100.179 54.0535 94.6469 56.5639Z" fill="#16366B"/>
</svg>
