<svg width="160" height="160" viewBox="0 0 160 160" fill="none" xmlns="http://www.w3.org/2000/svg">
<path fill-rule="evenodd" clip-rule="evenodd" d="M93.2341 22.9254C108.247 23.9399 119.921 34.0524 131.18 44.0349C143.51 54.9668 158.409 65.565 159.84 81.9808C161.345 99.2448 152.098 116.524 138.429 127.175C125.94 136.907 109.049 133.131 93.2341 133.881C76.0157 134.698 57.5943 141.655 43.5378 131.677C28.0137 120.658 18.8429 100.975 20.1176 81.9808C21.3383 63.791 35.6057 49.99 49.7883 38.5349C62.2331 28.4834 77.2734 21.8469 93.2341 22.9254Z" fill="#1F386B" fill-opacity="0.05"/>
<path d="M110.816 41.7898C112.884 38.0299 116.106 35.0348 120.007 33.2469L123.439 31.6736C125.133 30.8974 126.951 30.4295 128.809 30.2919L133.054 29.9774C136.94 29.6896 140.604 31.8176 142.279 35.3353V35.3353C143.663 38.2419 143.471 41.6532 141.77 44.3862L114 89L109.5 79L99 74L92 76L110.816 41.7898Z" fill="#F5E4D7"/>
<path d="M85.3264 104.953C84.8952 104.748 84.5093 104.045 84.5547 103.613C84.5547 103.477 84.5547 103.364 84.6001 103.273C84.9405 101.276 89.344 75.2178 89.344 75.1951L89.5256 74.6731L103.826 49.9319C104.234 49.2056 105.187 48.9559 105.914 49.3871C106.64 49.7957 106.89 50.7263 106.459 51.4754L92.2948 75.9896C91.9089 78.2821 89.1397 94.7611 88.0275 101.276C88.7085 100.935 89.5256 100.527 90.4108 100.05C93.0212 98.688 96.3578 96.8721 99.6491 95.0335C105.324 91.8784 110.839 88.7461 112.247 87.9289L142.935 37.7883L141.55 29.7757L127.636 23.1705L121.371 25.6674L110.431 44.5978C110 45.3241 109.069 45.5738 108.343 45.1652C107.616 44.734 107.367 43.8033 107.775 43.077L118.988 23.6926C119.147 23.3975 119.419 23.1705 119.737 23.0343L127.114 20.1063C127.5 19.9474 127.954 19.97 128.34 20.1516L143.57 27.3924C144.024 27.5967 144.342 28.028 144.41 28.5046L146.022 37.8564C146.09 38.2195 146.022 38.6054 145.818 38.9005L114.63 89.8583C114.494 90.0853 114.312 90.2442 114.085 90.3803C114.085 90.3803 94.61 101.548 88.4588 104.431C87.4601 104.839 87.1423 105.112 86.1663 105.202C86.0074 105.202 85.735 105.202 85.3264 104.975V104.953Z" fill="#16366B"/>
<path d="M111.929 89.6556L107.911 80.3493L98.8545 75.6507L91.0917 76.9445C90.2519 77.0807 89.4801 76.5132 89.3439 75.6961C89.2077 74.8562 89.7752 74.0845 90.5923 73.9483L98.8545 72.5864C99.1723 72.541 99.5128 72.5864 99.8079 72.7453L109.795 77.9432C110.113 78.1021 110.34 78.3518 110.499 78.6923L114.743 88.498C115.084 89.2697 114.743 90.1776 113.949 90.4954C113.745 90.5862 113.563 90.6316 113.359 90.6316C112.769 90.6316 112.201 90.2911 111.952 89.701L111.929 89.6556Z" fill="#16366B"/>
<path d="M102.6 70.9499C101.874 70.5413 101.601 69.6106 102.033 68.8843L124.89 28.3678C125.298 27.6414 126.229 27.369 126.955 27.8003C127.704 28.2089 127.954 29.1395 127.545 29.8658L104.688 70.3824C104.416 70.8818 103.894 71.1541 103.372 71.1541C103.122 71.1541 102.85 71.086 102.623 70.9499H102.6Z" fill="#16366B"/>
<path d="M111.906 74.3318C111.18 73.8778 110.975 72.9472 111.429 72.2208L136.103 32.93C136.557 32.2263 137.487 31.9993 138.191 32.4533C138.917 32.9073 139.121 33.8379 138.667 34.5643L113.994 73.8551C113.699 74.3091 113.2 74.5587 112.701 74.5587C112.428 74.5587 112.156 74.4907 111.906 74.3318Z" fill="#16366B"/>
<path d="M89.2987 90.724C89.2987 90.724 96.721 95.6268 96.9934 98.2144L87.8232 103.027L89.2987 90.724Z" fill="#16366B"/>
<path d="M66.1462 139.319L13.5315 65.3451C13.2364 64.9365 13.1683 64.4372 13.3272 63.9605C13.4861 63.4838 13.872 63.1434 14.3259 63.0072L83.397 42.556C84.0099 42.3744 84.6908 42.6014 85.0767 43.1461L98.9454 62.6667C99.4221 63.3477 99.2632 64.301 98.5822 64.8003C97.9013 65.277 96.9479 65.1181 96.4486 64.4372L83.1927 45.8018L17.2086 65.3451L67.9167 136.618L133.946 110.992L115.719 91.2212C115.152 90.6084 115.175 89.6323 115.81 89.0649C116.423 88.4974 117.399 88.5201 117.967 89.1557L137.714 110.583C138.055 110.946 138.191 111.468 138.077 111.968C137.964 112.467 137.601 112.853 137.147 113.034L67.9167 139.886C67.7351 139.955 67.5536 140 67.372 140C66.8953 140 66.4186 139.773 66.1236 139.364L66.1462 139.319Z" fill="#16366B"/>
<path d="M43.062 74.2888C42.767 73.4944 43.1755 72.6318 43.97 72.3368L81.9216 58.3773C82.7161 58.0822 83.5786 58.4908 83.8737 59.2852C84.1688 60.0796 83.7602 60.9422 82.9657 61.2373L45.0141 75.2195C44.8325 75.2875 44.6509 75.3102 44.492 75.3102C43.8792 75.3102 43.289 74.9244 43.062 74.3115V74.2888Z" fill="#16366B"/>
<path d="M50.825 82.6197C50.4391 81.8706 50.7569 80.94 51.5059 80.5768L63.3091 74.7207C64.0581 74.3348 64.9661 74.6526 65.3519 75.4016C65.7378 76.1507 65.42 77.0813 64.671 77.4445L52.8905 83.3006C52.6636 83.4141 52.4366 83.4595 52.2096 83.4595C51.6421 83.4595 51.1201 83.1417 50.8477 82.6197H50.825Z" fill="#16366B"/>
<path d="M75.3392 73.923C75.0214 73.1513 75.3619 72.2433 76.1336 71.9255L83.5333 68.7478C84.305 68.4073 85.213 68.7705 85.5307 69.5422C85.8485 70.314 85.508 71.2219 84.7363 71.5397L77.3139 74.7175C77.1096 74.8083 76.9054 74.831 76.7238 74.831C76.1336 74.831 75.5662 74.4905 75.3165 73.9003L75.3392 73.923Z" fill="#16366B"/>
<path d="M51.0293 91.0857C50.7569 90.2913 51.1655 89.4288 51.9599 89.1337L81.9899 78.4882C82.7843 78.2158 83.6468 78.6243 83.9419 79.4188C84.2143 80.2132 83.8057 81.0758 83.0113 81.3708L52.9814 92.0164C52.8225 92.0845 52.6409 92.1072 52.482 92.1072C51.8465 92.1072 51.2563 91.7213 51.052 91.0857H51.0293Z" fill="#16366B"/>
<path d="M57.2712 98.9837C57.0215 98.1893 57.4528 97.3267 58.2472 97.0771L74.3403 91.9472C75.1348 91.6976 75.9973 92.1288 76.247 92.946C76.4967 93.7404 76.0654 94.603 75.2483 94.8526L59.1551 100.005C58.9962 100.051 58.8374 100.073 58.7012 100.073C58.0656 100.073 57.4528 99.6647 57.2485 99.0064L57.2712 98.9837Z" fill="#16366B"/>
<path d="M63.1729 109.7C62.8324 108.928 63.1729 108.02 63.9446 107.68L78.0176 101.46C78.7894 101.12 79.6746 101.46 80.0151 102.232C80.3555 103.004 80.0151 103.912 79.2433 104.252L65.1704 110.471C64.9661 110.562 64.7618 110.608 64.5575 110.608C63.9673 110.608 63.4226 110.267 63.1729 109.7Z" fill="#16366B"/>
<path d="M66.691 117.915C66.3505 117.144 66.691 116.236 67.4627 115.895L84.8042 108.132C85.576 107.792 86.4612 108.132 86.8244 108.904C87.1649 109.676 86.8244 110.584 86.0527 110.924L68.7111 118.687C68.5068 118.778 68.3025 118.823 68.0982 118.823C67.5081 118.823 66.9633 118.483 66.7136 117.915H66.691Z" fill="#16366B"/>
</svg>
