<svg width="160" height="160" viewBox="0 0 160 160" fill="none" xmlns="http://www.w3.org/2000/svg">
<path fill-rule="evenodd" clip-rule="evenodd" d="M119.091 126.158C105.773 136.393 90.8945 146.269 74.1987 144.435C55.3163 142.362 38.5921 131.34 27.2854 116.076C14.4901 98.802 1.13092 76.6384 9.23039 56.7259C17.1266 37.3131 43.4764 36.7546 62.825 28.7022C78.1482 22.3251 93.0091 10.1887 108.804 15.286C124.267 20.276 130.667 37.7535 137.103 52.6727C142.585 65.3815 145.326 78.8668 142.031 92.3097C138.658 106.071 130.326 117.525 119.091 126.158Z" fill="#1F386B" fill-opacity="0.05"/>
<path fill-rule="evenodd" clip-rule="evenodd" d="M104.428 119.874L94.5724 118.698C98.399 115.302 104.231 107.172 108.285 106.084L104.426 119.874H104.428ZM103.964 69.4439C103.059 73.6518 103.427 72.8796 101.556 76.2467C99.8633 77.5776 97.8442 77.8426 96.3151 73.8939C95.6611 75.0417 94.9347 76.5785 94.1091 78.609C93.2816 80.6472 93.295 81.1106 93.091 83.1259C95.6802 85.6846 103.572 87.3357 104.994 94.1615C100.161 93.6181 102.759 92.8001 99.6421 90.0107C98.5477 89.0326 95.3637 87.3433 93.5295 86.798C88.4331 90.2662 87.474 94.2549 78.7893 95.0004C77.3707 90.7162 79.5538 90.0012 80.5072 86.4644C75.6281 85.9229 73.4164 86.676 69.9559 88.4225C65.2274 90.8096 61.2711 93.2749 60.3769 98.4152L57.6295 115.104C63.4218 115.297 69.6069 116.259 75.4184 116.702C84.1641 117.365 82.2079 116.044 87.3539 111.849L97.2856 103.668C99.278 101.862 100.14 101.233 102.035 99.3113C107.942 93.3187 109.7 97.0024 113.921 84.0334L124.489 41.0884C107.509 38.7089 91.3597 33.7593 73.7215 32.4971C70.606 43.3706 61.662 80.5138 61.927 90.7486C63.6754 89.9287 64.1082 89.2328 65.9176 88.1441C74.465 82.9962 78.3851 84.8056 81.308 83.2765C81.083 78.8474 80.3813 83.0629 78.9647 79.1524C77.6796 75.6061 77.6815 66.7307 77.8894 62.8774C78.0876 59.2071 77.8207 55.0259 79.1153 51.4223C81.7103 44.1905 89.5866 42.9664 96.0348 45.3287C100.649 47.0199 104.489 51.306 105.33 53.0544C107.162 56.8544 107.072 64.3894 103.984 69.3466C103.978 69.3848 103.972 69.4191 103.966 69.4458L103.964 69.4439ZM101.896 71.7433C104.071 63.1768 107.034 57.8897 101.253 51.2488C98.6278 48.2306 94.6105 45.2086 87.1594 46.4804C80.5548 48.3336 80.4404 53.0506 80.1564 59.8039C83.2985 55.7542 81.3995 57.2624 85.9773 54.492C88.8277 52.7684 87.6685 51.9009 89.9298 49.3956C91.0623 48.141 89.6114 49.2736 91.2625 48.2821L91.5752 49.8532C91.5657 49.9867 91.5371 50.2193 91.5104 50.3565C91.3159 51.3556 91.0737 51.1459 90.5761 52.3566C87.8096 59.0718 93.9489 57.7486 96.8394 61.8707C100.031 66.4237 99.2551 66.7498 98.87 68.8242C97.1254 74.3096 99.7775 75.5394 101.894 71.7433H101.896ZM126.324 84.3156C127.696 87.3472 127.853 94.2377 127.868 98.1406L122.894 97.7974C123.235 95.4256 123.803 93.0442 124.598 90.9087C125.635 88.1193 125.485 88.0412 126.324 84.3156ZM110.15 134.46L82.368 129.875C94.5858 115.756 95.4228 122.183 105.618 122.622C110.941 112.416 105.476 104.154 121.944 93.2997C120.701 101.904 115.353 114.921 112.838 123.758C111.826 127.314 111.835 131.27 110.152 134.462L110.15 134.46ZM80.8809 92.1614L84.0344 82.1516L91.0814 81.3069C90.9479 85.5969 91.6095 86.4339 88.4502 88.7542C86.25 90.3711 83.9544 91.6828 80.879 92.1614H80.8809ZM131.3 64.7459L135.136 104.129C132.061 104.139 130.251 103.769 127.515 103.597C126.673 103.544 124.611 103.555 123.961 103.416C119.801 102.534 122.24 104.089 121.462 101.414C123.481 98.3885 127.109 100.333 130.572 100.823C129.454 89.9573 125.948 74.4145 131.3 64.7459ZM85.9773 56.5626C89.1309 57.903 86.2748 56.5169 88.5322 58.801C90.8831 61.1786 88.4502 59.3902 91.8783 60.6924C102.861 64.8679 90.1071 78.6472 89.2987 79.1029C88.0746 79.5261 87.0126 79.8446 85.2242 79.8751C82.1869 79.9284 83.2661 80.2068 81.1059 78.9942C80.6101 76.0523 81.3289 75.8883 82.1755 73.3982C83.5502 69.3581 82.4004 70.4982 81.4319 67.5696C80.7607 65.541 81.5806 59.1328 85.9773 56.5588V56.5626ZM55.6847 116.772L78.7721 118.767C76.059 122.281 72.1599 124.612 68.9187 127.955L46.243 125.038C47.0991 112.425 56.251 61.3559 60.4227 44.1028C62.5352 35.3647 65.2198 26.8744 66.8232 17.9361C75.8664 17.7969 132.267 28.5122 137.699 30.764L126.116 77.3602C124.852 81.3012 124.373 79.3755 121.115 82.1611C118.914 84.043 118.022 85.6693 115.099 87.3109C116.508 80.1363 127.199 40.362 127.092 39.1837C126.901 39.1017 126.602 38.8061 126.499 38.9854L72.5527 29.7763C64.6173 52.3947 60.9813 86.2527 56.1232 111.657C56.0279 112.151 55.6923 113.676 55.6294 114.149L55.6809 116.772H55.6847ZM137.132 106.564C137.292 94.8707 134.425 79.2173 133.636 66.6754C132.28 45.14 140.825 37.073 139.369 29.1224C134.846 27.2253 67.1321 15.734 66.379 16.0047C64.7812 16.9771 60.0871 38.9225 59.0804 42.751C56.5637 52.3204 42.3802 122.662 44.2582 127.284C50.4662 128.012 56.0279 128.147 62.0757 129.068L111.658 136.857C112.34 135.509 117.982 109.251 120.722 105.576C127.246 104.69 131.243 106.835 137.13 106.562L137.132 106.564Z" fill="#16366B"/>
<path d="M45.96 104.573C49.5194 101.696 50.1072 97.718 49.5823 93.7058C48.9924 89.2091 44.7526 84.0463 34.9384 81.6314C29.9691 85.366 25.5848 89.6607 26.0747 96.5294C26.5047 102.55 31.715 101.569 36.9042 103.365C36.9492 103.375 44.6637 104.792 45.96 104.573Z" fill="white"/>
<path d="M44.4628 103.999C48.0223 101.123 48.9877 97.0116 48.4628 92.9994C47.8729 88.5027 46.4628 83.9994 36.4011 82.6322C31.4319 86.3668 27.0476 91.6616 27.5375 98.5303C27.9674 104.551 33.2736 101.703 38.4628 103.499C42.4628 105.499 43.4628 104.808 44.4628 103.999Z" fill="#F5E4D7"/>
<path d="M44.1488 138.381C47.7739 135.81 49.3435 134.648 48.8089 131.062C39.319 114.837 25.4335 118.458 25.4335 118.458C25.4335 118.458 25.4335 118.458 21.8112 125.703C21.8112 132.947 25.4335 137.174 30.867 143.211C26.4406 147.329 42.8286 138.577 44.1488 138.381Z" fill="white"/>
<path d="M48.2779 125.991C48.7884 123.847 48.9936 122.9 47.617 121.684C38.7473 118.425 34.7482 124.229 34.7482 124.229C34.7482 124.229 34.7483 124.229 35.7726 128.178C38.15 130.978 40.8901 131.461 44.9011 132.071C44.5991 135.066 47.8491 126.485 48.2779 125.991Z" fill="white"/>
<path d="M42.5 138.999C46.1251 136.428 48.3435 136.648 47.8089 133.062C38.319 116.837 25 120.999 25 120.999C25 120.999 24.4335 120.458 20.8112 127.703C25 133.999 27.133 136.788 30 143.499C25.5736 147.618 41.1798 139.196 42.5 138.999Z" fill="#F5E4D7"/>
<path d="M50.5116 127.466C50.8216 125.281 50.938 124.314 49.43 122.914C40.1532 118.666 38 122.499 38 122.499C38 122.499 36.6693 124.331 38.0836 128.545C40.7551 131.691 42.8908 134.483 47.0029 135.503C46.9854 138.596 49.43 133.003 50.5116 127.466Z" fill="#F5E4D7"/>
<path d="M65.5664 114.488C66.6261 112.497 67.0749 111.623 66.0888 110.94C58.5107 110.494 53.1481 116.584 53.1481 116.584C53.1481 116.584 53.1482 116.584 53.0676 119.725C55.7054 119.062 58.1203 120.269 59.9315 118.458C60.5352 118.458 65.0256 115.03 65.5664 114.488Z" fill="white"/>
<path d="M52.6595 91.1328C53.4096 90.4224 53.7344 90.1014 53.6237 89.1105C51.6601 84.6275 48.7869 85.628 48.7869 85.628C48.7869 85.628 48.7869 85.6281 48.0374 87.6298C48.9103 88.6573 48.8061 93.5611 49.7196 93.3832C49.8843 93.7172 52.3863 91.187 52.6595 91.1328Z" fill="white"/>
<path d="M66.9124 114.487C68.0209 112.554 68.8856 112.585 67.9674 111.981C60.6966 111.897 53.1079 118.882 53.1079 118.882C53.1079 118.882 53.0759 119.563 54.6537 120.007C57.2211 119.261 59.4905 120.297 61.3139 118.501C61.8947 118.474 66.3679 115.025 66.9124 114.487Z" fill="#A9B3C7"/>
<path d="M63.4678 125.702L74.3348 120.268L75.5422 121.476V128.117L71.9199 131.739L60.4492 134.758L63.4678 125.702Z" fill="#A9B3C7"/>
<path d="M80.0596 113.464C76.1625 108.772 73.0036 103.513 70.6917 97.8692V97.8692L78.1815 99.7439L81.8038 104.574L81.2001 108.8V114.837L80.0596 113.464Z" fill="#A9B3C7"/>
<path d="M85.8054 114.233L82.1831 107.592L90.0315 106.988L94.8612 113.629L97.8798 119.666L95.4649 119.062L88.824 118.459L85.8054 114.233Z" fill="white"/>
<path d="M86.0298 114.233L81.6823 106.841L84.0254 108.641C87.3441 111.19 91.1154 113.088 95.1402 114.233V114.233L98.1042 119.667L95.6893 119.063L89.0484 118.459L86.0298 114.233Z" fill="#A9B3C7"/>
<path fill-rule="evenodd" clip-rule="evenodd" d="M93.8598 118.374C84.891 116.309 91.0819 118.254 82.4277 108.118C89.7415 105.384 93.3565 111.274 97.0573 118.815L97.3433 119.673L93.8617 118.374H93.8598ZM61.9237 133.519C62.98 125.85 67.0144 124.876 75.028 121.127C75.4284 125.45 76.4332 127.926 71.7829 130.916C69.7542 132.22 64.1487 133.467 61.9237 133.52V133.519ZM30.7559 142.697C31.3565 140.783 32.838 139.698 33.5167 137.216C34.1745 134.802 33.7513 133.545 36.5082 131.663C47.0538 124.473 51.5325 132.344 47.0729 135.4C43.8068 137.639 43.7191 135.885 38.922 140.209C36.6703 142.239 33.4786 142.831 30.7559 142.695V142.697ZM48.8442 121.413C45.9499 119.585 47.8794 119.194 47.8184 115.987C49.4105 114.853 50.6612 114.344 52.053 114.159C50.8328 115.884 49.0558 119.655 48.8442 121.413ZM33.94 131.084L33.0077 127.457C31.4347 129.825 31.8465 130.76 31.959 134.112C32.041 136.504 31.7684 138.279 29.6939 139.972C26.6395 138.062 23.2552 130.512 27.6062 128.273C29.5128 131.389 27.3869 132.561 30.0886 133.917C31.0095 131.332 30.2049 125.23 26.9789 126.414L25.4231 127.08C24.813 127.52 24.3706 128.119 24.0713 128.779C23.4211 130.211 23.8825 130.317 23.6957 132.249C20.9558 128.622 21.3676 122.269 27.0094 124.025C30.1801 125.011 29.2421 126.931 32.7026 126.527C36.4739 126.085 35.4177 124.872 38.8725 127.839L33.94 131.084ZM24.9578 119.375C30.2564 116.403 32.5253 119.461 37.4253 121.598C40.352 122.876 48.9929 119.305 48.1502 125.768C47.9252 127.494 47.8794 126.508 46.5124 126.592C37.3414 127.145 41.5685 125.993 36.9182 124.378C33.2651 123.108 33.5072 126.069 30.4032 123.921C28.8016 122.813 27.0418 120.809 24.9559 119.375H24.9578ZM40.1251 119.981C35.2155 119.949 29.5071 111.377 21.3105 119.766C23.1771 122.01 21.7109 120.275 24.0846 121.657C20.8472 123.326 19.7089 124.817 20.0616 127.572C20.3133 129.522 20.9139 132.083 22.4678 133.703C24.1933 135.503 23.2667 133.45 24.6147 136.003L27.7949 141.9C27.957 142.508 27.57 142.96 27.9475 144.459C37.8715 146.821 40.5808 140.352 44.1405 138.933C47.2331 137.702 46.6935 138.523 50.1026 135.847C51.7099 139.296 52.259 140.914 55.9331 141.382C58.1371 141.662 60.8026 142.27 62.7054 140.382C59.1629 135.383 56.0532 141.496 55.5079 132.19C53.5441 130.521 52.0225 130.212 50.6326 128.723C52.6384 127.942 52.0302 128.941 54.5927 127.679C58.7892 125.61 63.5043 122.403 68.555 122.327C59.8016 127.761 62.4613 125.15 60.427 132.367C59.7387 134.807 59.1591 133.604 60.1505 136.188C61.1382 136.033 71.8725 132.676 72.6256 132.172C78.5705 128.195 75.8441 125.495 77.1444 121.261C78.3627 120.893 78.786 120.386 79.6344 121.246C81.1273 122.759 78.09 120.195 80.5496 123.793C85.0626 120.248 78.4676 120.801 91.7244 122.203C92.4928 123.614 91.3984 123.213 91.6863 125.101C97.2441 121.539 100.714 123.171 105.996 124.378L119.399 128.474C121.087 129.053 122.007 129.877 123.809 130.355C127.192 131.255 126.885 128.901 126.892 128.885L116.166 125.572C106.894 121.959 110.387 125.77 107.694 119.653L107.271 120.538C105.816 122.946 105.786 121.88 104.695 121.535C95.1697 118.527 95.5091 107.243 87.3487 105.319C85.5851 104.904 80.0348 105.966 78.6582 106.934C80.1225 108.727 81.4896 109.243 83.299 111.607C84.8357 113.615 85.8005 115.678 87.2438 117.804C84.1589 119.2 79.4342 118.689 76.5323 115.518C75.8516 117.655 76.9689 118.351 75.9622 117.73C75.8593 117.667 75.8841 118.023 75.8307 118.164C73.7277 118.252 69.6856 118.914 67.1288 119.663C60.3374 121.655 62.4137 120.847 59.2106 119.457C59.1495 122.033 62.3394 121.402 53.2676 125.423C47.214 119.928 53.5898 116.443 56.4288 111.903C54.4268 110.351 53.607 110.973 51.0692 111.813C43.7935 114.225 47.0443 117.427 44.722 118.998C44.4055 119.211 40.516 119.98 40.127 119.976L40.1251 119.981Z" fill="#16366B"/>
<path fill-rule="evenodd" clip-rule="evenodd" d="M50.0742 97.7788C51.0524 92.0646 53.9314 94.9245 53.8551 90.4954C53.8456 89.9596 52.4404 83.0614 52.2955 82.7621C49.4584 83.683 49.4108 85.0157 47.9598 87.0387C46.0951 84.173 38.0815 79.3473 34.7754 80.396C31.7839 81.3455 25.6446 88.2532 25.206 92.587C23.614 108.305 34.3731 102.921 38.9338 104.523C49.7425 108.321 42.9549 109.041 42.524 109.657C44.4859 111.817 47.9236 110.816 49.1858 107.714C50.2325 105.144 48.3945 105.365 47.8854 102.454C55.3385 105.142 51.6129 105.194 53.9123 106.334C54.7818 106.765 55.1497 106.067 57.4072 107.241C58.5378 107.829 62.5303 109.901 63.3959 110.814C57.5578 110.031 53.266 114.178 49.5976 118.958C48.3201 120.622 49.0485 119.411 48.7282 120.67C50.7359 121.789 51.4775 120.534 54.1335 120.157C60.7609 119.213 61.4188 122.449 67.8422 114.132L76.8377 117.838C89.7723 122.697 80.4527 120.466 88.8533 121.562L101.252 123.682C103.717 124.155 104.951 124.062 107.256 124.58C109.205 125.019 111.054 125.997 112.728 123.574C111.609 122.454 112.564 122.624 107.904 121.942C99.1281 120.656 96.9069 121.921 94.4302 115.427C92.8687 117.213 93.557 115.205 93.4483 118.872L93.475 119.917C87.3318 117.913 81.3507 119.665 82.0295 106.957C82.5824 96.6023 70.9767 95.9655 69.0948 96.7492L70.1321 106.965C71.0663 112.647 74.931 111.272 78.2982 115.272C73.5125 114.576 62.2005 108.218 59.1689 105.333C60.0078 102.736 60.3549 104.116 60.2233 101.18L57.0945 104.202C54.6197 102.071 51.8818 101.152 50.0705 97.7788H50.0742ZM39.4162 94.9112C36.1349 94.9169 34.9394 94.3239 30.7715 97.0199C29.0841 98.2382 26.4987 99.9962 26.8324 97.4031C25.391 92.9683 28.2319 91.5498 27.4654 90.5507L30.9546 91.4316C31.0613 91.5288 31.2558 91.3877 31.3168 91.3763C32.4284 91.1799 31.2729 91.6718 32.5104 91.1761C33.8469 90.6403 32.9107 91.0121 34.2949 89.727C34.2053 91.7557 33.6677 91.4983 33.9861 93.4717C36.7164 92.2514 37.2216 89.6946 35.8851 87.0806L27.7304 89.4982C28.9221 87.8566 35.1015 78.2662 37.3589 84.4342C38.48 87.4982 36.6878 89.279 39.4143 94.9112H39.4162ZM46.6423 98.3088C46.7262 100.286 44.6366 102.971 43.1418 104.505C37.275 99.6568 32.2816 103.684 28.5217 100.993C32.5809 99.1668 33.887 96.406 37.4352 96.9208C40.7718 97.4031 43.319 100.107 46.6423 98.3107V98.3088ZM50.305 92.2419C48.8273 89.0978 49.5042 89.4353 50.7321 87.2274C52.1468 90.5259 52.6368 90.3028 50.305 92.2419ZM46.6423 98.3088C43.7919 94.9893 38.1082 94.7281 39.7041 84.3008C42.6575 84.5887 45.035 86.6287 46.7224 89.7957C48.3736 92.8939 49.0866 95.5575 46.6423 98.3088ZM65.2377 113.718C62.4159 119.257 58.0478 118.084 53.571 118.348C55.0696 115.02 58.0383 112.311 62.1452 112.761L64.4045 113.312C64.5113 113.352 64.7363 113.474 64.8221 113.508C64.9079 113.545 65.1004 113.646 65.2377 113.716V113.718ZM80.2982 114C77.5145 111.476 73.3905 109.993 72.3876 107.545C71.5315 105.457 72.5401 103.028 71.4534 99.6511L72.5382 99.8017C82.3726 101.968 79.8826 105.851 80.2982 114Z" fill="#16366B"/>
</svg>
