<?xml version="1.0" encoding="UTF-8"?><svg id="a" xmlns="http://www.w3.org/2000/svg" xmlns:xlink="http://www.w3.org/1999/xlink" viewBox="0 0 420 595"><defs><style>.k{fill:url(#f);}.k,.l{fill-rule:evenodd;}.k,.l,.m,.n,.o,.p,.q,.r,.s,.t,.u,.v{stroke-width:0px;}.w{fill:none;stroke:#fff;stroke-width:2px;}.l,.n{fill:#233763;}.m{fill:#fff;}.o{fill:url(#b);}.p{fill:url(#c);}.q{fill:url(#e);}.r{fill:url(#d);}.s{fill:url(#j);}.t{fill:url(#i);}.u{fill:url(#h);}.v{fill:url(#g);}</style><linearGradient id="b" x1="27.19" y1="14.05" x2="27.19" y2="580.86" gradientTransform="translate(0 595.32) scale(1 -1)" gradientUnits="userSpaceOnUse"><stop offset="0" stop-color="#c4995d"/><stop offset=".63" stop-color="#f9f3db"/><stop offset="1" stop-color="#d1af7c"/></linearGradient><linearGradient id="c" x1="395" y1="14.05" x2="395" y2="580.86" gradientTransform="translate(0 595.32) scale(1 -1)" gradientUnits="userSpaceOnUse"><stop offset="0" stop-color="#c4995d"/><stop offset=".63" stop-color="#f9f3db"/><stop offset="1" stop-color="#d1af7c"/></linearGradient><linearGradient id="d" x1="210.45" y1="14.05" x2="210.45" y2="580.86" gradientTransform="translate(0 595.32) scale(1 -1)" gradientUnits="userSpaceOnUse"><stop offset="0" stop-color="#c4995d"/><stop offset=".63" stop-color="#f9f3db"/><stop offset="1" stop-color="#d1af7c"/></linearGradient><linearGradient id="e" x1="210.45" y1="14.05" x2="210.45" y2="580.86" gradientTransform="translate(0 595.32) scale(1 -1)" gradientUnits="userSpaceOnUse"><stop offset="0" stop-color="#c4995d"/><stop offset=".63" stop-color="#f9f3db"/><stop offset="1" stop-color="#d1af7c"/></linearGradient><linearGradient id="f" x1="210.45" y1="14.59" x2="210.45" y2="581.4" gradientTransform="translate(0 595.32) scale(1 -1)" gradientUnits="userSpaceOnUse"><stop offset="0" stop-color="#c4995d"/><stop offset=".63" stop-color="#f9f3db"/><stop offset="1" stop-color="#d1af7c"/></linearGradient><linearGradient id="g" x1="290.7" y1="632.89" x2="250.27" y2="410.66" gradientTransform="translate(0 595.32) scale(1 -1)" gradientUnits="userSpaceOnUse"><stop offset="0" stop-color="#c4995d"/><stop offset=".31" stop-color="#f9f3db"/><stop offset="1" stop-color="#be9755"/></linearGradient><linearGradient id="h" x1="254.81" y1="544.68" x2="203.49" y2="297.8" gradientTransform="translate(0 595.32) scale(1 -1)" gradientUnits="userSpaceOnUse"><stop offset="0" stop-color="#c4995d"/><stop offset=".31" stop-color="#f9f3db"/><stop offset="1" stop-color="#be9755"/></linearGradient><linearGradient id="i" x1="202.64" y1="698.98" x2="162.23" y2="476.74" gradientTransform="translate(0 595.32) scale(1 -1)" gradientUnits="userSpaceOnUse"><stop offset="0" stop-color="#c4995d"/><stop offset=".31" stop-color="#f9f3db"/><stop offset="1" stop-color="#be9755"/></linearGradient><linearGradient id="j" x1="171.48" y1="576.83" x2="141.77" y2="458.82" gradientTransform="translate(0 595.32) scale(1 -1)" gradientUnits="userSpaceOnUse"><stop offset="0" stop-color="#c4995d"/><stop offset=".31" stop-color="#f9f3db"/><stop offset="1" stop-color="#be9755"/></linearGradient></defs><rect class="m" y="0" width="420" height="595"/><path class="o" d="M27.73,551.05V44.38h-1.08v506.67h1.08Z"/><path class="p" d="M395.54,44.38v506.67h-1.08V44.38h1.08Z"/><path class="r" d="M45.12,569.23h330.66v-1.08H45.12v1.08Z"/><path class="q" d="M375.78,27.76H45.12v-1.08h330.66v1.08Z"/><path class="k" d="M40.67,15v.54c0,1.71-.18,3.39-.52,5h-18.76v18.64c-1.57.32-3.19.49-4.85.49h-.54v516.39h.54c1.66,0,3.28.17,4.85.49v18.36h18.7c.38,1.7.58,3.47.58,5.28v.54h339.56v-.54c0-1.81.2-3.58.58-5.28h19.99v-18.59c1.16-.17,2.35-.26,3.56-.26h.54V39.67h-.54c-1.21,0-2.4-.09-3.56-.26v-18.87h-20.05c-.34-1.61-.52-3.29-.52-5v-.54H40.67ZM379.65,20.54c-.29-1.45-.46-2.94-.49-4.46H41.74c-.03,1.52-.2,3.01-.49,4.46h338.39ZM41.01,21.62h338.88c2.36,9.52,10.12,16.9,19.83,18.7v515.08c-9.62,1.79-17.32,9.05-19.76,18.42H40.94c-2.33-8.96-9.46-15.98-18.47-18.15V40.05c9.11-2.2,16.29-9.34,18.54-18.43ZM39.9,21.62h-17.43v17.32c8.51-2.15,15.22-8.83,17.43-17.32ZM21.39,40.28c-1.4.27-2.84.43-4.31.46v514.24c1.47.03,2.91.19,4.31.46V40.28ZM22.47,556.79v17.04h17.35c-2.28-8.36-8.94-14.91-17.35-17.04ZM41.2,574.91c.33,1.53.51,3.12.55,4.74h337.41c.03-1.62.22-3.21.55-4.74H41.2ZM381.08,573.83h18.64v-17.33c-9.03,1.76-16.25,8.55-18.64,17.33ZM400.8,555.23c.99-.14,2-.22,3.02-.24V40.74c-1.02-.02-2.03-.1-3.02-.24v514.73ZM399.72,39.22c-9.12-1.78-16.4-8.69-18.72-17.6h18.72v17.6Z"/><path class="l" d="M361.4,51.04c3.4.12,6.13,2.81,6.13,6.11h0c0,1.1-.31,2.14-.84,3.03.53.9.84,1.93.84,3.03,0,3.37-2.86,6.11-6.37,6.11h-.04c-1.15,1.59-3.07,2.63-5.23,2.63s-4.08-1.04-5.23-2.63h-.04c-3.51,0-6.37-2.74-6.37-6.11,0-1.1.31-2.14.84-3.03-.54-.9-.84-1.93-.84-3.03,0-3.3,2.73-5.99,6.13-6.11,1.1-1.82,3.15-3.04,5.5-3.04s4.4,1.22,5.5,3.04ZM366.36,59.68c.4-.76.64-1.62.64-2.53h0c0-2.91-2.33-5.31-5.3-5.56.37.77.57,1.63.57,2.53,0,1.06-.28,2.06-.78,2.93.01.02.03.04.04.07,1.99.1,3.74,1.09,4.83,2.56ZM356.22,66.15c.97,1.51,2.67,2.54,4.63,2.65h0c.56-.86.88-1.87.88-2.95,0-.86-.21-1.68-.57-2.41-1.09,1.52-2.87,2.54-4.9,2.65-.01.02-.03.04-.04.07ZM350.65,63.43c-.37.73-.57,1.55-.57,2.41h0c0,1.08.32,2.09.88,2.95,1.95-.1,3.65-1.14,4.63-2.65-.01-.02-.02-.04-.04-.07-2.03-.11-3.81-1.13-4.9-2.65ZM355.36,53.89c-1.04-1.39-2.73-2.3-4.64-2.33h0c-.41.77-.64,1.63-.64,2.55,0,.86.21,1.68.57,2.41,1.05-1.47,2.76-2.48,4.71-2.64ZM361.15,56.53c.37-.73.57-1.55.57-2.41h0c0-.92-.23-1.79-.64-2.55-1.91.03-3.6.94-4.64,2.33,1.95.16,3.66,1.17,4.71,2.64ZM361.15,62.39c.37-.73.57-1.55.57-2.41h0c0-.84-.2-1.64-.54-2.35h-.01s-.02,0-.03,0c-.01,0-.02,0-.03,0-.82,1.12-2.02,1.96-3.42,2.35,1.43.4,2.65,1.27,3.47,2.41ZM355.89,65.57h.02c.35-.71.54-1.5.54-2.35s-.2-1.65-.55-2.38c-.35.72-.55,1.54-.55,2.38s.2,1.64.54,2.35ZM355.48,54.41c-1.92.13-3.58,1.15-4.54,2.64,0,.01.02.02.02.03,0,.01.02.02.02.03,1.57.08,2.99.72,4.05,1.7-.16-.53-.24-1.09-.24-1.67,0-.99.24-1.92.68-2.74ZM356.76,58.82c1.06-.98,2.48-1.62,4.05-1.7.02-.02.03-.05.05-.07-.96-1.48-2.62-2.51-4.53-2.64.43.83.68,1.76.68,2.74,0,.58-.08,1.14-.24,1.67ZM355.35,57.15c0,.85.2,1.65.55,2.38.35-.72.55-1.53.55-2.38s-.2-1.65-.55-2.38c-.35.72-.55,1.53-.55,2.38ZM360.38,57.68c-.91,1.05-2.21,1.78-3.69,1.97.91-1.05,2.21-1.78,3.69-1.97ZM355.11,59.65c-1.48-.19-2.78-.92-3.69-1.97,1.48.19,2.78.92,3.69,1.97ZM355.05,61.55c-1.02.94-2.37,1.57-3.87,1.69.94,1.26,2.42,2.13,4.11,2.3-.31-.72-.48-1.5-.48-2.32,0-.58.08-1.14.24-1.67ZM351.08,62.72c.97-1.37,2.56-2.31,4.38-2.44-.97,1.37-2.56,2.31-4.38,2.44ZM356.76,61.54c.16.53.24,1.09.24,1.67h0c0,.82-.17,1.6-.48,2.32,1.69-.17,3.16-1.04,4.11-2.3-1.5-.12-2.85-.74-3.87-1.69ZM356.35,60.27c1.82.13,3.41,1.07,4.38,2.44-1.82-.13-3.41-1.07-4.38-2.44ZM350.7,57.63s-.04,0-.07,0h-.01c-.35.72-.54,1.49-.54,2.35s.21,1.68.57,2.41c.82-1.15,2.04-2.01,3.47-2.41-1.4-.39-2.6-1.23-3.42-2.35ZM350.21,62.72c-1.87-.13-3.5-1.11-4.47-2.54.93-1.38,2.48-2.34,4.27-2.52-.31.72-.48,1.5-.48,2.32,0,.98.24,1.91.68,2.74ZM361.79,57.66c.31.72.48,1.5.48,2.32h0c0,.99-.24,1.92-.68,2.74,1.87-.13,3.5-1.11,4.47-2.54-.93-1.38-2.48-2.34-4.26-2.52ZM360.77,51.05c-1.04-1.52-2.83-2.52-4.87-2.52s-3.83,1.01-4.87,2.52c2.02.12,3.79,1.15,4.87,2.67,1.08-1.52,2.85-2.55,4.87-2.67ZM350.11,51.58c-2.97.26-5.3,2.65-5.3,5.57h0c0,.91.23,1.77.63,2.53,1.09-1.47,2.84-2.46,4.84-2.56.01-.02.03-.04.04-.07-.5-.87-.78-1.87-.78-2.93,0-.9.21-1.76.58-2.53ZM345.45,60.68c-.4.76-.64,1.62-.64,2.53,0,2.98,2.45,5.43,5.52,5.58-.51-.88-.79-1.88-.79-2.95,0-.93.22-1.82.61-2.61-1.94-.14-3.63-1.12-4.7-2.56ZM351.32,69.29c1.07,1.3,2.72,2.14,4.58,2.14s3.51-.84,4.58-2.14c-1.9-.2-3.56-1.2-4.58-2.65-1.02,1.45-2.68,2.45-4.58,2.65ZM361.48,68.8c3.07-.15,5.52-2.6,5.52-5.58,0-.91-.23-1.77-.64-2.53-1.07,1.44-2.76,2.41-4.7,2.56.39.79.61,1.67.61,2.61,0,1.07-.29,2.08-.79,2.95Z"/><path class="n" d="M336.37,79.67c-.42-.22-.76-.54-1.01-.97-.25-.43-.37-.95-.37-1.56s.12-1.13.36-1.56c.24-.43.57-.75.98-.97.41-.22.87-.32,1.38-.32.39,0,.74.05,1.07.16.33.11.6.25.83.43v.97c0,.1-.05.14-.16.14-.07,0-.13-.03-.17-.08-.04-.05-.08-.14-.11-.25l-.13-.55c-.13-.09-.3-.16-.51-.22-.21-.06-.44-.08-.68-.08-.4,0-.75.09-1.06.27-.3.18-.54.44-.71.79s-.25.77-.25,1.27.09.92.26,1.27.42.62.74.8c.31.18.67.27,1.08.27.55,0,.99-.11,1.3-.32.05-.04.09-.06.13-.08.04-.02.07-.03.11-.03.05,0,.1.02.15.07.05.04.07.1.07.16,0,.12-.09.23-.26.34-.18.11-.4.19-.67.27s-.58.11-.92.11c-.54,0-1.02-.11-1.45-.32h0Z"/><path class="l" d="M340.65,79.71c-.25-.19-.37-.46-.37-.81,0-.39.14-.67.43-.85.29-.18.66-.31,1.11-.38l1.08-.16v-.32c0-.24-.08-.44-.23-.58-.16-.14-.37-.21-.65-.21-.16,0-.34.03-.54.08-.2.05-.36.12-.48.19l-.08.34c-.05.17-.13.26-.26.26-.05,0-.09-.01-.11-.04-.03-.02-.04-.05-.04-.09v-.78c.23-.13.48-.23.78-.32.3-.08.58-.13.86-.13.45,0,.82.11,1.1.33.29.22.43.54.43.95v2.25l.29.09c.09.03.16.06.2.1.04.03.06.08.06.14,0,.07-.03.11-.11.11h-1.2v-.5h-.03c-.15.18-.34.33-.57.44-.23.11-.49.16-.77.16-.35,0-.65-.1-.9-.29h0ZM342.33,79.38c.17-.09.31-.2.42-.35.1-.15.16-.3.16-.47v-.59l-.92.14c-.29.05-.52.13-.68.25-.16.12-.24.29-.24.5s.07.36.2.47c.13.11.31.17.53.17.19,0,.37-.04.54-.13h0Z"/><path class="n" d="M344.74,79.71c0,.06.01.1.04.14h0s.07.05.11.05h1.68c.07,0,.11-.04.11-.11,0-.06-.02-.1-.06-.14-.04-.03-.1-.06-.19-.09l-.37-.1v-2.15c.51-.44,1.06-.66,1.67-.66.08-.09.12-.2.12-.34,0-.11-.04-.19-.11-.27-.07-.07-.17-.11-.3-.11-.22,0-.46.08-.71.25-.25.17-.48.37-.68.62h-.03v-.79h-.93c-.11,0-.2.02-.26.06-.06.04-.1.11-.1.2,0,.12.05.18.16.18h.4v2.99h-.21c-.11,0-.2.02-.26.06-.06.04-.09.11-.09.19Z"/><path class="l" d="M349.25,79.76c-.31-.16-.55-.39-.72-.69-.17-.3-.26-.66-.26-1.08s.08-.79.24-1.1c.16-.31.39-.55.68-.71.29-.17.64-.25,1.03-.25.54,0,.97.15,1.3.46.33.3.49.71.49,1.21,0,.19-.04.37-.13.55h-2.83c0,.44.12.78.38,1.02.25.24.56.35.92.35.2,0,.38-.02.54-.08.16-.05.33-.13.5-.23.08-.05.15-.08.2-.08.06,0,.11.02.15.06.04.04.06.1.06.16s-.02.12-.07.17c-.05.05-.12.1-.22.16-.34.2-.74.3-1.2.3-.4,0-.75-.08-1.06-.24h0ZM351.2,77.68c.02-.06.03-.14.03-.23,0-.33-.09-.58-.28-.76-.18-.18-.43-.27-.74-.27-.32,0-.59.11-.8.34-.21.22-.33.53-.36.93h2.15Z"/><path class="n" d="M352.58,79.71c0,.06.01.1.04.14h0s.07.05.11.05h1.68c.07,0,.11-.04.11-.11,0-.06-.02-.11-.06-.14-.04-.04-.1-.07-.19-.09l-.37-.1v-2.43c.17-.18.36-.32.56-.43.2-.11.41-.16.61-.16.26,0,.47.07.61.21.14.14.22.33.22.57v2.23h-.21c-.11,0-.2.02-.26.06-.06.04-.09.11-.09.19,0,.06.01.1.04.14.03.04.07.05.12.05h1.68c.07,0,.11-.04.11-.11,0-.06-.02-.1-.06-.14-.04-.03-.1-.06-.19-.09l-.37-.1v-2.3c0-.37-.13-.67-.38-.89-.26-.22-.58-.33-.97-.33-.49,0-.96.2-1.42.61h-.03v-.53h-.93c-.11,0-.2.02-.26.06-.06.04-.09.11-.09.2,0,.12.05.18.16.18h.4v2.99h-.21c-.11,0-.2.02-.26.06-.06.04-.09.11-.09.19Z"/><path class="l" d="M358.17,79.71c-.25-.19-.37-.46-.37-.81,0-.39.14-.67.43-.85.29-.18.66-.31,1.11-.38l1.08-.16v-.32c0-.24-.08-.44-.23-.58-.16-.14-.37-.21-.65-.21-.16,0-.34.03-.54.08-.2.05-.36.12-.48.19l-.08.34c-.04.17-.13.26-.26.26-.05,0-.09-.01-.11-.04-.03-.02-.04-.05-.04-.09v-.78c.23-.13.48-.23.78-.32.29-.08.58-.13.85-.13.45,0,.82.11,1.11.33.29.22.43.54.43.95v2.25l.29.09c.09.03.16.06.2.1.04.03.06.08.06.14,0,.07-.04.11-.11.11h-1.2v-.5h-.03c-.15.18-.34.33-.57.44-.23.11-.49.16-.77.16-.35,0-.65-.1-.9-.29h0ZM359.85,79.38c.17-.09.31-.2.42-.35.1-.15.16-.3.16-.47v-.59l-.93.14c-.29.05-.52.13-.68.25-.16.12-.24.29-.24.5s.07.36.2.47c.14.11.31.17.53.17.19,0,.37-.04.54-.13h0Z"/><path class="n" d="M362.65,78.96c0,.32.11.58.32.76h0c.21.18.48.27.8.27.3,0,.56-.07.8-.22.09-.05.17-.11.21-.17s.07-.12.07-.17c0-.06-.02-.11-.06-.15-.04-.04-.09-.06-.14-.06-.05,0-.11.03-.19.1-.08.07-.17.12-.25.15-.08.03-.18.05-.28.05-.16,0-.29-.04-.38-.13-.09-.09-.14-.21-.14-.38v-2.49h0l.99-.12c.14-.02.24-.05.3-.09.06-.04.09-.09.09-.16,0-.04-.01-.06-.03-.08-.02-.02-.05-.03-.08-.03h-1.27v-.86h-.63l-.13.86h-.38c-.11,0-.2.02-.26.08-.06.05-.09.12-.09.2,0,.06.01.11.05.14.03.04.07.06.12.06h.56v2.45Z"/><path class="n" d="M365.39,79.71c0-.08.03-.15.1-.19.06-.04.15-.06.26-.06h.21v-2.99h-.4c-.1,0-.16-.06-.16-.18,0-.09.03-.16.09-.2.06-.04.15-.06.26-.06h.98v3.44l.37.1c.09.03.15.06.19.09.04.03.06.08.06.14,0,.07-.04.11-.11.11h-1.68s-.09-.02-.11-.05h0s-.04-.08-.04-.14Z"/><path class="n" d="M365.94,75.27c-.1-.1-.15-.22-.15-.37s.05-.28.15-.37c.1-.09.23-.14.38-.14s.27.05.38.14c.1.09.15.21.15.37s-.05.28-.15.37c-.1.1-.23.14-.38.14s-.28-.05-.38-.14Z"/><path class="l" d="M368.03,79.06c.17.31.4.54.69.7.3.16.64.24,1.02.24s.73-.08,1.02-.24c.3-.16.53-.39.69-.7.17-.31.25-.67.25-1.1s-.08-.79-.25-1.1c-.17-.3-.39-.53-.69-.69-.3-.16-.64-.24-1.02-.24s-.73.08-1.02.24c-.3.16-.53.39-.69.69-.16.3-.25.67-.25,1.1s.08.8.25,1.1ZM370.92,77.97c0,.5-.1.88-.31,1.15h0c-.21.27-.5.41-.87.41s-.67-.14-.88-.41c-.21-.27-.31-.66-.31-1.15s.1-.88.31-1.15c.21-.27.5-.4.88-.4s.66.14.87.4c.21.27.31.65.31,1.15Z"/><path class="n" d="M372.29,79.71c0-.08.03-.15.09-.19.06-.04.15-.06.26-.06h.21v-2.99h-.4c-.1,0-.16-.06-.16-.18,0-.09.03-.16.1-.2.06-.04.15-.06.26-.06h.93v.53h.03c.46-.41.93-.61,1.42-.61.39,0,.71.11.97.33.26.22.38.52.38.89v2.3l.37.1c.09.03.15.06.19.09.04.03.06.08.06.14,0,.07-.04.11-.11.11h-1.68s-.09-.02-.11-.05c-.03-.03-.04-.08-.04-.14,0-.08.03-.15.09-.19.06-.04.15-.06.26-.06h.21v-2.23c0-.24-.07-.43-.21-.57-.14-.14-.35-.21-.61-.21-.2,0-.41.05-.61.16-.2.11-.39.25-.56.43v2.43l.37.1c.09.02.15.05.19.09.04.04.06.08.06.14,0,.07-.03.11-.11.11h-1.68s-.09-.02-.11-.05h0s-.04-.08-.04-.14Z"/><path class="v" d="M227.13,143.68c.68.25,1.36.46,2.06.65,3.11.85,6.32,1.31,9.55,1.42-.01.04-.01.08,0,.12.38.9.87,1.76,1.41,2.57.96,1.44,2.13,2.73,3.47,3.83,1.26,1.04,2.66,1.88,4.15,2.53.1.07.19.14.29.21.06.04.11-.04.06-.08.06-.02.11-.11.08-.17-.4-.86-.85-1.7-1.35-2.5-.9-1.42-1.98-2.73-3.21-3.87-1.1-1.02-2.34-1.95-3.7-2.61,2.25.01,4.5-.13,6.72-.45,1.24-.18,2.46-.4,3.68-.68-.08.82-.14,1.64-.18,2.46-.06,1.51-.01,3.04.34,4.52.32,1.34.88,2.62,1.76,3.7.08.1.25.05.27-.06.23-.81.36-1.64.42-2.47.11-1.48-.04-2.97-.42-4.4-.19-.72-.44-1.42-.76-2.09-.13-.27-.26-.56-.42-.82.78.71,1.58,1.4,2.39,2.07,1.87,1.56,3.81,3.05,5.8,4.45,2,1.4,4.05,2.72,6.15,3.96.13.08.27-.06.21-.19-.59-1.25-1.34-2.41-2.2-3.49-1.6-1.97-3.59-3.58-5.78-4.86-2.18-1.27-4.54-2.24-6.97-2.93,1.65-.4,3.28-.9,4.88-1.47.28,0,.56,0,.85,0,.44,0,.88.03,1.31.06.42.03.84.07,1.26.12h0c.06.17.13.32.21.48.62,1.24,1.61,2.29,2.79,3.02.59.36,1.21.65,1.88.84.34.1.68.17,1.04.22.37.05.76.05,1.1-.1.32-.13.59-.41.66-.76.06-.33-.04-.67-.23-.94-.23-.32-.54-.54-.86-.76-.34-.23-.69-.44-1.05-.63-1.42-.76-2.97-1.22-4.55-1.49-.81-.13-1.62-.22-2.44-.25-.47-.02-.95-.03-1.43-.03,1.9-.72,3.76-1.57,5.54-2.53.11-.01.21-.1.29-.14.27-.16.57-.29.86-.41.14-.06.28-.11.42-.16.02.01.05.01.08,0,.16-.07.3-.15.46-.23h.21c1.11.03,2.22.12,3.33.27.66.09,1.31.19,1.97.33,0,.02-.01.04-.02.06-.04.29-.09.58-.15.87-.37,2.05-.91,4.37.13,6.32.47.87,1.24,1.6,2.2,1.88.88.25,1.84.06,2.58-.46.77-.52,1.31-1.31,1.51-2.21.21-.95.08-1.96-.32-2.85-.9-2.02-2.99-3.18-5.03-3.73-1.14-.31-2.33-.49-3.51-.61-.8-.08-1.6-.13-2.39-.14,2.21-1.15,4.44-2.29,6.81-3.08-.03.04-.04.08-.02.13.11.3.24.61.38.9,1.14,2.35,3.03,4.34,5.33,5.57.61.33,1.27.61,1.96.71.63.1,1.26.01,1.84-.24,1.09-.47,1.91-1.49,2.2-2.63.28-1.1.13-2.31-.39-3.31-.26-.5-.62-.95-1.05-1.31-.52-.44-1.16-.73-1.82-.92-1.36-.39-2.84-.35-4.23-.2-1.38.15-2.73.47-4.04.9-1.39.45-2.74,1.02-4.05,1.67-.67.32-1.34.66-1.99,1.02-.48.25-.96.51-1.43.78h-.06c3.11-1.93,5.96-4.26,8.47-6.91.27-.18.52-.38.78-.58.08-.06.15-.11.23-.16.35-.13.7-.25,1.06-.37.64-.2,1.3-.35,1.95-.47.3-.05.6-.09.9-.13,0,.06.04.11.09.13,1.57.66,3.19,1.23,4.84,1.69.35.1.69.2,1.04.28.24.06.53.08.75-.05.23-.15.29-.42.2-.67-.11-.29-.35-.51-.58-.71-1.03-.84-2.49-.99-3.77-1.05-1.27-.06-2.54.04-3.79.28-.62.12-1.24.29-1.84.49-.06.02-.13.04-.19.06.01-.01.03-.02.04-.04.64-.45,1.29-.88,1.96-1.29,1.69-1.04,3.45-1.96,5.28-2.73,0,.06.06.1.12.06.06-.05.12-.1.18-.15.16.09.36.13.54.18.21.06.42.11.64.16.44.09.9.15,1.36.19,1.59.12,3.21-.13,4.7-.7.75-.29,1.47-.66,2.12-1.11.33-.23.76-.49.92-.88.13-.32-.02-.81-.42-.82-.08,0-.11.07-.11.13h-.01c-.1,0-.2.01-.29.02-.69.06-1.37.18-2.05.3-.69.13-1.38.27-2.07.44-1.36.33-2.69.73-4,1.21-.23.08-.47.18-.7.27.3-.31.57-.64.83-.96.11-.13.21-.28.32-.41.09,0,.17-.1.13-.18.32-.43.61-.88.88-1.34.35-.59.66-1.21.91-1.83.23-.59.41-1.24.39-1.88-.02-.54-.21-1.2-.75-1.45-.54-.25-1.11.08-1.52.42-.95.78-1.55,2.02-1.52,3.26.02,1.09.5,2.15,1.29,2.89-.17.23-.35.45-.53.67-.3.35-.61.68-.93,1.02-.06.03-.13.05-.18.08-.04,0-.06.01-.08.04-.07,0-.13.01-.2.02-.06.01-.08.06-.08.1-.71.3-1.41.61-2.1.95-1.25.61-2.46,1.3-3.64,2.05-.59.37-1.17.77-1.74,1.18-.11.08-.22.16-.32.24,1-1.14,1.95-2.35,2.82-3.6.99-1.42,1.88-2.89,2.7-4.41.03.01.06.01.09-.01.35-.53.63-1.1.95-1.65.32-.55.66-1.09,1-1.62,1.22-1.88,2.58-3.68,4.02-5.39h0s0,0,.01,0c.41-.06.8-.16,1.19-.31,1.36-.52,2.49-1.6,3.07-2.93.04-.08-.04-.16-.12-.16-.97-.06-1.81.5-2.48,1.14-.33.32-.63.66-.93,1-.38.43-.75.87-1.11,1.31-.37.44-.73.9-1.09,1.35.02-.5.05-1.01.12-1.5.08-.56.2-1.11.36-1.66.04.04.11.06.16,0,1.12-1.11,1.83-2.56,2.04-4.11.01-.08-.12-.15-.18-.08-.41.45-.76.94-1.07,1.46-.56.92-.99,1.93-1.26,2.99-.27,1-.42,2.07-.33,3.11-.3.38-.59.76-.87,1.15-.68.93-1.33,1.88-1.94,2.86-.18.29-.35.58-.52.88,1.55-3.3,2.7-6.79,3.41-10.36.02-.11.04-.21.06-.32.21-.54.46-1.07.74-1.58.09-.17.19-.34.29-.5.22-.13.4-.3.59-.47.49-.26.97-.55,1.45-.85,1.71-1.12,3.25-2.52,4.53-4.11.06-.08-.04-.23-.13-.19-.83.3-1.63.69-2.38,1.16-1.32.83-2.48,1.89-3.42,3.13-.3.4-.57.8-.83,1.23,0,0,0,0-.01.01,0,0-.01.02-.01.03-.13.23-.27.47-.39.71-.08.16-.15.32-.23.49.53-3.11.73-6.27.58-9.42.05,0,.11-.03.09-.09-.01-.06-.03-.13-.04-.19.38-.49.72-1,1.03-1.54,1.15-1.98,1.83-4.21,2-6.49,0-.12-.15-.15-.21-.06-.41.53-.78,1.09-1.11,1.67-.57,1.01-1.03,2.08-1.36,3.2-.17.56-.3,1.14-.4,1.73-.03.18-.06.36-.08.54-.06-.83-.15-1.64-.26-2.46.01-.03.02-.06,0-.09-.01-.05-.03-.1-.04-.15-.18-1.28-.42-2.55-.73-3.81-.02-.08-.14-.05-.13.03.17.74.32,1.5.45,2.24.04.23.07.47.11.69-.1-.23-.2-.47-.32-.69-.97-1.91-2.62-3.44-4.6-4.28-.11-.05-.2.09-.16.18.24.52.55.99.9,1.43,1.24,1.56,2.9,2.7,4.18,4.22.02.06.04.12.06.18.01.05.04.08.08.09.11.89.2,1.79.25,2.68-.35-.52-.89-.95-1.37-1.33-.44-.35-.88-.67-1.33-.99-.3-.71-.66-1.38-1.1-2-.77-1.09-1.75-2.05-2.87-2.79-1.12-.74-2.38-1.28-3.7-1.53-.12-.02-.2.1-.13.2.64.86,1.37,1.64,2.17,2.34,1.43,1.26,3.04,2.29,4.61,3.36.26.18.51.35.78.54.02.06.06.07.11.07.49.35.98.7,1.45,1.07.53.41,1.09.87,1.4,1.47,0,.06,0,.13,0,.19-.05.06-.03.12.01.16.13,2.94-.04,5.88-.49,8.78-.06-1-.25-1.99-.52-2.95-.6-2.12-1.67-4.09-3.11-5.74-1.55-1.79-3.52-3.19-5.7-4.11-.11-.05-.2.09-.15.19.36.68.78,1.33,1.24,1.95,1.62,2.19,3.84,3.97,6.35,5.05.02,0,.04.01.06.01.02.04.05.08.07.13.48.94.87,1.93,1.14,2.96.28,1,.44,2.03.54,3.06-.21,1.25-.47,2.48-.78,3.71-.8,3.11-1.92,6.13-3.35,9,.04-.45.01-.91-.03-1.33-.11-1.03-.4-2.03-.64-3.03-.05-.2-.1-.39-.15-.59.03-.01.05-.04.06-.08.19-.71.3-1.45.32-2.19.04-1.32-.19-2.64-.66-3.87-.47-1.23-1.17-2.36-2.08-3.3-.09-.09-.25-.01-.23.12.31,1.22.62,2.44.92,3.67.37,1.5.76,3.01,1.13,4.51-.33-.67-.68-1.33-1.07-1.96-.42-.68-.89-1.35-1.38-1.98,0-.05-.04-.1-.09-.12-.68-.89-1.43-1.74-2.23-2.52-1.42-1.4-2.99-2.62-4.7-3.65-.11-.07-.27.06-.2.18.34.61.73,1.2,1.16,1.76,1.52,1.98,3.57,3.54,5.87,4.5,1.09,1.4,2.03,2.91,2.83,4.49.11.44.22.88.33,1.32.25.98.53,1.96.63,2.97.05.47.06.95-.01,1.41-.01.08-.04.18-.05.26-1.25,2.43-2.73,4.73-4.41,6.89-3.08,3.94-6.87,7.27-11.14,9.86.4-.57.75-1.18,1.05-1.81.01-.03.02-.06.04-.09.36-.68.67-1.4.94-2.12.45-.42.89-.87,1.29-1.34,1.64-1.92,2.84-4.23,3.43-6.68.03-.12-.13-.25-.22-.14-.46.52-.9,1.07-1.31,1.62-1,1.36-1.86,2.83-2.54,4.38.28-1.14.47-2.31.6-3.48.08-.8.13-1.6.16-2.41.01-.01.02-.03.03-.05,0-.01,0-.02.01-.03.04.04.09.06.15.02.49-.3.96-.64,1.39-1.02,1.55-1.35,2.7-3.14,3.26-5.12.03-.1-.08-.21-.18-.15-.49.29-.95.62-1.38.98-.76.64-1.43,1.38-1.98,2.19-.28.42-.54.85-.76,1.31-.15.31-.3.63-.41.97-.04.05-.08.1-.12.15,0-.73,0-1.47-.03-2.2,0-.22-.02-.44-.03-.65.59-.65,1.05-1.4,1.37-2.21.57-1.43.66-3.02.25-4.5-.37-1.38-1.17-2.64-2.24-3.57-.08-.07-.25-.04-.25.09,0,.23,0,.45.01.68.05,1.79.19,3.59.32,5.37.11,1.34.21,2.68.28,4.03,0,.03,0,.06,0,.08.02.42.04.83.05,1.26.01.44.02.88.02,1.31-.32-.47-.69-.91-1.07-1.33v-.06c-.14-.59-.32-1.17-.56-1.72-.83-1.95-2.28-3.63-4.1-4.73-.06-.04-.14-.02-.18.03-.06.01-.11.08-.07.15.02.04.05.07.07.11.13.66.38,1.31.71,1.89.66,1.17,1.57,2.14,2.52,3.08.51.51,1.04,1.01,1.54,1.54.4.43.78.89,1.14,1.36v.34s0,0,0,.01c-.04.05-.02.1,0,.13-.02,1.07-.08,2.13-.21,3.19-.13,1.12-.34,2.23-.62,3.32,0-.15-.02-.29-.04-.44-.11-.68-.39-1.33-.68-1.96-.3-.64-.64-1.27-1.01-1.88-.74-1.21-1.61-2.34-2.59-3.37-.11-.11-.25,0-.24.13.09.74.22,1.47.4,2.2.32,1.27.78,2.51,1.38,3.67.3.59.64,1.16,1.01,1.71.35.51.71,1.01,1.15,1.45-.05.09-.09.18-.12.29h0s-.06.11-.04.15c-.01.05-.03.1-.05.15-.06.2-.13.4-.2.61-.15.41-.33.82-.51,1.21-.38.79-.84,1.54-1.37,2.23,0,0,0,.01-.02.03-.63.37-1.26.72-1.91,1.06-1.31.68-2.65,1.29-4.03,1.84.01-.01.03-.02.04-.04,1.24-1.2,2.2-2.68,2.82-4.29.2,0,.4-.06.59-.11.2-.06.39-.11.58-.18.39-.14.77-.32,1.12-.54.3-.18.59-.4.86-.64.27-.25.55-.56.73-.89.16-.31.22-.7,0-1-.21-.3-.63-.36-.96-.25-.37.12-.69.39-.99.63-.32.26-.61.55-.89.86-.23.26-.44.54-.63.82.11-.42.2-.84.26-1.26.12-.82.18-1.66.08-2.48-.08-.76-.3-1.52-.76-2.14-.42-.57-1.2-1.15-1.89-.66-.59.42-.74,1.26-.82,1.92-.09.73-.04,1.48.12,2.19.32,1.43,1.12,2.81,2.31,3.71.02,0,.03.01.04.02-.08.21-.17.42-.26.62-.66,1.46-1.62,2.75-2.77,3.87-1.8.7-3.65,1.28-5.53,1.74.81-.59,1.53-1.31,2.15-2.1.1.08.27-.02.22-.15.04,0,.06-.04.06-.08,0-.01,0-.03,0-.04,0-.03.01-.06.01-.1.09-.13.19-.26.27-.39.4-.59.73-1.22,1-1.88.25-.59.45-1.2.53-1.84.08-.59.03-1.21-.23-1.76-.25-.53-.8-1.05-1.42-.78-.52.23-.77.87-.94,1.37-.21.61-.33,1.25-.37,1.89-.07,1.23.18,2.46.74,3.56-.72.94-1.57,1.74-2.53,2.43-.15.04-.29.07-.44.1-.03,0-.06-.01-.09-.02-.06-.01-.09.02-.11.06-1.82.4-3.66.68-5.51.85-1.43.13-2.87.2-4.31.19.97-.52,1.9-1.11,2.77-1.78,1.81-1.38,3.42-3.03,4.77-4.86,1.33-1.84,2.4-3.87,3.13-6.01.04-.11-.1-.24-.21-.17-1.05.7-2.05,1.49-2.99,2.34-1.66,1.51-3.13,3.23-4.44,5.04-.67.92-1.3,1.87-1.9,2.84-.43.7-.86,1.4-1.26,2.12-.02.01-.04.04-.06.05-.04.04-.05.09-.04.12,0,.01-.01.03-.02.04-.13.07-.27.15-.4.21-.03.01-.04.03-.06.05-.25,0-.49-.01-.73-.02-.05-.03-.1-.03-.14,0-.93-.04-1.86-.1-2.79-.2-.43-.04-.86-.1-1.29-.16.08-.06.15-.13.23-.19,1.1-.97,2.14-2.05,3.03-3.22.01-.01.03-.03.04-.05.01-.02.04-.05.05-.07.03.01.07,0,.07-.04v-.06c.1-.13.2-.27.29-.4.91-1.33,1.6-2.82,1.9-4.41.14-.78.2-1.57.12-2.35-.06-.61-.2-1.54-.95-1.67-.34-.06-.67.12-.88.37-.28.32-.38.75-.47,1.16-.19.81-.34,1.63-.43,2.46-.1.83-.14,1.67-.13,2.51,0,.42.02.85.06,1.27.03.39.06.79.13,1.18,0,.01-.02.03-.03.04-.5.66-1.05,1.28-1.63,1.87-.52.54-1.08,1.05-1.62,1.58-2.38-.35-4.72-.9-7.03-1.57-.2-.06-.28.23-.09.3h.02ZM238.57,133.13c-.02.16-.05.32-.07.49-.05.31-.09.62-.14.93-.3,2.08-.48,4.18-.55,6.28-.03.06-.05.11-.08.17,0-.04,0-.08,0-.11-.17-1.57-.15-3.16.05-4.73.1-.79.23-1.58.44-2.36.08-.29.18-.59.38-.81,0,.05-.01.09-.01.14h0ZM239.2,132.74c.03.6.07,1.2.06,1.8-.01,1.14-.15,2.29-.42,3.4-.13.54-.3,1.08-.49,1.6-.12.34-.27.66-.41.99.02-.35.04-.71.06-1.07.08-1.14.18-2.27.32-3.4.07-.57.14-1.13.23-1.69.04-.29.09-.57.13-.86.04-.23.11-.46.13-.71.13-.07.26-.09.39-.08h0ZM238.66,139.43c.37-1.09.61-2.22.73-3.37.11-1.08.13-2.21-.06-3.29.13.05.24.13.33.26.2.29.26.65.3.99.04.38.06.76.04,1.14-.02.75-.15,1.5-.36,2.22-.29,1-.73,1.94-1.27,2.82.11-.26.2-.53.29-.79h0ZM254.69,135.45s-.07.02-.08.06c-.31,1.02-.57,2.04-.78,3.08-.11.51-.21,1.02-.29,1.54-.05.3-.1.61-.13.91-.04-.27-.07-.53-.09-.8-.06-.88,0-1.76.16-2.63.09-.42.19-.85.32-1.26.06-.2.14-.4.22-.6.04-.1.09-.22.13-.32.04-.09.09-.18.11-.29h0c.17.05.31.17.43.32h0ZM253.59,141.07c.04-.3.08-.59.13-.89.08-.52.18-1.04.28-1.56.21-1.02.47-2.03.78-3.03.16.26.26.59.3.84.1.57.01,1.16-.13,1.72-.28,1.03-.77,2.02-1.36,2.91ZM253.3,141.5c-.53-1.12-.76-2.39-.63-3.62.06-.6.19-1.19.4-1.75.16-.43.47-1.09,1.02-1.03-.07.09-.11.21-.15.32-.05.11-.09.23-.14.35-.09.24-.17.49-.25.73-.47,1.61-.58,3.35-.23,4.99,0,0-.01.01-.02.03h0ZM258.43,130.78c-.05.28-.09.57-.12.85-.18,1.99.25,4.09,1.35,5.77v.05c-.09-.08-.17-.15-.25-.23-.99-.97-1.65-2.25-1.88-3.61-.11-.68-.13-1.38-.01-2.05.09-.57.32-1.52,1.05-1.51h.02c-.09.23-.13.49-.17.73h.01ZM259.33,130.39c-.03.23,0,.46,0,.68v.81c.01.94.04,1.88.1,2.82.05.83.09,1.66.22,2.48-.2-.38-.38-.78-.54-1.17-.37-.96-.59-1.98-.64-3.01-.02-.5,0-1.01.05-1.51.03-.26.07-.52.13-.78.04-.21.11-.41.15-.62.21.05.39.17.54.31h0ZM259.78,137.45s0,0,0-.01c-.03-.52-.09-1.04-.13-1.57-.08-.94-.13-1.87-.15-2.81-.01-.47-.02-.93-.02-1.4v-.68c0-.14.02-.29.02-.43.01.02.04.04.05.06.24.27.42.59.57.92.28.68.36,1.43.36,2.16,0,1.28-.25,2.56-.68,3.78h0ZM263.22,134.4c-.34.13-.66.35-.95.55-.32.23-.63.47-.92.73-.24.21-.46.44-.68.68.15-.2.32-.41.5-.6.25-.27.52-.51.81-.75.28-.23.6-.5.95-.59.09-.02.19-.03.28-.02h0ZM263.59,134.61c-.56.54-1.12,1.07-1.74,1.54-.33.25-.66.48-1.01.69-.17.11-.34.21-.51.3-.03.01-.06.03-.08.04.02-.03.04-.06.06-.08.11-.15.23-.3.35-.45.25-.3.52-.58.81-.85.28-.26.58-.5.9-.72.17-.12.34-.23.52-.35.15-.1.32-.18.47-.3.1.04.18.09.24.18h0ZM260,137.53s.03-.03.04-.05c.04-.02.08-.04.12-.06.09-.05.18-.11.28-.15.17-.1.34-.2.5-.3.33-.21.65-.43.97-.67.62-.47,1.21-.99,1.73-1.58.02.04.03.09.04.14.04.36-.21.69-.43.95-.43.51-.97.9-1.56,1.21-.3.15-.6.28-.91.38-.17.06-.34.1-.51.15-.1.03-.2.04-.29.07,0-.03.01-.05.03-.08ZM265.17,123.61c-.23-.31-.46-.62-.69-.93-.59-.78-1.17-1.55-1.76-2.32-.3-.39-.59-.78-.89-1.17-.15-.2-.3-.4-.45-.6-.03-.03-.06-.08-.08-.11.35.23.68.48.99.76,1.33,1.17,2.33,2.7,2.88,4.38h0ZM265.31,124.07c-1.52-1.59-3.34-3.13-4.03-5.26.16.21.32.42.49.63.59.77,1.19,1.54,1.78,2.31.57.74,1.13,1.5,1.73,2.22,0,.04.02.07.03.1h0ZM266.37,113.81s.02.05.03.07c.07.18.13.35.19.53.11.33.21.66.3,1,.32,1.22.48,2.48.48,3.75,0,.63-.04,1.26-.13,1.88-.05.37-.11.73-.19,1.09-.05.12-.11.24-.17.36-.07-1.33-.17-2.66-.27-4-.11-1.56-.21-3.12-.25-4.68h.01ZM266.7,113.76c.25.47.46.95.63,1.45.65,1.94.67,4.09.06,6.04.02-.14.04-.28.06-.42.15-1.27.14-2.56-.04-3.82-.09-.64-.23-1.28-.4-1.91-.08-.31-.18-.61-.29-.92-.06-.15-.11-.3-.17-.46-.03-.08-.06-.15-.08-.23.08.08.16.17.24.25ZM267.11,122.58c.04-.12.06-.24.09-.36.22-.49.39-1,.52-1.52.31-1.27.35-2.6.15-3.88-.15-.94-.44-1.85-.86-2.7.21.26.4.53.57.82.71,1.22,1.05,2.63.93,4.04-.11,1.3-.61,2.56-1.39,3.61ZM270.99,122.17c-.2.26-.4.52-.61.78-.57.69-1.19,1.35-1.88,1.94-.21.18-.45.36-.67.54.04-.04.07-.08.11-.13,1.14-1.34,2.3-2.65,3.41-4.01-.11.3-.23.59-.37.88h0ZM267.16,126.49c.19-.32.47-.58.75-.82,1.01-.89,1.96-1.86,2.78-2.92-.84,1.52-2.06,2.82-3.53,3.75h0ZM267.61,125.39s-.03.04-.05.05c.08-.18.16-.35.25-.52.86-1.62,2.12-3.01,3.66-4,0,.04-.02.06-.04.1-.32.35-.64.71-.95,1.07-.64.73-1.27,1.47-1.91,2.2-.33.37-.64.74-.98,1.1h0ZM265.48,134.28c-.25-.58-.56-1.16-.83-1.74-.51-1.1-1.02-2.19-1.52-3.29-.25-.55-.5-1.1-.74-1.65-.12-.28-.25-.55-.37-.83-.11-.26-.21-.53-.35-.78h0c.42.45.83.93,1.2,1.43.82,1.09,1.52,2.27,2.1,3.51.47,1.02.92,2.27.5,3.36ZM265.39,134.48c-.39-.55-.79-1.09-1.16-1.66-1.19-1.84-2.01-3.91-2.42-6.06.03.06.06.11.08.17.13.3.28.61.41.92.5,1.11,1.01,2.22,1.53,3.32.26.54.52,1.09.79,1.63.26.53.51,1.08.8,1.59-.02.03-.02.05-.04.08h0ZM265.93,133.98c.3-.4.58-.83.85-1.24,1.12-1.67,2.17-3.41,3.06-5.23-.13.44-.28.88-.45,1.31-.8,2.05-2.03,3.94-3.61,5.48.04-.11.09-.22.13-.32h0ZM266.31,133.11c.88-1.96,2.01-3.79,3.36-5.45-.21.39-.42.79-.64,1.18-.51.91-1.04,1.81-1.61,2.68-.28.44-.58.87-.88,1.3-.08.12-.18.25-.26.37,0-.02.02-.04.03-.07h0ZM274.73,110.92c-.35-.27-.71-.52-1.05-.79-.85-.66-1.68-1.34-2.49-2.05-.73-.64-1.42-1.31-2.12-1.98-.06-.1-.13-.19-.18-.29.78.49,1.53,1.02,2.26,1.6,1.31,1.04,2.51,2.23,3.59,3.51h-.01ZM274.73,111.1c-.37-.18-.73-.37-1.08-.58-1.61-.97-3.02-2.26-4.13-3.78.18.18.36.35.54.52.78.73,1.59,1.44,2.42,2.12.42.35.84.68,1.27,1.01.32.25.64.49.98.72h0ZM276.49,107.95c.17.56.34,1.12.49,1.68.3,1.09.57,2.19.8,3.29.12.55.23,1.11.32,1.66.05.27.1.54.14.81,0,.05.01.11.03.16l-.4-1.62c-.51-2.05-1.01-4.09-1.52-6.15.05.06.09.11.13.16h0ZM278.49,115.91c-.02-.2-.06-.4-.09-.61-.05-.32-.11-.64-.16-.95-.37-2.02-.86-4.02-1.43-5.99.18.25.35.51.51.77.65,1.1,1.07,2.32,1.26,3.58.15,1.06.13,2.15-.08,3.2ZM274.63,96.08c.24.25.51.49.77.73.26.23.5.47.76.71,1.65,1.55,3.28,3.11,4.94,4.65-.45-.22-.89-.46-1.31-.73-2.16-1.35-3.97-3.25-5.24-5.45.02,0,.05.02.07.04,0,.03,0,.05.02.07h0ZM281.54,102.37s-.05-.02-.08-.04c-.45-.44-.9-.87-1.35-1.31-.9-.85-1.79-1.7-2.69-2.55-.45-.42-.9-.85-1.34-1.28-.33-.32-.66-.66-1-.97.88.44,1.71.96,2.49,1.55,1.62,1.24,2.97,2.82,3.98,4.59ZM280.78,95.89c-.37-.44-.75-.87-1.15-1.28-.77-.78-1.59-1.52-2.46-2.19-.44-.34-.88-.67-1.34-.98-.33-.23-.66-.45-1-.66.3.1.59.21.88.33,2.14.95,4.02,2.67,5.07,4.78ZM275.89,91.7c1.7,1.14,3.25,2.51,4.61,4.03-.33-.28-.66-.55-.99-.83-.9-.73-1.81-1.47-2.71-2.19l-1.37-1.1c-.23-.18-.46-.37-.68-.55-.09-.07-.18-.15-.26-.22.47.29.95.56,1.4.87h.02ZM280.96,96.25c-1-.7-2.03-1.36-3.03-2.07-1.36-.97-2.66-2.04-3.72-3.33.17.14.35.27.52.4.25.2.51.41.76.61,1.77,1.42,3.54,2.84,5.33,4.23h0s0,0,0,0c.03.02.06.04.08.06.01.03.03.06.04.08h0ZM283.35,95c-.22-.28-.45-.56-.68-.83-.59-.7-1.21-1.38-1.84-2.05-.32-.33-.64-.66-.97-.99-.17-.16-.34-.32-.51-.49-.01-.01-.03-.03-.05-.05.31.16.61.35.9.54,1.38.96,2.49,2.31,3.15,3.85h0ZM283.54,95.46c-.23-.28-.48-.56-.73-.82-1.22-1.26-2.68-2.36-3.61-3.85.04.04.08.06.11.1.19.18.38.35.57.54.66.63,1.29,1.28,1.91,1.95.6.66,1.15,1.37,1.74,2.03,0,.02.01.04.02.06h0ZM286.55,93.59c-.32.99-.68,1.96-1.09,2.91-.2.48-.43.96-.66,1.43-.11.21-.21.42-.32.63.04-.25.07-.5.12-.75.39-2.05,1.22-4,2.41-5.72-.15.49-.3,1-.45,1.5h0ZM284.61,98.73s.05-.1.08-.16c.13-.25.25-.52.37-.78.44-.94.83-1.9,1.18-2.87.35-.95.68-1.92.89-2.91-.05.46-.11.91-.21,1.36-.4,1.92-1.2,3.74-2.32,5.35h0ZM286.15,106.76c.68-.6,1.36-1.21,2.05-1.79.79-.67,1.59-1.34,2.37-2.03.01-.01.01-.04,0-.04.03-.01.06-.03.09-.04-.27.32-.54.64-.83.94-1.09,1.14-2.33,2.13-3.67,2.96h0ZM285.06,107.36c.6-.86,1.31-1.65,2.1-2.34.99-.86,2.1-1.57,3.3-2.08-.43.35-.86.71-1.29,1.07-.8.67-1.6,1.33-2.4,1.99-.41.33-.81.66-1.23.99-.16.13-.32.25-.48.39h0ZM284.17,112.32c.13-.39.27-.76.43-1.14.37-.84.86-1.62,1.42-2.34-.25,1.31-.9,2.53-1.85,3.48ZM285.32,114.04c.27-.33.56-.66.84-.98.28-.32.57-.64.89-.92.55-.5,1.21-.92,1.97-.94-.14.3-.32.58-.52.85-.77,1.02-1.92,1.75-3.18,2h0ZM284.38,118.31c-.12.12-.23.26-.33.39-.17.22-.32.44-.46.68-.47.83-.74,1.76-.75,2.72,0,.44.05.88.15,1.31.06.27.14.53.24.78-.64-.75-1-1.74-.95-2.74.06-1.15.68-2.34,1.68-2.96.13-.08.27-.15.41-.19h0ZM285.13,118.43c-.06.04-.1.11-.15.16-.08.09-.16.19-.23.28-.15.2-.29.4-.42.62-.45.76-.76,1.6-.9,2.46-.08.44-.11.88-.11,1.32,0,.32.02.66.09.97v.06c-.15-.35-.27-.7-.35-1.07-.17-.88-.13-1.79.14-2.64.14-.45.34-.89.6-1.29.13-.2.28-.4.44-.59.13-.15.29-.29.42-.44h.05c.16,0,.3.07.42.17h0ZM285.6,119.7h-.01c-.36.28-.66.64-.93,1-.26.36-.49.75-.67,1.17-.19.42-.33.87-.43,1.32-.02.11-.04.23-.06.34,0-.14,0-.28,0-.42.01-.86.18-1.71.49-2.51.16-.4.35-.78.58-1.14.11-.18.23-.36.37-.53.07-.09.14-.18.22-.27.04-.04.07-.08.1-.12.04.05.08.11.12.16.18.3.23.65.23,1h0ZM283.58,124.33c.01-.39.04-.77.13-1.15.09-.42.23-.84.4-1.24.18-.4.4-.79.66-1.16.25-.35.54-.66.83-.97,0,.2-.04.4-.08.59-.12.59-.36,1.16-.62,1.7-.28.59-.61,1.17-.96,1.71-.11.18-.23.35-.35.52h0ZM290.94,124.15c-.12.05-.23.1-.35.15-.35.14-.69.27-1.04.41-1.27.48-2.58.88-3.94,1.04-.54.06-1.09.09-1.65.15,1.19-.42,2.41-.77,3.64-1.07.68-.17,1.36-.32,2.04-.44.34-.06.68-.12,1.03-.18.09-.01.18-.03.27-.05ZM282.7,126.71h.08c.45-.02.88-.03,1.33-.05,1.46-.05,2.91-.11,4.31-.54.64-.2,1.25-.45,1.84-.76.53-.28,1.07-.6,1.52-1,0,.04,0,.09-.02.13-.08.23-.3.39-.49.53-.33.24-.68.46-1.03.66-1.29.72-2.73,1.16-4.19,1.28-.73.06-1.48.05-2.21-.04-.36-.04-.72-.11-1.08-.2-.02,0-.04-.01-.06-.01h0ZM282.42,126.47c.13-.05.26-.11.4-.16.41-.11.83-.18,1.25-.22.63-.07,1.26-.11,1.89-.21.66-.11,1.32-.26,1.96-.46.63-.19,1.25-.42,1.86-.66.31-.12.62-.25.93-.37.26-.11.54-.21.78-.35.02,0,.04,0,.06-.01.11.03.17.11.21.21-.59.39-1.16.78-1.8,1.09-1.26.61-2.61.9-3.98,1-.74.06-1.49.07-2.24.09-.39.01-.78.02-1.17.03h-.15ZM283.87,131.67c-.31-.16-.62-.32-.94-.45-1.26-.52-2.62-.82-3.98-.84.37,0,.73,0,1.1.01,1.21.06,2.61.2,3.57,1.03.08.06.17.15.25.24h0ZM284.05,132.14c-.41-.19-.83-.36-1.24-.52-.79-.3-1.6-.57-2.41-.82-.35-.11-.69-.2-1.04-.29,1.64.13,3.23.61,4.67,1.44,0,0,.01,0,.02,0,.01.04.02.08.02.13,0,.02,0,.04-.01.06ZM277.86,130.43c.11,0,.22-.01.33-.02.04,0,.07.01.1.02,0,.02.01.03.04.03h.12c.34.08.68.15,1.02.25.52.14,1.04.3,1.55.46,1,.32,1.98.7,2.97,1.07-.11.09-.3.08-.44.06-.32-.05-.64-.16-.95-.24-.35-.09-.68-.19-1.02-.3-1.26-.38-2.5-.83-3.72-1.34h0ZM282.62,137.86c-.26-.09-.54-.17-.8-.25-.31-.09-.62-.19-.93-.28-2.03-.63-4.02-1.37-5.97-2.2.42-.06.84-.11,1.26-.14,1.36-.1,2.82-.08,4.1.44,1.09.44,1.93,1.29,2.32,2.4,0,.01,0,.03.02.04h0ZM282.84,139.8c-.17-.04-.35-.07-.52-.11-.21-.05-.43-.11-.64-.18-.42-.14-.82-.31-1.21-.5-.71-.35-1.39-.75-2.08-1.12-.68-.37-1.36-.71-2.08-1-1.4-.56-2.87-.92-4.38-1.07.12-.04.23-.08.35-.11.74-.21,1.49-.39,2.25-.52.56.24,1.12.47,1.68.69,1.06.42,2.13.81,3.21,1.17.54.18,1.08.35,1.63.51.52.15,1.06.33,1.6.43.18.59.25,1.21.18,1.81h0ZM282.62,140.73h0c-.68.57-1.62.35-2.36.01-1.5-.68-2.87-1.67-4.24-2.58-.69-.46-1.39-.9-2.12-1.3-.53-.29-1.08-.56-1.65-.77.71.08,1.42.21,2.11.38.76.19,1.5.43,2.22.73.74.3,1.45.68,2.15,1.06.67.37,1.33.74,2.03,1.05.35.15.71.29,1.07.4.32.09.67.19,1.01.2-.04.27-.11.55-.2.82ZM281.3,142.46c-.64.04-1.28-.12-1.87-.38-.72-.31-1.4-.73-2.06-1.17-.69-.47-1.35-.98-1.99-1.52-1.17-1-2.25-2.11-3.32-3.22.75.33,1.5.67,2.2,1.09,1.47.86,2.84,1.88,4.3,2.77.36.22.73.44,1.1.63.36.19.73.38,1.13.5.56.17,1.19.18,1.7-.11-.27.56-.68,1.05-1.19,1.41h0ZM271.72,136.15c.65.66,1.31,1.31,1.98,1.94,1.23,1.17,2.53,2.28,3.97,3.18.65.41,1.33.8,2.06,1.07.44.16.9.26,1.37.24-.35.21-.73.35-1.13.42-1.29.2-2.57-.52-3.61-1.21-1.05-.69-1.98-1.55-2.78-2.52-.78-.95-1.38-2-1.86-3.13h0ZM275.45,144.59c-.09-.09-.18-.18-.27-.28-.18-.19-.35-.37-.53-.56-.35-.37-.71-.76-1.07-1.13-.36-.37-.71-.75-1.07-1.12-.18-.18-.36-.37-.54-.56-.11-.12-.23-.26-.35-.37,1.62.67,3.14,1.83,3.7,3.54.05.15.09.32.13.48h0ZM275.36,146.65c-.46-.32-.87-.7-1.24-1.12-1.5-1.74-2.29-4.02-4.12-5.48.31.08.61.16.92.26.13.04.25.08.38.13v.04c.11.23.34.42.52.6.18.18.36.37.54.56.37.38.73.75,1.1,1.14.37.38.73.75,1.1,1.13.18.18.36.37.54.56.13.14.25.28.39.4.09.6.05,1.21-.13,1.79h0ZM274.17,148.26c-.21-.28-.45-.53-.64-.82-.2-.29-.37-.59-.53-.9-.58-1.11-.97-2.3-1.42-3.46-.23-.58-.47-1.15-.76-1.69-.13-.26-.28-.51-.45-.77.3.28.57.59.82.91,1.36,1.74,2.25,3.97,4.13,5.22,0,.01,0,.03-.01.04-.23.59-.63,1.1-1.14,1.46h0ZM272.64,148.81c-.1-.1-.2-.19-.31-.29-.15-.15-.29-.3-.42-.47-.25-.32-.47-.66-.64-1.04-.91-1.98-.57-4.27-1.16-6.33.05.06.09.13.14.2.19.28.37.58.53.88.59,1.12.97,2.31,1.45,3.48.23.57.49,1.14.8,1.68.15.26.32.51.49.76.16.22.34.45.54.64-.15.1-.3.18-.46.26-.32.14-.65.22-.98.23h0ZM269.81,140.47c.18.47.3.97.38,1.47.2,1.24.21,2.5.48,3.73.13.6.33,1.19.62,1.73.18.32.39.62.63.89.16.18.34.37.54.52-.45,0-.9-.13-1.3-.37-.82-.48-1.38-1.3-1.65-2.2-.57-1.9-.01-3.87.31-5.77h0ZM266.67,146.56c-.44-.32-.9-.61-1.36-.89-1.62-.98-3.36-1.79-5.18-2.35.14.02.28.05.42.08,1.48.29,2.94.76,4.27,1.5.33.18.64.37.95.59.3.21.63.44.8.78.05.09.09.2.1.3ZM265.24,147.5c-.43-.18-.86-.37-1.28-.59-1.41-.75-2.68-1.79-3.7-3.01.2.14.4.27.59.42.89.61,1.81,1.17,2.75,1.69.47.27.95.52,1.43.77.4.21.81.42,1.23.59-.21.12-.47.15-.71.15-.11,0-.21,0-.32-.02ZM259.8,143.68c.27.33.56.66.86.96,1.17,1.18,2.58,2.15,4.12,2.79-.39-.08-.79-.2-1.16-.35-.61-.23-1.18-.56-1.7-.95-.88-.65-1.6-1.5-2.12-2.46h0ZM259.86,143.36c.45.15.9.32,1.35.49.98.38,1.93.82,2.85,1.31.47.25.92.51,1.37.79.42.27.84.55,1.26.83-.01.13-.06.25-.14.36-.04.06-.09.1-.15.14-.49-.27-1-.48-1.5-.73-1.79-.9-3.44-2-5.03-3.2h0ZM265.32,155.24c-.97-.83-1.93-1.67-2.92-2.48-1.81-1.47-3.67-2.87-5.56-4.21-.86-.61-1.72-1.21-2.59-1.79.05.02.1.05.15.07,1.07.53,2.13,1.04,3.16,1.64,1.01.59,1.99,1.24,2.92,1.95.93.71,1.81,1.48,2.64,2.29.42.41.83.83,1.21,1.27.19.21.39.43.57.65.08.1.17.21.26.3.06.1.11.2.16.3h0ZM251.99,145.5c.19.12.38.24.57.37.54.35,1.08.71,1.62,1.07,1.93,1.3,3.83,2.65,5.68,4.06.92.71,1.84,1.42,2.75,2.14.92.73,1.85,1.45,2.75,2.22,0,0,.01,0,.02,0,.01.03.03.06.04.09-1.02-.61-2.03-1.26-3.03-1.91-2.02-1.33-3.98-2.76-5.9-4.25-1.55-1.21-3.05-2.47-4.52-3.77h.01ZM251.56,144.9c.99.33,1.97.69,2.93,1.09,2.44,1.03,4.77,2.38,6.76,4.14,1.33,1.18,2.51,2.53,3.45,4.04-.12-.14-.24-.28-.36-.42-.44-.49-.9-.96-1.37-1.41-1.68-1.62-3.56-3.02-5.59-4.17-1.93-1.1-4.05-1.91-5.83-3.27h0ZM252.33,154.66c-.16-.73-.33-1.47-.48-2.2-.27-1.32-.5-2.65-.67-3.98-.09-.66-.16-1.33-.23-2-.04-.45-.07-.91-.11-1.36.28.5.56,1.01.78,1.55.57,1.33.9,2.76,1,4.2.09,1.28-.01,2.56-.3,3.8h0ZM250.61,145.6c.04.37.08.75.11,1.12.14,1.35.34,2.68.59,4.01.25,1.33.54,2.67.95,3.97,0,.02.03.03.05.02,0,.04-.01.07-.02.11-.39-.51-.71-1.07-.97-1.67-1.03-2.41-.93-5.02-.71-7.57h0ZM240.76,144.6c.04-.05.09-.1.13-.14.66-.56,1.29-1.13,1.91-1.72,1.51-1.45,2.92-3,4.22-4.64.65-.82,1.28-1.68,1.87-2.55.48-.71.95-1.43,1.38-2.18-.35.93-.76,1.83-1.24,2.7-1.08,1.97-2.46,3.77-4.07,5.33-1.26,1.23-2.68,2.31-4.2,3.21h0ZM248.56,135.77c-1.21,1.72-2.54,3.35-3.98,4.89-.96,1.02-1.96,1.99-3.01,2.91.11-.15.23-.31.33-.47.59-.87,1.18-1.74,1.8-2.59.65-.88,1.33-1.73,2.04-2.56,1.34-1.57,2.79-3.04,4.3-4.45-.48.76-.97,1.52-1.48,2.26ZM240.54,144.45c.38-.64.76-1.28,1.16-1.91,1.21-1.89,2.54-3.71,4.04-5.38,1.38-1.52,2.9-2.92,4.58-4.09-.06.08-.11.17-.16.26-.9.78-1.76,1.59-2.59,2.44-1.5,1.53-2.9,3.17-4.18,4.88-.63.85-1.23,1.72-1.84,2.58-.28.39-.57.77-.88,1.12-.04.03-.08.07-.12.1h-.01ZM247.64,154.11c-.45-.53-.91-1.05-1.38-1.57-1.12-1.21-2.27-2.39-3.47-3.54-.59-.57-1.2-1.13-1.82-1.68-.17-.16-.34-.3-.51-.46.09.06.18.13.27.19,2.49,1.82,4.7,4.02,6.6,6.45.11.2.21.39.32.6ZM247.48,154.38c-.54-.43-1.07-.86-1.59-1.31-1.27-1.1-2.47-2.29-3.6-3.54-.56-.62-1.1-1.26-1.62-1.92-.17-.21-.33-.42-.49-.64.3.25.6.51.9.78,1.23,1.09,2.42,2.22,3.58,3.38,1.1,1.11,2.16,2.26,3.21,3.42-.13-.06-.25-.11-.37-.17h0ZM239.29,146.22l.03.03c.44.6.9,1.18,1.38,1.75,1.09,1.3,2.25,2.55,3.48,3.72.62.59,1.26,1.16,1.91,1.71.26.23.53.44.81.66-.45-.23-.88-.48-1.31-.75-1.43-.92-2.73-2.04-3.83-3.33-.99-1.15-1.8-2.43-2.46-3.79ZM239.34,145.74h.21s.04.02.05.03c.01.03.04.04.08.04.73.42,1.46.85,2.15,1.34,1.34.97,2.54,2.14,3.58,3.44.57.71,1.09,1.47,1.56,2.26-.37-.47-.74-.94-1.14-1.38-1.04-1.19-2.16-2.28-3.35-3.31-.99-.87-2.05-1.66-3.13-2.41h-.01Z"/><path class="u" d="M282.78,90.75c-.3-1.39-.63-2.77-1.02-4.13-.07-.54-.11-1.09-.13-1.63.08-.59.2-1.18.35-1.77.49-1.82,1.23-3.56,1.66-5.4.21-.9.36-1.84.36-2.77,0-.77-.11-1.51-.32-2.23v-.03s0-.06-.03-.07c-.04-.12-.08-.24-.13-.36-.04-.1-.21-.1-.26-.01-.52.93-.94,1.93-1.28,2.94-.61,1.8-.96,3.7-1.05,5.6-.04.95,0,1.9.09,2.85.03.29.07.58.12.87-.86-2.62-1.97-5.13-3.3-7.53-.11-.59-.2-1.2-.29-1.79-.11-.67-.18-1.34-.23-2.02-.11-1.72-.06-3.45.17-5.16.04.1.13.16.23.09.54-.35,1-.8,1.37-1.31,1.59-2.18,1.46-4.98,1.29-7.53,0-.13-.17-.24-.27-.16-.05-.02-.11-.01-.16.03-.56.54-1.06,1.13-1.49,1.77-.74,1.12-1.28,2.39-1.55,3.7-.04.17-.07.35-.1.53-.11-.74-.27-1.47-.49-2.19-.17-.58-.37-1.14-.6-1.7-.17-.41-.35-1.06-.84-1.2-.52-.15-.94.3-1.07.75,0,.03-.01.05-.02.08-.03.05-.06.09-.08.14-.15.29-.25.6-.3.91-.25,1.27.23,2.53,1.01,3.53.42.54.91,1,1.45,1.42.27.22.56.42.86.61.15.09.29.19.44.28-.11.74-.18,1.49-.23,2.24-.06,1.2-.04,2.41.08,3.61.06.61.14,1.21.25,1.82.06.32.13.64.21.95-1.31-2.29-2.82-4.47-4.52-6.5-.23-.28-.48-.56-.72-.83-.28-.53-.58-1.05-.86-1.59-.28-.56-.53-1.15-.75-1.74-.07-.18-.13-.36-.19-.55.05-.01.09-.04.11-.1.23-.91.4-1.83.53-2.76.47-3.27.37-6.6-.29-9.84-.04-.17-.25-.16-.32-.02-.49,1.19-.84,2.44-1.06,3.71-.39,2.24-.35,4.55.1,6.78.23,1.12.55,2.22.98,3.28.25.62.54,1.25.87,1.85-.9-.98-1.84-1.93-2.82-2.85-.39-.62-.81-1.23-1.18-1.87-.38-.67-.73-1.36-1.03-2.07-1.13-2.59-1.76-5.37-2.01-8.18v-.06s.1.04.14,0c.41-.45.75-.97,1.08-1.47,1.21-1.79,2.2-3.73,2.98-5.74.06-.14-.13-.24-.24-.15-.45.4-.86.83-1.24,1.29-.82,1.01-1.45,2.14-2.01,3.3.26-2.14.11-4.31-.44-6.39-.05-.19-.32-.17-.34.02-.23,1.73-.39,3.46-.42,5.2-.01.73-.01,1.46.01,2.18h0c-.08-.34-.16-.66-.24-.99-.58-2.32-1.25-4.63-2.27-6.8-.06-.12-.24-.08-.25.05-.04.73-.02,1.47.06,2.2.14,1.3.49,2.58,1.01,3.78.1.23.2.46.32.68-1.47-1.66-3.34-2.94-5.43-3.73-.12-.05-.25.1-.18.21.36.63.77,1.23,1.23,1.8,1.51,1.87,3.55,3.47,5.85,4.29.14,1.75.41,3.47.88,5.16.37,1.35.85,2.67,1.46,3.94.3.63.63,1.24,1,1.84.17.27.34.54.52.8-2.04-1.84-4.21-3.53-6.49-5.06,0-.02,0-.05-.04-.06-.44-.29-.88-.61-1.3-.93-.34-.99-.71-1.98-1.12-2.96-.75-1.8-1.6-3.55-2.57-5.25-.96-1.69-2.01-3.33-3.15-4.91-.06-.08-.2-.05-.24.04-.06,0-.12.03-.13.1-.02.28.04.54.09.81.04.2.09.41.13.61.08.74.23,1.48.41,2.21.56,2.14,1.54,4.17,2.86,5.96.65.89,1.4,1.72,2.22,2.46.08.08.17.15.26.23,0,0,0,.01.01.03-.73-.48-1.46-.95-2.2-1.4-1.39-.83-2.84-1.58-4.31-2.28-.73-.35-1.46-.68-2.21-.99-.38-.16-.76-.32-1.14-.47-.18-.07-.36-.15-.55-.22.32-.77.54-1.56.65-2.38.23-1.59.05-3.22-.52-4.72-.44-1.17-1.12-2.25-1.97-3.18-.06-.15-.11-.3-.19-.43-.04-.08-.17-.03-.15.06v.04c-.08-.09-.18-.18-.27-.26-.11-.1-.27-.02-.26.13.09.79.19,1.58.29,2.37.18,1.39.37,2.78.56,4.17.07.47.13.93.2,1.4-.07-.19-.15-.38-.23-.57-.83-1.92-2.19-3.6-3.91-4.81-1.35-.95-2.99-1.68-4.1-2.92-.04-.1-.09-.22-.13-.32-.04-.09-.12-.1-.19-.08-.08-.12-.17-.24-.25-.37-.1-.17-.35-.08-.32.11.23,1.4.65,2.76,1.25,4.05,1.06,2.26,2.65,4.26,4.65,5.77.44.33.89.64,1.36.92-2.89-1-5.82-1.86-8.78-2.6-.74-.18-1.47-.36-2.22-.54h-.02c.13-.87.08-1.77,0-2.64-.16-1.61-.6-3.19-1.27-4.65-.67-1.47-1.59-2.85-2.71-4.03-.11-.11-.31-.01-.27.14.17.86.37,1.7.58,2.54.35,1.36.77,2.7,1.24,4.02-.59-.79-1.27-1.53-2.02-2.18-1.28-1.12-2.75-2.01-4.35-2.6-.15-.06-.26.11-.21.24.38.97.85,1.89,1.41,2.78.75,1.2,1.65,2.3,2.66,3.28-1.15-.72-2.33-1.4-3.54-2.02-1.65-.84-3.35-1.59-5.09-2.23-.16-.06-.25.13-.16.24.68.86,1.43,1.66,2.26,2.39,1.47,1.29,3.13,2.37,4.92,3.16.42.18.83.35,1.25.5-.47-.08-.94-.15-1.42-.22h-.06c-.97-.13-1.94-.25-2.91-.35-1.97-.2-3.95-.33-5.94-.4-.23,0-.27.29-.07.37,1.13.47,2.27.93,3.42,1.35,1.99.72,4.07,1.29,6.2,1.43,1.04.07,2.1.04,3.13-.13.22-.03.45-.08.67-.13-.22.11-.44.22-.65.31-2.66,1.16-5.7,1.41-8.12,3.09-.13.09-.03.32.11.32,1.01-.03,2.03-.07,3.03-.17,1.63-.16,3.26-.49,4.73-1.25.63-.33,1.22-.73,1.75-1.2.49-.45.93-.97,1.2-1.57,4.43,1,8.81,2.25,13.06,3.84.94.35,1.89.73,2.82,1.12.05.02.09.04.14.06h.03c1.1.47,2.19.96,3.26,1.47-.6-.16-1.2-.29-1.8-.42-3.01-.63-6.1-.9-9.18-.81-3.1.09-6.18.54-9.17,1.34-.16.04-.2.29-.02.34.91.24,1.84.4,2.77.49,1.66.16,3.35.09,4.99-.21,1.63-.3,3.23-.82,4.72-1.56l.04-.03c.58.03,1.18.07,1.76.13,1.53.15,3.05.38,4.55.71.72.16,1.46.33,2.17.54.27.08.54.18.81.28,2.6,1.33,5.12,2.82,7.52,4.5.37.26.75.53,1.11.8-1.25-.42-2.53-.73-3.83-.96-2.3-.4-4.64-.53-6.97-.5-.01-.06-.06-.1-.13-.11-.87-.13-1.75-.21-2.63-.23-1.55-.04-3.11.08-4.63.38-.77.15-1.52.33-2.27.56-.35.1-.68.22-1.03.34-.42.06-.84.11-1.26.17-.19.03-.18.29-.02.35.03.01.08.03.11.04,0,.05.04.1.09.08.03,0,.05-.01.08-.03.77.27,1.56.47,2.36.61,1.59.26,3.22.25,4.81-.02,1.6-.27,3.15-.81,4.55-1.62.08-.04.1-.12.08-.19.95-.01,1.91,0,2.86.05,2.81.14,5.59.61,8.28,1.41,3.81,2.85,7.27,6.16,10.18,9.91,1.31,1.69,2.48,3.46,3.52,5.3-.62-.5-1.27-.97-1.93-1.42-.73-.5-1.46-.98-2.22-1.44-1.28-.78-2.6-1.5-3.95-2.15-.37-.6-.8-1.16-1.25-1.7-1.69-2.05-3.81-3.73-6.18-4.94-.1-.05-.26.05-.18.17.41.61.85,1.19,1.32,1.75,1.27,1.5,2.77,2.82,4.44,3.88-1.24-.54-2.5-1.03-3.78-1.47-1.67-.57-3.38-1.05-5.11-1.44-1.72-.39-3.48-.68-5.23-.88-.17-.02-.27.24-.11.33,1.09.54,2.2,1.06,3.33,1.54,2.01.85,4.06,1.58,6.17,2.13,2.1.54,4.25.91,6.42,1.04.05,0,.09-.01.12-.04,1.51.74,2.99,1.55,4.42,2.43,1.37.86,2.71,1.77,4.01,2.73,1.48,2.72,2.69,5.58,3.6,8.56v.33c0,.09.07.15.15.15.04.13.09.27.12.4.06.41.12.81.2,1.22.13.62.29,1.24.48,1.84.08.26.17.52.26.79.03.15.06.3.09.45-.44-.89-1.04-1.72-1.68-2.47-1.23-1.45-2.7-2.68-4.2-3.85-.29-.64-.63-1.26-1.03-1.84-1.48-2.15-3.67-3.81-6.17-4.64-.1-.03-.23.03-.23.15-.06.03-.11.1-.06.18.02.03.04.06.06.1.03.74.08,1.5.25,2.23.17.7.46,1.36.92,1.91.47.55,1.1.94,1.77,1.22,1.47.62,3.11.74,4.62,1.24h.04c.46.37.93.74,1.37,1.13.94.81,1.84,1.68,2.63,2.63.72.87,1.32,1.82,1.84,2.8l.61,3.06c.07,0-.39-3.97-.5-4.26h0ZM275.93,66.63c-.97-.8-1.84-1.82-2.16-3.05-.14-.54-.17-1.12-.04-1.66v-.04c.02.23.04.45.08.67.24,1.57,1.1,2.94,2.18,4.12l-.04-.03h0ZM275.31,65.34c-.6-.86-1.05-1.84-1.21-2.88-.07-.49-.11-1.06.04-1.54v-.04c.09-.12.17-.24.25-.35l.04-.03h0c.05.54.13,1.06.23,1.59.31,1.55.84,3.05,1.58,4.44-.34-.38-.65-.77-.95-1.18h0ZM276.68,66.98c-.22-.41-.42-.83-.6-1.25-.74-1.67-1.21-3.46-1.39-5.28v-.05c.18-.01.33.12.43.28.13.2.21.43.31.65.1.26.21.52.3.79.19.53.35,1.07.49,1.62.27,1.07.43,2.16.49,3.27l-.03-.03h0ZM280.09,59.96c.03.57.06,1.13.06,1.7,0,1.25-.13,2.52-.6,3.69-.4,1-1.06,1.93-1.97,2.53l-.05-.06c.08-.56.18-1.11.3-1.67.47-2.16,1.22-4.24,2.25-6.2h0ZM277.25,67.39c-.17-.36-.23-.77-.22-1.19.01-.62.13-1.25.29-1.84.16-.61.38-1.22.65-1.79.44-.93,1.01-1.79,1.7-2.56-.49.96-.92,1.95-1.29,2.96-.51,1.43-.89,2.92-1.13,4.42ZM269.51,59.21c.02-2.05.39-4.09,1.11-6.02v.05c-.03.27-.05.55-.07.81-.04.44-.08.87-.11,1.31-.11,1.59-.2,3.19-.23,4.78-.01.79,0,1.59,0,2.38.01.72.02,1.45.07,2.18-.54-1.78-.8-3.63-.78-5.49h0ZM270.54,63.75c-.02-.51-.04-1.02-.05-1.54-.03-1.57-.01-3.14.04-4.71.03-.79.07-1.59.13-2.38.03-.39.06-.78.09-1.18.07.47.14.93.19,1.41.29,2.8.15,5.64-.39,8.39h0ZM264.91,51.46c.04-.09.08-.18.12-.27.76-1.71,1.66-3.41,3.01-4.74-.15.35-.3.7-.46,1.04-.45.97-.95,1.91-1.5,2.83-.27.46-.56.91-.85,1.36-.16.24-.34.49-.51.73.08-.31.15-.63.2-.94h0ZM261.36,44.24c.2.45.39.9.56,1.36.42,1.11.76,2.26,1.06,3.41.15.58.3,1.16.44,1.74.07.29.14.58.2.88.02.08.04.17.06.25-.18-.26-.36-.54-.52-.81-1.21-2.06-1.84-4.44-1.8-6.82h0ZM262.47,51.89c-2.06-1.19-3.81-2.85-5.09-4.85.49.19.97.43,1.43.69,2.03,1.14,3.73,2.81,4.89,4.81-.42-.21-.83-.42-1.23-.65ZM264.52,45c.07.32.13.65.18.97.27,1.85.21,3.74-.16,5.58-.08.19-.17.39-.25.59-.13-2.38-.01-4.77.24-7.14ZM227.89,43.7c-1.07-1.29-1.94-2.72-2.6-4.25.75.3,1.46.67,2.15,1.1,1.4.89,2.63,2.03,3.62,3.35.32.43.63.88.89,1.35.37.93.77,1.86,1.2,2.76-.41-.22-.81-.45-1.2-.7-1.53-.99-2.91-2.21-4.07-3.6ZM224.55,44.95c-1.44-.97-2.74-2.13-3.86-3.45.79.31,1.58.63,2.36.97,1.68.76,3.32,1.61,4.9,2.57,1.46.89,2.88,1.86,4.24,2.91-.16-.03-.32-.06-.49-.1-.39-.08-.79-.15-1.18-.22-.25-.07-.5-.14-.75-.22-1.85-.56-3.61-1.4-5.21-2.48h0ZM230.4,49.11c-2.06.24-4.15-.04-6.14-.58-1.7-.46-3.35-1.1-4.98-1.77.75.03,1.51.07,2.26.13,1.98.14,3.95.35,5.92.63.08.01.15.02.23.03.51.1,1.03.2,1.54.3,1.16.22,2.32.45,3.47.7-.06.04-.12.08-.18.13-.14.03-.28.08-.42.11-.55.15-1.11.24-1.68.31h0ZM231.97,50.31c-2.36,1.91-5.46,2.16-8.4,2.27.52-.3,1.07-.56,1.63-.77,1.35-.52,2.77-.85,4.14-1.28.68-.22,1.37-.45,2.01-.76.32-.15.65-.32.96-.51.24-.15.49-.3.7-.49.07-.03.15-.06.22-.1.06.01.13.03.2.05-.43.58-.89,1.12-1.46,1.58h0ZM233.54,48.05c-.06-.43-.24-.84-.4-1.25-.18-.44-.38-.86-.6-1.28-.11-.22-.24-.42-.37-.64-.91-2.32-1.62-4.72-2.14-7.17.46.53.89,1.09,1.27,1.68.86,1.34,1.5,2.82,1.89,4.36.2.77.32,1.54.4,2.33.06.72.05,1.43.04,2.14-.03-.06-.06-.12-.08-.17h0ZM239.99,43.08c.84.56,1.74,1.05,2.56,1.64.84.61,1.6,1.35,2.24,2.17,1.13,1.47,1.88,3.21,2.17,5.04-.15-.1-.31-.21-.46-.32-1.82-1.34-3.43-2.92-4.81-4.69-1.13-1.45-2.07-3.03-2.84-4.7.36.31.74.59,1.13.85h0ZM246.36,51.98c-2.16-1.07-4.06-2.62-5.51-4.53-1.34-1.77-2.29-3.83-2.76-6,.04.06.09.1.14.16.44,1.05.96,2.07,1.55,3.05,1.18,1.93,2.62,3.71,4.28,5.26.83.78,1.71,1.5,2.64,2.16.1.07.2.14.3.21-.21-.09-.42-.19-.63-.29h0ZM247.36,52.21c-.08-.71-.19-1.41-.29-2.12-.38-2.64-.72-5.28-1.04-7.92.13.13.25.25.37.38.06.18.11.36.16.54.11.39.22.78.32,1.18.35,1.41.59,2.84.72,4.28.06.73.1,1.47.11,2.21,0,.35,0,.7-.01,1.06,0,.19-.01.39-.02.58h0c-.1-.05-.2-.11-.3-.18ZM247.99,52.44v-.08c0-.21.01-.42.02-.63,0-.4,0-.81,0-1.22-.04-1.47-.19-2.95-.46-4.4-.13-.73-.3-1.45-.49-2.17-.08-.31-.18-.61-.27-.92.2.26.4.53.58.81.82,1.29,1.32,2.76,1.43,4.27.12,1.49-.14,3-.72,4.38-.03,0-.06-.01-.09-.02h0ZM242.54,55.16c-2.89.89-6.01,1.04-8.96.4,1.43-.35,2.88-.64,4.35-.83,2.19-.3,4.42-.4,6.63-.33-.65.3-1.33.56-2.01.77ZM253.33,46.97s-.02-.1-.03-.15c-.03-.26-.05-.52-.06-.78.1.14.19.28.29.42.3.78.66,1.52,1.01,2.28.73,1.57,1.46,3.13,2.18,4.7.36.77.72,1.55,1.08,2.32.14.3.27.6.42.9-.17-.19-.34-.4-.5-.6-1.22-1.52-2.22-3.2-3.01-4.97-.39-.88-.73-1.79-1-2.72-.13-.47-.25-.94-.36-1.41h-.01ZM258.4,57.22c-1.56-1.52-2.83-3.34-3.72-5.32-.21-.47-.39-.93-.56-1.41.52,1.27,1.15,2.5,1.9,3.65.72,1.11,1.53,2.14,2.43,3.1,0,.02.02.04.03.06-.03-.03-.06-.05-.08-.08h0ZM258.84,57.38c-.11-.22-.21-.45-.32-.67-.2-.44-.41-.88-.62-1.31-.74-1.56-1.48-3.12-2.21-4.68-.37-.77-.73-1.54-1.09-2.32-.19-.4-.37-.79-.56-1.19.25.38.51.77.75,1.16,1.02,1.63,1.94,3.33,2.76,5.06.71,1.5,1.34,3.03,1.9,4.58-.21-.21-.42-.42-.61-.64h0ZM251.04,59.96c-.28.01-.56.02-.84.03-2.36.13-4.71.38-7.05.68,2.56-.71,5.24-.96,7.89-.72ZM249.85,61.23c-2.76.9-5.79.94-8.56.06h.01c1.54-.21,3.08-.41,4.62-.58,2.03-.22,4.08-.39,6.13-.44-.7.38-1.44.7-2.2.95h0ZM263.59,66.62c1.08.72,2.09,1.57,3,2.48.45.46.87.94,1.27,1.43-.07-.08-.15-.16-.22-.24-.75-.82-1.55-1.6-2.41-2.32-.8-.68-1.65-1.35-2.55-1.91h0s-.01-.02-.02-.03c.32.19.63.38.93.58ZM262.4,66.07s-.06-.08-.09-.12c.04.03.08.06.11.09,0,0-.01.02-.02.03ZM267.29,70.73c-1.79-1.22-3.38-2.71-4.69-4.4.46.31.92.62,1.36.95.89.66,1.74,1.37,2.53,2.14.68.65,1.3,1.36,1.93,2.05-.39-.24-.77-.48-1.15-.74h0ZM259.08,68.66c1.71.41,3.41.91,5.06,1.5,1.17.42,2.32.88,3.45,1.38-.67-.15-1.34-.31-2-.47-1.93-.47-3.86-.98-5.76-1.56-1.67-.51-3.32-1.06-4.96-1.65,1.42.21,2.83.47,4.22.8h0ZM265.49,71.55c-2.11-.38-4.18-.95-6.2-1.67-1.11-.4-2.21-.84-3.29-1.32.42.14.84.28,1.26.42,1.91.61,3.83,1.17,5.76,1.67,1.74.46,3.5.87,5.28,1.21.06.03.11.05.17.08-1-.08-1.99-.21-2.98-.38ZM281.33,83.98c-.02-.2-.04-.4-.06-.61-.14-1.86-.03-3.76.35-5.59.19-.91.44-1.81.75-2.69.28-.79.63-1.54.99-2.29.04.1.07.22.1.32-.37,1.25-.73,2.5-1.05,3.76-.59,2.32-1.05,4.69-1.09,7.09h0ZM281.63,83.38c.04-1.09.15-2.16.32-3.24.36-2.3.96-4.54,1.58-6.78.17.71.21,1.45.18,2.18-.1,1.87-.72,3.65-1.32,5.42-.27.79-.54,1.6-.75,2.42h0ZM275.17,83.74c-1.03-.79-2.08-1.57-3.05-2.42-.49-.42-.97-.87-1.43-1.34-.23-.23-.44-.47-.65-.7-.08-.09-.15-.18-.24-.28.48.28.96.55,1.43.86.94.63,1.82,1.35,2.6,2.16.39.4.75.82,1.09,1.26.15.19.29.38.42.58-.06-.04-.1-.08-.16-.12ZM275.44,84.34c-.44-.17-.88-.38-1.3-.6-1-.54-1.91-1.23-2.69-2.05-.39-.41-.75-.85-1.06-1.32-.15-.22-.29-.45-.42-.67.2.22.39.42.6.63.51.51,1.05,1,1.6,1.47,1.06.89,2.16,1.71,3.26,2.55ZM274.3,84.44c-1.36-.31-2.84-.7-3.74-1.84-.5-.63-.75-1.4-.87-2.19.06.17.13.33.21.49.99,2.02,3.08,3.05,5.18,3.71-.26-.06-.52-.12-.78-.18h0ZM274.32,84.17c-1.21-.45-2.38-1.04-3.29-1.98-.42-.45-.78-.95-1.03-1.51-.13-.3-.22-.61-.27-.93.02.04.05.08.07.12.16.27.33.54.52.8,1.29,1.82,3.24,3.32,5.43,3.92.06.04.11.08.17.13-.54-.17-1.08-.35-1.61-.54h0ZM275.94,84.32c-.11-.2-.26-.39-.39-.57-.18-.26-.37-.51-.57-.76-.72-.89-1.53-1.7-2.43-2.42-.44-.36-.92-.7-1.4-1-.27-.17-.56-.34-.85-.49.34.15.68.31,1,.49,2.03,1.12,3.72,2.84,4.79,4.88-.05-.04-.1-.08-.15-.12Z"/><path class="t" d="M192.84,143.36c-2.29.66-4.58,1.22-6.93,1.57-.53-.53-1.08-1.04-1.59-1.58-.57-.59-1.11-1.21-1.61-1.87,0-.01-.02-.03-.03-.04.08-.39.1-.79.13-1.18.03-.42.05-.85.06-1.27,0-.84-.03-1.68-.12-2.51-.09-.83-.24-1.65-.42-2.46-.1-.4-.19-.83-.46-1.16-.21-.25-.54-.43-.87-.37-.74.12-.88,1.06-.93,1.67-.07.78-.02,1.57.12,2.35.29,1.59.97,3.08,1.87,4.41.09.13.19.27.29.4v.06s.04.06.07.04c.01.02.03.05.05.07,0,.02.02.04.04.05.87,1.18,1.89,2.26,2.98,3.22.08.06.15.13.22.19-.42.06-.85.11-1.27.16-.91.1-1.83.16-2.75.2-.04-.02-.09-.03-.14,0-.24,0-.49.01-.72.02-.01-.02-.04-.04-.06-.05-.13-.07-.26-.14-.4-.21,0-.01-.01-.03-.02-.04.01-.04.01-.09-.03-.12-.02-.01-.04-.03-.06-.05-.39-.72-.81-1.43-1.24-2.12-.59-.97-1.21-1.92-1.87-2.84-1.29-1.81-2.74-3.53-4.37-5.04-.92-.85-1.9-1.64-2.95-2.34-.1-.07-.24.06-.2.17.72,2.15,1.77,4.18,3.09,6.01,1.32,1.84,2.91,3.49,4.69,4.86.86.66,1.78,1.26,2.73,1.78-1.42,0-2.84-.06-4.25-.19-1.82-.17-3.64-.46-5.43-.85,0-.04-.05-.08-.1-.06-.03,0-.06.01-.08.02-.15-.04-.28-.07-.43-.1-.94-.69-1.79-1.49-2.49-2.43.54-1.1.79-2.34.72-3.56-.04-.64-.15-1.29-.36-1.89-.17-.5-.41-1.14-.93-1.37-.61-.27-1.15.26-1.4.78-.25.55-.3,1.16-.22,1.76.08.64.28,1.25.52,1.84.27.66.61,1.28.99,1.88.09.13.18.26.27.39,0,.04.01.06.01.1,0,.01,0,.03,0,.04,0,.04.02.07.06.08-.06.13.12.24.22.15.61.79,1.33,1.51,2.12,2.1-1.85-.46-3.67-1.04-5.45-1.74-1.13-1.12-2.07-2.41-2.73-3.87-.09-.21-.17-.41-.26-.62.01,0,.03,0,.04-.02,1.16-.9,1.95-2.27,2.27-3.71.16-.72.2-1.46.12-2.19-.08-.66-.22-1.51-.81-1.92-.68-.49-1.45.09-1.86.66-.45.62-.67,1.38-.75,2.14-.09.83-.04,1.67.08,2.48.06.42.15.85.26,1.26-.19-.29-.4-.56-.62-.82-.27-.31-.56-.6-.88-.86-.29-.25-.61-.51-.97-.63-.33-.11-.74-.05-.95.25-.21.3-.15.69,0,1,.17.34.44.64.72.89.26.25.54.46.85.64.35.22.72.39,1.11.54.19.07.38.13.57.18.19.05.38.11.58.11.61,1.61,1.56,3.09,2.78,4.29.01.01.03.02.04.04-1.35-.54-2.68-1.16-3.97-1.84-.64-.34-1.26-.68-1.88-1.06,0,0,0-.01-.01-.03-.52-.7-.97-1.45-1.35-2.23-.19-.4-.36-.8-.5-1.21-.07-.2-.14-.4-.2-.61-.01-.05-.03-.1-.05-.15.01-.05.01-.1-.03-.14h0c-.04-.11-.07-.2-.12-.3.42-.44.79-.93,1.13-1.45.36-.55.7-1.12.99-1.71.58-1.16,1.04-2.4,1.36-3.67.18-.73.31-1.46.4-2.2.01-.13-.13-.23-.24-.13-.97,1.03-1.82,2.16-2.55,3.37-.37.61-.69,1.24-.99,1.88-.29.63-.56,1.27-.67,1.96-.02.14-.03.29-.04.44-.29-1.09-.48-2.2-.61-3.32-.13-1.06-.18-2.12-.2-3.19.03-.04.04-.08,0-.13,0,0,0,0,0-.01v-.34c.36-.47.73-.92,1.13-1.36.49-.53,1.01-1.03,1.52-1.54.93-.93,1.84-1.91,2.48-3.08.33-.59.57-1.23.7-1.89.02-.03.05-.07.07-.11.04-.07-.01-.13-.07-.15-.04-.05-.11-.07-.18-.03-1.79,1.09-3.22,2.77-4.04,4.73-.23.56-.42,1.13-.55,1.72v.06c-.38.42-.74.86-1.06,1.33,0-.44,0-.88.02-1.31.01-.42.03-.83.05-1.26,0-.03.01-.06,0-.08.06-1.34.17-2.69.27-4.03.14-1.78.28-3.58.32-5.37,0-.23.01-.45.01-.68,0-.13-.16-.16-.24-.09-1.07.93-1.84,2.19-2.21,3.57-.4,1.48-.3,3.07.25,4.5.31.81.77,1.56,1.35,2.21,0,.22-.02.44-.03.65-.03.73-.03,1.47-.03,2.2-.04-.05-.08-.1-.12-.15-.11-.33-.25-.66-.4-.97-.22-.45-.47-.89-.74-1.31-.55-.82-1.21-1.55-1.95-2.19-.42-.36-.88-.69-1.36-.98-.1-.06-.21.05-.18.15.56,1.97,1.68,3.77,3.21,5.12.43.38.89.72,1.37,1.02.06.04.12.02.15-.02,0,.01,0,.02.01.03,0,.02.02.04.03.05.02.81.07,1.6.15,2.41.12,1.17.31,2.34.59,3.48-.67-1.55-1.52-3.01-2.5-4.38-.4-.56-.83-1.1-1.29-1.62-.1-.11-.24.02-.22.14.58,2.46,1.76,4.76,3.38,6.68.4.47.83.92,1.27,1.34.26.73.57,1.43.93,2.12.01.03.02.06.03.09.29.63.64,1.24,1.03,1.81-4.2-2.59-7.93-5.92-10.97-9.86-1.66-2.15-3.11-4.47-4.34-6.89-.02-.09-.04-.17-.05-.26-.07-.47-.06-.95-.01-1.41.1-1.01.38-1.99.62-2.97.11-.44.22-.88.33-1.32.78-1.58,1.72-3.1,2.79-4.49,2.27-.96,4.28-2.52,5.78-4.5.42-.56.8-1.14,1.14-1.76.07-.13-.08-.25-.19-.18-1.68,1.03-3.23,2.26-4.63,3.65-.79.79-1.52,1.63-2.2,2.52-.06.02-.08.07-.09.12-.48.64-.94,1.31-1.36,1.98-.39.64-.74,1.29-1.06,1.96.37-1.5.74-3.01,1.11-4.51.3-1.22.61-2.44.91-3.67.03-.13-.13-.21-.22-.12-.9.94-1.59,2.07-2.05,3.3-.46,1.24-.68,2.55-.65,3.87.02.74.13,1.47.32,2.19,0,.04.04.06.06.08-.05.2-.1.39-.15.59-.24,1-.52,2-.63,3.03-.05.42-.07.88-.03,1.33-1.41-2.87-2.52-5.89-3.3-9-.31-1.22-.56-2.46-.77-3.71.1-1.03.26-2.05.53-3.06.28-1.02.65-2.01,1.13-2.96.02-.04.05-.08.07-.13.02,0,.04,0,.06-.01,2.47-1.08,4.65-2.86,6.25-5.05.45-.62.86-1.27,1.22-1.95.05-.09-.05-.23-.15-.19-2.15.92-4.08,2.32-5.61,4.11-1.42,1.66-2.47,3.63-3.06,5.74-.27.96-.45,1.96-.51,2.95-.44-2.9-.61-5.84-.49-8.78.04-.04.06-.1.01-.16,0-.06,0-.13,0-.19.31-.6.86-1.06,1.38-1.47.47-.37.95-.72,1.43-1.07.04,0,.08-.01.1-.07.25-.18.51-.36.76-.54,1.55-1.07,3.13-2.1,4.54-3.36.79-.71,1.52-1.47,2.14-2.34.07-.1,0-.23-.12-.2-1.3.25-2.54.79-3.64,1.53-1.1.74-2.07,1.69-2.82,2.79-.43.63-.79,1.3-1.08,2-.45.32-.88.65-1.32.99-.47.38-1,.8-1.35,1.33.06-.9.14-1.79.24-2.68.04-.01.07-.04.08-.09.01-.06.04-.12.06-.18,1.26-1.52,2.9-2.66,4.12-4.22.35-.44.65-.92.89-1.43.04-.09-.04-.23-.15-.18-1.95.83-3.56,2.37-4.53,4.28-.11.23-.21.46-.31.69.04-.23.07-.47.11-.69.12-.76.27-1.5.44-2.24.02-.08-.1-.11-.12-.03-.3,1.26-.54,2.53-.72,3.81-.01.05-.03.1-.04.15,0,.04,0,.07,0,.09-.11.82-.2,1.64-.26,2.46-.02-.18-.05-.36-.08-.54-.1-.59-.23-1.16-.4-1.73-.32-1.11-.78-2.19-1.34-3.2-.33-.58-.69-1.14-1.09-1.67-.06-.08-.21-.06-.21.06.17,2.28.83,4.51,1.97,6.49.31.54.65,1.04,1.01,1.54-.01.06-.04.13-.04.19,0,.06.04.1.09.09-.15,3.15.05,6.31.57,9.42-.08-.17-.15-.33-.23-.49-.12-.24-.25-.48-.38-.71,0-.01,0-.02-.01-.03,0,0,0,0-.01-.01-.25-.42-.52-.84-.81-1.23-.93-1.24-2.07-2.31-3.37-3.13-.74-.47-1.52-.85-2.34-1.16-.1-.03-.19.11-.13.19,1.27,1.59,2.77,2.99,4.46,4.11.46.3.94.59,1.43.85.18.16.37.35.58.47.1.16.19.33.28.5.27.51.51,1.04.72,1.58.02.11.04.21.06.32.7,3.57,1.84,7.06,3.36,10.36-.17-.3-.34-.59-.51-.88-.6-.98-1.24-1.93-1.91-2.86-.28-.39-.57-.77-.85-1.15.09-1.04-.07-2.11-.33-3.11-.27-1.04-.69-2.05-1.24-2.99-.31-.52-.65-1.02-1.06-1.46-.05-.06-.19,0-.17.08.2,1.55.91,3.01,2.01,4.11.06.06.12.04.16,0,.16.54.28,1.1.36,1.66.07.5.1,1,.12,1.5-.35-.45-.71-.9-1.07-1.35-.36-.44-.72-.88-1.09-1.31-.29-.35-.59-.69-.92-1-.66-.64-1.49-1.2-2.44-1.14-.08,0-.15.08-.12.16.57,1.34,1.68,2.41,3.02,2.93.38.15.77.25,1.17.31h.02c1.42,1.73,2.75,3.52,3.96,5.4.34.53.67,1.07.99,1.62.31.54.59,1.12.93,1.65.02.03.06.03.08.01.81,1.52,1.69,3,2.66,4.41.86,1.26,1.79,2.46,2.77,3.6-.1-.08-.21-.16-.32-.24-.56-.41-1.13-.8-1.72-1.18-1.16-.75-2.36-1.43-3.59-2.05-.68-.34-1.37-.66-2.07-.95,0-.05-.03-.09-.08-.1-.06-.01-.13-.02-.2-.02-.02-.02-.05-.04-.08-.04-.06-.03-.13-.05-.18-.08-.31-.33-.63-.66-.92-1.02-.18-.22-.35-.44-.52-.67.78-.75,1.24-1.81,1.27-2.89.03-1.24-.56-2.48-1.49-3.26-.4-.34-.97-.66-1.49-.42-.53.25-.72.9-.74,1.45-.03.64.15,1.28.38,1.88.25.63.56,1.25.9,1.83.26.46.56.91.87,1.34-.03.08.04.18.13.18.1.14.21.27.31.41.26.32.54.66.82.96-.23-.09-.46-.18-.69-.27-1.29-.48-2.61-.88-3.94-1.21-.67-.17-1.36-.3-2.04-.44-.67-.13-1.34-.25-2.02-.3-.1,0-.19-.01-.28-.02h-.01c0-.06-.04-.13-.1-.13-.4.01-.54.49-.41.82.16.39.59.64.91.88.65.46,1.36.82,2.09,1.11,1.47.57,3.05.81,4.62.7.45-.03.89-.1,1.34-.19.21-.04.42-.1.63-.16.17-.05.37-.09.54-.18.06.05.11.1.17.15.05.04.12,0,.12-.06,1.8.78,3.54,1.69,5.2,2.73.65.41,1.29.84,1.93,1.29.01.01.03.02.04.04-.06-.02-.12-.04-.19-.06-.59-.2-1.2-.37-1.81-.49-1.22-.25-2.48-.35-3.74-.28-1.26.06-2.69.21-3.71,1.05-.23.19-.47.42-.57.71-.08.25-.03.52.19.67.22.14.5.11.74.05.35-.08.69-.18,1.03-.28,1.62-.46,3.21-1.03,4.76-1.69.06-.03.09-.08.09-.13.3.03.59.08.88.13.65.11,1.29.27,1.93.47.36.11.7.23,1.04.37.08.06.15.11.22.16.26.2.5.4.77.58,2.47,2.66,5.27,4.98,8.34,6.91h-.06c-.47-.27-.94-.52-1.41-.78-.65-.35-1.3-.69-1.96-1.02-1.29-.63-2.62-1.21-3.99-1.67-1.29-.43-2.62-.75-3.98-.9-1.38-.15-2.82-.19-4.17.2-.65.18-1.27.48-1.79.92-.42.36-.77.8-1.03,1.31-.51,1-.67,2.21-.39,3.31.29,1.14,1.1,2.16,2.17,2.63.57.25,1.2.33,1.81.24.69-.11,1.33-.38,1.93-.71,2.27-1.24,4.13-3.23,5.25-5.57.14-.3.26-.59.38-.9.02-.05,0-.09-.02-.13,2.33.79,4.53,1.93,6.7,3.08-.79,0-1.58.06-2.36.14-1.16.12-2.33.3-3.46.61-2.02.56-4.07,1.71-4.95,3.73-.39.89-.52,1.9-.31,2.85.19.9.73,1.69,1.49,2.21.74.51,1.68.71,2.54.46.95-.28,1.71-1.01,2.17-1.88,1.03-1.95.5-4.26.13-6.32-.05-.29-.1-.58-.15-.87,0-.02,0-.04-.02-.06.64-.14,1.29-.25,1.94-.33,1.08-.15,2.18-.23,3.28-.27h.21c.15.08.3.16.45.23.03.01.06.01.08,0,.14.06.28.11.42.16.29.12.57.26.85.41.08.04.19.13.29.14,1.76.97,3.59,1.81,5.46,2.53-.47,0-.94,0-1.4.03-.81.04-1.61.12-2.41.25-1.56.26-3.09.73-4.49,1.49-.35.19-.7.4-1.04.63-.31.21-.63.44-.85.76-.19.27-.29.61-.23.94.06.35.33.62.65.76.34.15.72.14,1.09.1.35-.05.69-.12,1.02-.22.65-.19,1.27-.48,1.85-.84,1.16-.73,2.14-1.79,2.75-3.02.08-.15.15-.31.21-.47h0c.41-.06.83-.1,1.24-.13.43-.03.86-.05,1.29-.06.28,0,.56,0,.83,0,1.57.58,3.18,1.08,4.81,1.47-2.39.69-4.71,1.65-6.86,2.93-2.15,1.28-4.12,2.89-5.7,4.86-.85,1.07-1.59,2.24-2.17,3.49-.06.13.08.27.2.19,2.07-1.24,4.09-2.55,6.06-3.96,1.97-1.4,3.87-2.89,5.72-4.45.8-.68,1.59-1.37,2.36-2.07-.15.27-.28.55-.41.82-.31.68-.56,1.38-.74,2.09-.38,1.43-.52,2.92-.42,4.4.06.83.19,1.66.42,2.47.04.11.19.16.27.06.86-1.07,1.42-2.36,1.73-3.7.34-1.47.39-3.01.33-4.52-.04-.83-.1-1.64-.17-2.46,1.2.27,2.41.5,3.62.68,2.18.31,4.4.47,6.61.45-1.34.66-2.56,1.6-3.64,2.61-1.22,1.14-2.27,2.45-3.16,3.87-.5.8-.95,1.64-1.34,2.5-.03.06,0,.16.08.17-.05.04,0,.12.06.08.1-.07.19-.14.29-.21,1.47-.65,2.85-1.5,4.09-2.53,1.32-1.1,2.47-2.39,3.42-3.83.54-.81,1.01-1.67,1.38-2.57.02-.04.01-.09,0-.12,3.18-.11,6.34-.57,9.4-1.42.69-.19,1.36-.4,2.03-.65.19-.07.1-.36-.09-.3h.04ZM181.65,132.98c.2.22.31.52.38.81.2.77.33,1.57.43,2.36.19,1.57.21,3.16.05,4.73,0,.03,0,.08,0,.11-.03-.06-.05-.11-.08-.17-.07-2.1-.25-4.2-.54-6.28-.04-.31-.09-.62-.14-.93-.03-.16-.05-.32-.07-.49,0-.05-.01-.09-.01-.14h0ZM181.43,132.8c.02.23.09.47.12.71.05.28.09.57.13.86.08.57.15,1.13.22,1.69.13,1.13.24,2.26.31,3.4.02.35.04.71.06,1.07-.15-.32-.29-.66-.4-.99-.19-.52-.35-1.06-.48-1.6-.27-1.12-.4-2.26-.42-3.4,0-.6.03-1.2.06-1.8.12-.01.25,0,.38.08h0ZM181.86,140.2c-.54-.88-.97-1.83-1.25-2.82-.2-.73-.33-1.47-.35-2.22-.01-.38,0-.76.04-1.14.04-.34.1-.7.29-.99.08-.13.2-.21.33-.26-.19,1.08-.17,2.21-.06,3.29.11,1.14.35,2.28.72,3.37.09.26.18.53.29.79h0ZM166.21,135.11h0c.02.11.07.2.11.3.05.1.09.22.13.32.08.2.15.4.22.6.13.41.24.83.32,1.26.16.87.22,1.76.15,2.63-.02.27-.05.54-.08.8-.03-.3-.08-.61-.13-.91-.08-.51-.18-1.02-.29-1.54-.21-1.04-.47-2.06-.77-3.08-.01-.04-.05-.06-.08-.06.11-.15.25-.26.42-.32h0ZM165.52,138.14c-.15-.56-.23-1.15-.13-1.72.04-.26.14-.58.3-.84.31.99.56,2,.77,3.03.1.51.2,1.04.28,1.56.04.3.08.59.12.89-.58-.9-1.06-1.88-1.34-2.91ZM167.13,141.45c.33-1.64.23-3.38-.23-4.99-.07-.25-.15-.49-.24-.73-.04-.12-.09-.23-.14-.35-.04-.1-.08-.22-.15-.32.55-.06.85.61,1.01,1.03.21.56.34,1.15.4,1.75.11,1.23-.1,2.5-.63,3.62,0,0-.01-.01-.02-.03h0ZM161.93,130.04h.02c.73-.01.95.94,1.04,1.51.1.68.1,1.38-.01,2.05-.22,1.37-.88,2.65-1.85,3.61-.08.08-.17.15-.25.23v-.05c1.08-1.68,1.51-3.79,1.33-5.77-.03-.28-.07-.57-.12-.85-.04-.24-.08-.5-.17-.73h.01ZM161.75,130.06c.03.2.1.42.15.62.06.26.1.52.13.78.06.5.08,1.01.05,1.51-.05,1.03-.26,2.05-.63,3.01-.15.4-.33.79-.54,1.17.12-.82.17-1.66.21-2.48.06-.94.08-1.88.1-2.82v-.81c0-.22.01-.46,0-.68.16-.14.34-.26.54-.31h.01ZM160.09,133.67c0-.73.08-1.48.35-2.16.14-.33.32-.65.56-.92.01-.02.04-.03.05-.06,0,.14.01.29.01.43v.68c0,.47,0,.93-.02,1.4-.03.94-.08,1.88-.15,2.81-.04.52-.1,1.04-.12,1.57,0,0,0,0,0,.01-.42-1.21-.67-2.49-.68-3.77h0ZM157.66,134.41c.35.09.66.37.94.59.29.23.55.48.79.75.17.19.34.39.49.6-.22-.24-.43-.47-.67-.68-.29-.26-.59-.5-.9-.73-.29-.21-.61-.42-.93-.55.09-.01.18,0,.28.02h0ZM157.25,134.43c.15.11.31.2.46.3.17.11.34.23.51.35.31.22.61.47.88.72.29.26.55.54.8.85.12.15.24.3.35.45.02.03.03.06.06.08-.03-.01-.06-.03-.08-.04-.17-.1-.33-.2-.5-.3-.34-.22-.68-.45-1-.69-.61-.46-1.17-.99-1.72-1.54.06-.09.15-.14.24-.18h0ZM160.57,137.59c-.1-.03-.19-.05-.29-.07-.17-.04-.33-.09-.5-.15-.31-.1-.61-.23-.9-.38-.58-.3-1.11-.7-1.54-1.21-.21-.26-.47-.59-.42-.95,0-.05.02-.1.04-.14.5.59,1.09,1.11,1.7,1.58.31.24.63.46.95.67.16.11.33.2.49.3.09.05.18.11.27.16.04.02.08.04.12.06.01.01.03.03.04.05,0,.03.01.05.03.08ZM158.29,119.22c.31-.28.63-.53.97-.76-.03.04-.06.08-.08.11-.15.2-.29.4-.44.6-.29.39-.58.78-.88,1.17-.58.78-1.15,1.55-1.73,2.32-.23.31-.46.61-.68.92.54-1.68,1.53-3.2,2.84-4.38h0ZM155.34,123.96c.59-.72,1.14-1.47,1.7-2.22.58-.77,1.17-1.54,1.75-2.31.16-.21.32-.42.48-.63-.68,2.12-2.47,3.67-3.97,5.26,0-.03.02-.07.03-.1h0ZM154.02,118.48c-.1,1.33-.19,2.66-.26,3.99-.06-.12-.11-.24-.17-.36-.07-.36-.14-.72-.19-1.09-.08-.62-.12-1.25-.12-1.88,0-1.26.16-2.53.47-3.75.08-.34.19-.67.3-1,.06-.18.12-.35.19-.53,0-.02.02-.05.03-.07-.04,1.56-.14,3.13-.25,4.68h0ZM154.18,113.5c-.03.07-.05.15-.08.23-.06.15-.11.3-.16.46-.1.3-.2.61-.29.92-.17.63-.31,1.26-.39,1.91-.17,1.26-.19,2.56-.04,3.82.01.13.04.28.06.42-.61-1.95-.58-4.1.06-6.04.17-.5.38-.99.62-1.45.08-.08.15-.17.24-.25h0ZM152.17,118.97c-.12-1.41.22-2.82.92-4.04.17-.29.35-.56.56-.82-.42.85-.7,1.76-.85,2.7-.2,1.28-.16,2.62.15,3.88.12.52.3,1.03.51,1.52.03.12.06.24.09.36-.77-1.04-1.26-2.3-1.37-3.61ZM149.36,121.29c1.1,1.35,2.25,2.67,3.36,4.01.04.04.07.08.1.13-.22-.18-.45-.35-.66-.54-.67-.59-1.29-1.24-1.85-1.94-.21-.25-.4-.51-.6-.78-.13-.29-.25-.59-.36-.88h0ZM150.01,122.75c.81,1.06,1.74,2.03,2.74,2.92.27.25.55.51.74.82-1.45-.93-2.65-2.23-3.48-3.75h0ZM152.09,124.28c-.63-.73-1.26-1.47-1.88-2.2-.31-.36-.62-.71-.93-1.07-.01-.04-.02-.06-.03-.1,1.52,1,2.75,2.39,3.6,4,.09.17.17.35.25.52-.01-.01-.03-.04-.05-.05-.33-.36-.64-.73-.96-1.1h0ZM155.65,130.91c.56-1.24,1.26-2.42,2.07-3.51.37-.5.76-.98,1.18-1.45h0c-.12.27-.22.54-.34.8-.12.28-.24.55-.36.83-.24.55-.49,1.1-.73,1.65-.49,1.1-1,2.2-1.5,3.29-.26.58-.56,1.15-.81,1.74-.41-1.09.03-2.34.49-3.36ZM155.21,134.4c.29-.51.53-1.07.79-1.59.26-.54.52-1.09.78-1.63.51-1.1,1.01-2.2,1.51-3.32.14-.3.27-.61.4-.92.03-.06.05-.11.08-.17-.41,2.15-1.22,4.21-2.38,6.06-.36.56-.76,1.11-1.14,1.66-.01-.03-.02-.05-.04-.08h0ZM154.84,134.3c-1.55-1.54-2.77-3.43-3.55-5.48-.17-.43-.31-.87-.44-1.31.87,1.81,1.91,3.55,3.01,5.23.27.42.55.84.84,1.24.04.11.09.22.13.32h0ZM154.37,133.18c-.09-.12-.17-.24-.26-.37-.29-.43-.58-.86-.86-1.3-.56-.88-1.09-1.77-1.59-2.68-.22-.39-.42-.78-.63-1.18,1.33,1.67,2.44,3.5,3.31,5.45,0,.02.02.04.03.07h0ZM149.58,107.4c.71-.58,1.45-1.11,2.23-1.6-.06.1-.12.2-.18.29-.7.66-1.38,1.34-2.09,1.98-.79.71-1.61,1.4-2.45,2.05-.34.27-.7.52-1.04.79,1.06-1.28,2.25-2.46,3.54-3.51h-.01ZM147.01,110.38c.43-.33.84-.66,1.25-1.01.82-.68,1.61-1.38,2.39-2.12.18-.17.36-.35.54-.52-1.09,1.52-2.48,2.81-4.07,3.78-.35.21-.7.4-1.06.58.33-.23.65-.47.96-.72h0ZM144.44,107.79c-.5,2.05-.99,4.1-1.49,6.15l-.4,1.62c0-.05.01-.11.03-.16.04-.27.09-.54.14-.81.1-.56.21-1.11.32-1.66.23-1.1.49-2.2.79-3.29.15-.56.31-1.12.49-1.68.04-.06.09-.11.13-.16h0ZM142.26,112.72c.18-1.26.6-2.49,1.24-3.58.15-.27.32-.52.5-.77-.56,1.98-1.04,3.97-1.4,5.99-.05.32-.11.63-.16.95-.03.2-.07.4-.09.61-.21-1.05-.24-2.13-.08-3.2ZM146.17,96.01s.05-.02.07-.04c-1.25,2.21-3.03,4.1-5.16,5.45-.42.27-.85.51-1.29.73,1.63-1.53,3.24-3.1,4.87-4.65.25-.23.49-.47.74-.71.25-.24.52-.47.76-.73.02-.02.02-.05.02-.07h0ZM143.26,97.78c.76-.59,1.59-1.11,2.46-1.55-.33.32-.65.66-.99.97-.44.43-.88.85-1.32,1.28-.88.85-1.77,1.7-2.65,2.55-.45.43-.9.87-1.34,1.31-.03.01-.05.02-.08.04.99-1.78,2.32-3.35,3.92-4.59ZM145.08,91.11c.29-.13.57-.24.87-.33-.34.2-.67.44-.99.66-.45.32-.89.64-1.32.98-.85.68-1.66,1.41-2.42,2.19-.4.41-.77.84-1.13,1.28,1.03-2.12,2.89-3.84,4.99-4.78ZM146.29,90.84c-.08.07-.17.15-.26.22-.22.18-.45.37-.68.55l-1.35,1.1c-.89.73-1.78,1.46-2.67,2.19-.33.28-.65.55-.98.83,1.35-1.52,2.87-2.89,4.54-4.03.45-.3.92-.58,1.38-.87h.01ZM139.95,96.16s.06-.04.08-.06h.01c1.77-1.4,3.5-2.82,5.25-4.24.25-.2.5-.41.75-.61.17-.13.34-.26.51-.4-1.04,1.29-2.33,2.36-3.66,3.33-.98.71-1.99,1.38-2.98,2.07.01-.03.03-.06.04-.08h0ZM140.65,91.15c.28-.2.58-.38.89-.54-.01.01-.04.04-.05.05-.17.16-.33.32-.5.49-.33.32-.65.65-.96.99-.63.66-1.23,1.34-1.81,2.05-.23.28-.45.55-.67.83.65-1.55,1.74-2.9,3.1-3.85h0ZM137.39,95.41c.58-.67,1.13-1.37,1.71-2.03.6-.68,1.23-1.33,1.88-1.95.19-.18.37-.36.56-.54.04-.04.07-.06.11-.1-.92,1.5-2.35,2.59-3.55,3.85-.25.26-.49.54-.72.82,0-.02.01-.04.02-.06h0ZM133.96,92.1c1.16,1.71,1.98,3.67,2.37,5.72.05.25.08.49.12.75-.11-.21-.21-.42-.31-.63-.23-.47-.45-.95-.65-1.43-.4-.95-.76-1.93-1.08-2.91-.16-.49-.29-1-.44-1.5h0ZM134.04,93.38c-.09-.45-.16-.91-.21-1.36.21.99.54,1.96.88,2.91.35.97.73,1.93,1.16,2.87.12.26.24.52.37.78.03.05.05.1.08.16-1.1-1.61-1.89-3.43-2.28-5.35h0ZM131.19,103.8c-.28-.3-.56-.61-.82-.94.03.01.05.03.08.04-.01.01-.01.03,0,.04.77.68,1.55,1.35,2.34,2.03.68.59,1.35,1.19,2.02,1.79-1.32-.83-2.54-1.83-3.62-2.96h0ZM135.4,106.98c-.41-.32-.81-.66-1.21-.99-.79-.66-1.59-1.32-2.37-1.99-.42-.36-.85-.71-1.27-1.07,1.18.51,2.28,1.22,3.25,2.08.78.69,1.47,1.48,2.07,2.34-.15-.13-.31-.26-.47-.39h0ZM134.93,108.85c.55.73,1.03,1.5,1.4,2.34.16.37.31.75.42,1.14-.93-.94-1.57-2.17-1.82-3.48ZM132.49,112.04c-.2-.27-.37-.55-.51-.85.74.02,1.4.44,1.94.94.31.29.6.6.88.92.28.32.56.66.83.98-1.24-.25-2.37-.97-3.13-2h0ZM136.95,118.5c.97.62,1.59,1.81,1.66,2.96.06.99-.3,1.99-.93,2.74.1-.25.17-.52.24-.78.1-.43.15-.87.15-1.31,0-.96-.27-1.89-.74-2.72-.13-.24-.28-.47-.45-.68-.1-.13-.21-.27-.33-.39.15.04.28.11.4.19h0ZM136.22,118.26h.05c.12.15.28.3.41.44.16.18.31.38.44.59.26.39.45.83.59,1.29.26.85.31,1.76.13,2.64-.07.37-.19.73-.34,1.07v-.06c.06-.32.08-.66.09-.97,0-.44-.03-.88-.1-1.32-.15-.87-.45-1.7-.89-2.46-.12-.21-.26-.42-.41-.62-.07-.1-.15-.19-.22-.28-.05-.06-.09-.11-.15-.16.12-.09.26-.15.41-.17h0ZM135.58,118.7c.03-.06.08-.11.12-.16.03.04.06.08.1.12.08.09.15.18.22.28.12.17.25.35.36.53.22.36.41.75.57,1.14.31.8.48,1.65.49,2.51,0,.14,0,.28,0,.42-.02-.11-.04-.23-.06-.34-.09-.45-.24-.9-.42-1.32-.18-.41-.4-.8-.66-1.17-.26-.37-.56-.73-.91-.99h-.01c0-.35.06-.7.23-1h0ZM136.99,123.81c-.35-.55-.67-1.12-.95-1.71-.26-.54-.49-1.11-.61-1.7-.03-.18-.06-.39-.08-.59.29.31.58.62.82.97.25.36.47.75.65,1.16.17.39.31.81.4,1.24.08.39.1.76.12,1.15-.12-.17-.24-.34-.35-.51h0ZM130.35,124.19c.34.06.67.12,1.01.18.68.13,1.34.28,2.01.44,1.21.31,2.41.66,3.58,1.07-.54-.06-1.08-.08-1.62-.15-1.34-.16-2.63-.57-3.88-1.05-.34-.13-.68-.27-1.02-.41-.12-.05-.23-.1-.35-.15.09.01.18.04.26.05ZM138.14,126.72c-.35.08-.7.15-1.06.2-.72.09-1.45.11-2.18.04-1.45-.13-2.86-.57-4.13-1.28-.35-.2-.69-.42-1.01-.66-.19-.14-.4-.3-.48-.53-.01-.04-.02-.08-.02-.13.45.4.97.72,1.5,1,.58.31,1.19.56,1.81.76,1.38.43,2.82.49,4.24.54.44.01.88.03,1.31.05h.08s-.03.01-.05.01h0ZM138.32,126.46c-.39,0-.77-.02-1.15-.03-.74-.02-1.47-.04-2.2-.09-1.36-.11-2.69-.4-3.92-1-.63-.31-1.2-.71-1.77-1.09.03-.1.1-.18.2-.21.02,0,.04,0,.06.01.25.13.51.23.77.35.31.13.61.25.92.37.6.24,1.22.47,1.84.66.63.19,1.28.35,1.93.46.62.1,1.24.13,1.86.21.42.05.83.12,1.23.22.13.05.26.11.39.16h-.15ZM137.3,131.41c.95-.82,2.32-.97,3.52-1.03.36-.02.72-.02,1.09-.01-1.34.02-2.69.32-3.92.84-.32.13-.63.29-.92.45.08-.09.17-.18.25-.24h0ZM136.86,132.07s0-.09.02-.13c0,0,.01,0,.02,0,1.41-.83,2.98-1.31,4.6-1.44-.34.09-.68.19-1.02.29-.8.25-1.59.52-2.38.82-.42.16-.82.33-1.22.52,0-.02,0-.04-.01-.06ZM139.31,131.76c-.33.11-.68.21-1.01.3-.31.08-.62.19-.93.24-.13.02-.32.03-.43-.06.97-.37,1.93-.75,2.92-1.07.51-.16,1.02-.32,1.52-.46.33-.09.67-.17,1-.25h.12s.04-.01.04-.04c.04,0,.07-.01.1-.02.1,0,.22.01.33.02-1.2.51-2.42.95-3.66,1.34h.01ZM138.3,137.81c.39-1.11,1.22-1.96,2.29-2.4,1.26-.52,2.7-.54,4.04-.44.42.03.84.08,1.24.14-1.92.83-3.89,1.57-5.88,2.2-.31.1-.61.19-.91.28-.26.08-.53.15-.79.25,0-.01,0-.03.01-.04h0ZM138.25,137.97c.53-.1,1.06-.28,1.57-.43.53-.16,1.07-.34,1.61-.51,1.06-.36,2.12-.75,3.16-1.16.56-.22,1.11-.45,1.65-.69.75.13,1.49.31,2.22.52.12.04.24.07.35.11-1.47.15-2.93.51-4.31,1.06-.7.28-1.38.62-2.05,1-.68.38-1.35.78-2.05,1.12-.39.19-.79.37-1.19.5-.21.07-.42.13-.63.18-.17.04-.34.07-.51.11-.07-.61,0-1.23.17-1.81h0ZM138.09,139.91c.33-.01.68-.11.99-.2.36-.11.71-.24,1.05-.4.69-.31,1.35-.68,2-1.05.69-.39,1.38-.76,2.11-1.06.71-.3,1.44-.54,2.18-.73.68-.18,1.38-.3,2.08-.38-.56.2-1.1.48-1.63.77-.72.39-1.4.85-2.09,1.3-1.36.91-2.7,1.89-4.18,2.58-.72.33-1.65.55-2.32-.01h0c-.1-.27-.16-.54-.2-.82ZM138.41,141.04c.51.28,1.13.28,1.68.11.39-.12.76-.3,1.11-.5.37-.2.73-.41,1.08-.64,1.43-.89,2.78-1.91,4.24-2.77.7-.42,1.43-.75,2.17-1.09-1.06,1.11-2.11,2.22-3.27,3.22-.63.54-1.28,1.06-1.97,1.52-.64.44-1.32.86-2.03,1.17-.58.26-1.21.42-1.84.38-.5-.36-.91-.85-1.18-1.41h.01ZM147.19,139.27c-.78.97-1.7,1.83-2.74,2.52-1.02.68-2.28,1.4-3.55,1.21-.4-.06-.77-.21-1.11-.42.46.02.92-.08,1.35-.24.72-.26,1.38-.66,2.03-1.07,1.42-.91,2.69-2.02,3.91-3.18.66-.63,1.31-1.28,1.95-1.94-.47,1.12-1.07,2.18-1.84,3.13h0ZM145.47,144.11c.55-1.72,2.04-2.87,3.64-3.54-.12.12-.23.25-.34.37-.17.18-.35.37-.53.56-.35.37-.7.75-1.06,1.12-.35.37-.7.75-1.05,1.13-.17.19-.35.37-.52.56-.08.09-.17.18-.26.28.04-.16.07-.32.12-.48h0ZM145.3,144.86c.13-.13.26-.27.38-.4.18-.18.35-.37.54-.56.36-.37.72-.75,1.08-1.13.36-.38.72-.76,1.08-1.14.17-.18.35-.37.53-.56.17-.18.4-.37.51-.6,0-.01,0-.03,0-.04.13-.05.25-.09.38-.13.3-.1.6-.18.9-.26-1.79,1.45-2.59,3.74-4.05,5.48-.36.42-.76.8-1.22,1.12-.19-.58-.22-1.19-.13-1.79h0ZM145.49,146.81s0-.03-.01-.04c1.86-1.26,2.73-3.49,4.07-5.22.25-.33.51-.63.81-.91-.16.25-.31.5-.44.77-.29.55-.52,1.12-.74,1.69-.45,1.16-.83,2.36-1.4,3.46-.16.31-.33.61-.52.9-.19.29-.42.54-.63.82-.51-.36-.9-.88-1.13-1.46h0ZM147.14,148.58c-.16-.07-.31-.16-.45-.26.2-.18.38-.41.54-.64.17-.25.34-.5.49-.76.31-.54.56-1.11.79-1.68.47-1.17.85-2.36,1.43-3.48.16-.3.33-.6.52-.88.04-.06.09-.13.14-.2-.58,2.06-.24,4.35-1.14,6.33-.17.37-.38.71-.63,1.04-.12.16-.26.32-.41.47-.1.1-.2.19-.31.29-.33-.01-.65-.09-.97-.23h0ZM151.2,146.24c-.26.9-.82,1.72-1.63,2.2-.4.24-.84.36-1.28.37.2-.15.37-.34.53-.52.24-.28.45-.57.62-.89.29-.54.49-1.13.61-1.73.26-1.23.28-2.5.47-3.73.08-.5.2-.99.38-1.47.32,1.9.87,3.87.31,5.77h0ZM154.08,146.27c.17-.34.49-.57.79-.78.3-.21.61-.4.93-.59,1.31-.73,2.74-1.21,4.21-1.5.14-.03.28-.05.42-.08-1.79.56-3.5,1.38-5.1,2.35-.45.28-.91.57-1.34.89.01-.11.05-.2.1-.3ZM155.08,147.53c-.24,0-.49-.04-.69-.15.42-.16.82-.38,1.21-.59.47-.25.95-.5,1.41-.77.93-.53,1.83-1.09,2.71-1.69.2-.13.39-.28.58-.42-1.01,1.23-2.25,2.26-3.64,3.01-.41.22-.83.41-1.26.59-.1,0-.21.02-.31.02ZM158.67,146.15c-.51.39-1.08.71-1.68.95-.36.14-.74.27-1.14.35,1.51-.64,2.91-1.62,4.05-2.79.3-.3.58-.63.85-.96-.5.97-1.22,1.81-2.09,2.46h0ZM155.74,146.56c-.49.25-1,.47-1.47.73-.06-.04-.11-.08-.15-.14-.08-.11-.13-.23-.14-.36.41-.28.81-.56,1.24-.83.44-.28.89-.54,1.35-.79.9-.49,1.84-.93,2.8-1.31.44-.18.88-.34,1.33-.49-1.56,1.2-3.2,2.29-4.95,3.2h0ZM155.48,154.96c.08-.1.17-.21.26-.3.19-.22.38-.44.56-.65.38-.44.79-.86,1.2-1.27.82-.82,1.69-1.58,2.6-2.29.92-.71,1.88-1.37,2.88-1.96,1.01-.6,2.07-1.11,3.11-1.64.05-.02.1-.05.15-.07-.85.59-1.7,1.19-2.55,1.79-1.86,1.35-3.7,2.75-5.48,4.21-.98.8-1.93,1.65-2.88,2.48.05-.1.11-.2.16-.3h0ZM164,149.29c-1.88,1.49-3.82,2.91-5.81,4.25-.98.66-1.97,1.3-2.98,1.91.01-.03.03-.06.05-.08h.02c.88-.76,1.8-1.48,2.7-2.22.9-.72,1.8-1.44,2.71-2.14,1.83-1.4,3.69-2.76,5.59-4.06.53-.36,1.06-.71,1.59-1.07.19-.12.38-.25.56-.37-1.45,1.31-2.93,2.56-4.45,3.77h0ZM163.14,148.18c-2,1.15-3.84,2.56-5.5,4.17-.46.45-.92.92-1.35,1.41-.12.13-.24.28-.35.42.93-1.51,2.09-2.86,3.4-4.04,1.97-1.76,4.26-3.11,6.66-4.14.95-.4,1.91-.76,2.89-1.09-1.75,1.35-3.83,2.17-5.74,3.27h0ZM167.82,150.87c.1-1.44.44-2.87.99-4.2.22-.54.49-1.04.77-1.54-.04.46-.06.91-.1,1.36-.06.67-.14,1.33-.22,2-.17,1.33-.4,2.66-.66,3.98-.15.73-.32,1.47-.47,2.2-.28-1.24-.38-2.52-.29-3.8h0ZM169.1,153.18c-.25.59-.56,1.15-.95,1.67,0-.04-.01-.07-.02-.11.01,0,.04,0,.05-.02.4-1.3.68-2.64.93-3.97.25-1.33.44-2.67.58-4.01.04-.37.08-.75.11-1.12.22,2.55.31,5.16-.7,7.57h0ZM175.37,141.4c-1.59-1.57-2.94-3.37-4.01-5.33-.47-.87-.88-1.77-1.22-2.7.42.75.88,1.47,1.36,2.18.58.88,1.2,1.72,1.84,2.55,1.28,1.64,2.67,3.19,4.16,4.64.61.59,1.24,1.17,1.88,1.72.04.05.08.1.13.14-1.5-.9-2.89-1.98-4.14-3.21h0ZM170.36,133.53c1.49,1.4,2.91,2.88,4.24,4.45.7.83,1.37,1.68,2.01,2.55.62.85,1.19,1.72,1.77,2.59.1.15.22.31.33.47-1.04-.92-2.02-1.89-2.97-2.91-1.42-1.53-2.73-3.17-3.92-4.89-.51-.73-.99-1.5-1.46-2.26ZM179.61,144.37c-.31-.36-.6-.73-.87-1.12-.61-.85-1.2-1.73-1.82-2.58-1.27-1.72-2.64-3.35-4.12-4.88-.81-.85-1.67-1.67-2.55-2.44-.06-.08-.11-.17-.16-.26,1.65,1.18,3.16,2.57,4.51,4.09,1.48,1.67,2.79,3.49,3.99,5.38.4.63.77,1.27,1.15,1.91-.04-.04-.08-.07-.12-.1h0ZM173.04,153.53c1.88-2.43,4.04-4.63,6.5-6.45.08-.06.17-.13.26-.19-.17.15-.34.3-.51.46-.61.55-1.2,1.11-1.79,1.68-1.18,1.14-2.31,2.32-3.42,3.54-.47.51-.92,1.04-1.36,1.57.1-.2.2-.4.31-.6ZM172.53,154.57c1.03-1.16,2.07-2.31,3.16-3.42,1.14-1.16,2.32-2.29,3.53-3.38.29-.26.58-.51.88-.78-.16.21-.33.43-.49.64-.51.66-1.05,1.29-1.6,1.92-1.11,1.25-2.29,2.43-3.55,3.54-.51.45-1.04.88-1.57,1.31-.12.06-.24.11-.36.17h0ZM178.53,150.03c-1.09,1.29-2.36,2.41-3.78,3.33-.42.27-.85.52-1.29.75.26-.22.53-.44.79-.66.64-.55,1.27-1.12,1.88-1.71,1.21-1.17,2.36-2.41,3.43-3.72.47-.57.92-1.15,1.36-1.75,0,0,.02-.02.03-.03-.65,1.36-1.45,2.63-2.42,3.79ZM177.82,148.19c-1.17,1.03-2.28,2.13-3.3,3.31-.39.45-.76.91-1.12,1.38.46-.79.97-1.54,1.54-2.26,1.02-1.3,2.2-2.46,3.53-3.44.68-.49,1.39-.92,2.11-1.34.03,0,.06-.01.08-.04.01,0,.04-.02.05-.03h.21c-1.07.75-2.1,1.55-3.08,2.41h-.01Z"/><path class="s" d="M128.74,94.98l.61-3.06c.53-.99,1.13-1.93,1.84-2.8.79-.95,1.69-1.82,2.63-2.63.45-.38.91-.76,1.37-1.12h.04c1.51-.51,3.14-.62,4.62-1.24.66-.28,1.29-.67,1.77-1.22.47-.55.76-1.22.92-1.91.18-.73.23-1.47.25-2.23.02-.03.04-.06.06-.1.05-.08,0-.15-.06-.18,0-.11-.13-.18-.22-.15-2.51.83-4.69,2.49-6.17,4.64-.4.58-.75,1.2-1.04,1.84-1.51,1.17-2.97,2.4-4.2,3.85-.64.76-1.24,1.58-1.68,2.47.03-.15.06-.3.09-.45.09-.26.18-.52.26-.79.19-.6.35-1.22.48-1.84.08-.4.15-.81.2-1.22.04-.13.08-.27.12-.4.07,0,.14-.06.15-.15v-.33c.91-2.97,2.11-5.83,3.6-8.55,1.3-.95,2.64-1.88,4.01-2.73,1.43-.89,2.9-1.7,4.43-2.43.03.03.07.04.12.04,2.17-.13,4.31-.49,6.42-1.04,2.11-.55,4.16-1.28,6.17-2.13,1.13-.48,2.23-.99,3.33-1.54.16-.08.06-.34-.11-.33-1.76.19-3.5.49-5.23.88-1.72.38-3.43.86-5.11,1.44-1.28.44-2.54.93-3.78,1.47,1.67-1.06,3.17-2.38,4.44-3.88.47-.56.91-1.14,1.32-1.75.08-.12-.08-.22-.18-.17-2.38,1.21-4.49,2.89-6.18,4.94-.45.54-.87,1.11-1.25,1.7-1.35.65-2.67,1.37-3.95,2.15-.75.46-1.49.94-2.22,1.44-.65.45-1.31.92-1.93,1.42,1.04-1.84,2.21-3.62,3.52-5.3,2.9-3.76,6.37-7.06,10.18-9.91,2.69-.81,5.47-1.27,8.28-1.4.95-.05,1.91-.06,2.86-.05-.01.07,0,.15.08.19,1.4.8,2.95,1.34,4.54,1.62,1.58.27,3.22.29,4.81.02.8-.13,1.59-.34,2.36-.61.03,0,.05.01.08.03.06.02.09-.03.09-.08.03-.01.08-.03.11-.04.15-.06.17-.32-.02-.35-.42-.06-.84-.11-1.26-.17-.34-.13-.68-.24-1.03-.34-.75-.23-1.5-.42-2.27-.56-1.52-.29-3.08-.42-4.63-.38-.88.02-1.76.1-2.63.23-.07,0-.11.06-.13.11-2.34-.03-4.67.1-6.96.5-1.3.22-2.58.54-3.84.96.37-.27.74-.54,1.11-.8,2.4-1.68,4.92-3.16,7.52-4.5.27-.1.54-.2.81-.28.71-.22,1.44-.38,2.17-.54,1.5-.33,3.02-.56,4.54-.71.58-.06,1.18-.1,1.76-.13l.04.03c1.49.74,3.08,1.26,4.71,1.56,1.65.3,3.33.37,4.99.21.94-.09,1.87-.26,2.77-.49.18-.05.14-.3-.02-.34-2.99-.81-6.07-1.25-9.17-1.34-3.07-.08-6.16.19-9.18.81-.6.13-1.2.26-1.8.42,1.08-.51,2.16-1,3.26-1.47h.03s.1-.05.14-.07c.93-.39,1.87-.76,2.81-1.12,4.25-1.59,8.62-2.84,13.06-3.84.27.6.72,1.13,1.2,1.57.52.48,1.12.88,1.75,1.2,1.46.76,3.1,1.09,4.73,1.25,1.01.1,2.02.13,3.03.17.15,0,.24-.23.11-.32-2.43-1.68-5.46-1.93-8.12-3.09-.23-.1-.44-.2-.65-.31.23.05.45.09.68.13,1.03.17,2.09.19,3.13.13,2.12-.14,4.2-.72,6.2-1.43,1.15-.42,2.29-.88,3.42-1.35.2-.08.16-.38-.07-.37-1.98.06-3.96.19-5.94.4-.97.1-1.94.22-2.91.35-.02,0-.04,0-.06,0-.47.06-.94.14-1.41.22.42-.15.84-.31,1.25-.5,1.79-.79,3.46-1.86,4.93-3.16.82-.73,1.58-1.52,2.26-2.39.09-.11,0-.3-.16-.24-1.74.64-3.44,1.39-5.09,2.23-1.21.62-2.39,1.29-3.54,2.02,1.01-.99,1.91-2.09,2.66-3.28.56-.88,1.03-1.81,1.41-2.77.05-.13-.06-.29-.2-.24-1.6.59-3.07,1.48-4.36,2.6-.75.65-1.43,1.39-2.02,2.18.47-1.32.89-2.66,1.25-4.02.22-.84.41-1.69.58-2.54.03-.15-.17-.25-.27-.14-1.12,1.18-2.04,2.55-2.71,4.03-.67,1.47-1.11,3.05-1.27,4.65-.08.86-.13,1.76,0,2.62h-.02c-.74.19-1.48.37-2.22.55-2.96.73-5.9,1.59-8.78,2.59.46-.29.92-.59,1.36-.92,2-1.52,3.6-3.51,4.65-5.77.6-1.29,1.03-2.65,1.25-4.05.03-.19-.22-.28-.32-.11-.08.13-.16.25-.25.37-.07-.03-.15-.01-.19.08-.04.11-.09.22-.13.32-1.11,1.24-2.75,1.98-4.1,2.92-1.72,1.21-3.08,2.9-3.91,4.81-.09.19-.15.38-.23.57.06-.47.13-.93.2-1.4.2-1.39.39-2.78.56-4.17.1-.79.2-1.58.29-2.36.01-.15-.15-.23-.26-.13-.1.08-.18.17-.28.26v-.04c.02-.09-.1-.13-.14-.06-.08.14-.13.29-.19.43-.85.92-1.53,2-1.97,3.18-.56,1.5-.75,3.13-.52,4.72.11.81.34,1.61.65,2.38-.19.07-.37.15-.55.22-.38.15-.76.31-1.14.47-.75.31-1.48.65-2.21.99-1.46.7-2.91,1.45-4.31,2.27-.75.45-1.48.91-2.2,1.4,0,0,0-.01.01-.03.08-.08.18-.15.26-.23.82-.74,1.56-1.57,2.22-2.46,1.32-1.79,2.3-3.81,2.86-5.95.19-.72.33-1.46.41-2.2.04-.2.09-.4.13-.61.05-.27.11-.54.09-.81,0-.06-.07-.1-.13-.1-.03-.08-.18-.13-.24-.04-1.14,1.58-2.19,3.21-3.15,4.91-.96,1.7-1.82,3.45-2.57,5.24-.41.97-.78,1.95-1.12,2.96-.42.32-.86.63-1.3.92-.03.02-.03.04-.03.06-2.28,1.53-4.46,3.22-6.49,5.06.18-.26.35-.53.52-.8.37-.59.7-1.2,1-1.84.6-1.27,1.09-2.59,1.46-3.94.46-1.69.74-3.42.88-5.16,2.3-.81,4.33-2.41,5.85-4.28.46-.56.87-1.17,1.23-1.8.06-.11-.06-.25-.18-.21-2.08.79-3.96,2.07-5.43,3.73.11-.22.22-.45.32-.68.51-1.2.86-2.48,1.01-3.78.08-.73.1-1.47.06-2.2,0-.13-.19-.17-.25-.05-1.03,2.17-1.7,4.48-2.27,6.79-.08.33-.16.65-.24.97h0c.02-.72.03-1.45,0-2.17-.04-1.74-.2-3.48-.42-5.2-.03-.19-.29-.22-.34-.02-.55,2.08-.7,4.25-.44,6.38-.56-1.17-1.19-2.3-2.01-3.3-.37-.47-.79-.9-1.25-1.29-.1-.09-.29.01-.24.15.79,2.01,1.77,3.94,2.98,5.74.34.5.68,1.02,1.08,1.47.04.05.1.04.14,0v.06c-.25,2.81-.88,5.58-2.01,8.18-.31.7-.65,1.39-1.03,2.07-.37.64-.78,1.24-1.18,1.87-.97.91-1.91,1.86-2.81,2.84.33-.6.61-1.22.87-1.85.43-1.06.75-2.16.98-3.28.44-2.23.49-4.54.1-6.78-.22-1.27-.57-2.52-1.06-3.71-.06-.14-.28-.15-.32.02-.65,3.23-.76,6.57-.29,9.84.13.92.32,1.84.54,2.75.01.06.06.1.1.1-.06.18-.12.37-.19.55-.22.59-.47,1.17-.75,1.74-.27.54-.57,1.06-.86,1.59-.24.28-.48.55-.72.83-1.7,2.04-3.21,4.22-4.52,6.5.08-.31.15-.63.21-.95.11-.6.19-1.21.25-1.82.12-1.2.14-2.41.09-3.61-.04-.75-.11-1.5-.23-2.24.15-.09.29-.19.44-.28.29-.19.58-.4.86-.61.53-.42,1.03-.88,1.45-1.42.77-1,1.25-2.26,1.01-3.53-.06-.32-.16-.63-.3-.91-.02-.05-.05-.09-.08-.14,0-.03-.01-.05-.02-.08-.13-.45-.55-.9-1.07-.75-.49.14-.67.79-.84,1.2-.22.56-.43,1.12-.6,1.7-.21.72-.37,1.45-.49,2.19-.03-.17-.06-.35-.1-.53-.27-1.31-.8-2.58-1.55-3.7-.43-.64-.93-1.23-1.49-1.77-.05-.05-.11-.06-.16-.03-.11-.08-.26.03-.28.16-.16,2.55-.29,5.35,1.29,7.52.38.51.84.97,1.37,1.31.1.07.2,0,.22-.08.23,1.7.29,3.44.18,5.15-.04.67-.12,1.35-.23,2.02-.09.6-.18,1.2-.3,1.79-1.32,2.4-2.43,4.92-3.3,7.53.05-.29.09-.58.12-.87.1-.95.13-1.9.09-2.84-.08-1.9-.44-3.8-1.05-5.6-.34-1.01-.76-2.01-1.28-2.94-.05-.09-.23-.09-.26.01-.04.12-.08.24-.13.36-.03,0-.05.03-.04.07v.03c-.21.72-.32,1.47-.32,2.23,0,.93.15,1.86.36,2.77.43,1.84,1.18,3.58,1.66,5.4.15.58.28,1.17.35,1.77-.02.54-.06,1.09-.13,1.63-.39,1.36-.73,2.74-1.02,4.13-.11.3-.58,4.25-.5,4.26v-.02ZM136.05,66.64c1.08-1.18,1.93-2.55,2.17-4.12.03-.22.06-.44.06-.67v.04c.13.55.11,1.12-.03,1.66-.32,1.23-1.19,2.25-2.16,3.05l-.04.03h0ZM135.76,66.49c.75-1.39,1.27-2.89,1.58-4.44.11-.52.18-1.04.23-1.57h0s.04.02.04.02c.08.11.17.23.24.35v.04c.17.48.13,1.05.06,1.54-.15,1.04-.61,2.02-1.21,2.88-.29.42-.61.81-.95,1.18h.01ZM135.31,66.99c.06-1.1.22-2.2.49-3.27.13-.55.3-1.08.49-1.62.1-.26.2-.52.3-.79.09-.22.18-.45.31-.65.1-.16.25-.29.44-.28v.05c-.2,1.82-.66,3.6-1.4,5.28-.19.42-.39.84-.6,1.25l-.03.03h0ZM134.18,66.13c.12.55.22,1.11.3,1.67l-.05.06c-.92-.6-1.57-1.53-1.97-2.52-.47-1.17-.6-2.43-.6-3.69,0-.57.03-1.13.06-1.7,1.03,1.95,1.78,4.04,2.25,6.2h0ZM133.63,62.95c-.36-1.02-.79-2-1.29-2.96.69.76,1.27,1.63,1.7,2.56.27.58.49,1.18.65,1.79.15.6.27,1.22.29,1.84,0,.42-.05.83-.22,1.19-.25-1.5-.62-2.98-1.13-4.42ZM141.73,64.67c.05-.72.06-1.45.07-2.18.01-.79.02-1.59,0-2.38-.03-1.59-.11-3.19-.23-4.78-.04-.44-.07-.88-.11-1.31-.02-.27-.05-.54-.08-.81v-.05c.72,1.93,1.09,3.96,1.11,6.02.02,1.86-.25,3.71-.78,5.49h0ZM141.09,55.33c.05-.47.11-.94.19-1.4.03.4.06.79.09,1.18.06.79.1,1.59.13,2.38.05,1.56.06,3.14.03,4.71,0,.51-.03,1.03-.05,1.54-.55-2.75-.68-5.6-.39-8.39h0ZM147.32,52.38c-.17-.24-.35-.49-.51-.73-.29-.45-.58-.9-.85-1.36-.55-.92-1.05-1.86-1.5-2.83-.16-.34-.32-.69-.46-1.04,1.34,1.34,2.24,3.03,3,4.74.04.09.08.18.12.27.06.31.13.63.2.94h0ZM148.87,51.04c-.16.28-.34.55-.52.81.02-.08.04-.17.06-.25.07-.29.13-.58.2-.88.14-.58.28-1.16.44-1.74.3-1.15.64-2.29,1.06-3.41.17-.46.36-.91.56-1.36.04,2.38-.59,4.76-1.8,6.82ZM148.33,52.51c1.16-2,2.86-3.67,4.89-4.81.46-.26.94-.49,1.43-.69-1.27,2-3.03,3.66-5.09,4.85-.4.23-.82.45-1.23.65ZM147.74,52.13c-.09-.19-.17-.4-.25-.59-.37-1.84-.43-3.73-.16-5.58.05-.33.11-.65.18-.97.26,2.37.37,4.76.24,7.14ZM180.06,47.28c-.39.25-.79.48-1.2.7.43-.91.83-1.83,1.2-2.76.27-.47.57-.92.89-1.35,1-1.31,2.22-2.46,3.62-3.35.68-.43,1.4-.8,2.15-1.1-.65,1.53-1.53,2.96-2.6,4.25-1.16,1.4-2.54,2.61-4.07,3.6ZM182.26,47.41c-.25.08-.5.15-.75.22-.39.07-.79.14-1.18.22-.16.03-.32.06-.49.1,1.36-1.04,2.76-2.02,4.24-2.91,1.57-.95,3.21-1.82,4.9-2.57.77-.35,1.56-.67,2.36-.97-1.11,1.32-2.41,2.48-3.85,3.45-1.6,1.07-3.36,1.91-5.21,2.48h0ZM179.95,48.78c-.14-.03-.28-.08-.42-.11-.06-.04-.12-.08-.18-.13,1.15-.25,2.31-.49,3.47-.7.51-.1,1.03-.19,1.54-.3.08-.01.15-.02.23-.03,1.96-.28,3.94-.49,5.92-.63.75-.06,1.51-.09,2.26-.13-1.63.67-3.28,1.3-4.98,1.77-1.99.54-4.08.82-6.14.58-.57-.06-1.13-.17-1.68-.31h0ZM178.61,48.71c.06-.01.13-.03.2-.05.07.03.15.06.22.1.21.19.46.34.7.49.31.19.63.35.96.51.65.3,1.33.54,2.01.76,1.38.43,2.79.76,4.14,1.28.56.22,1.11.47,1.63.77-2.93-.11-6.04-.37-8.4-2.27-.57-.46-1.03-1-1.46-1.58h0ZM178.41,48.2c0-.72-.02-1.43.04-2.13.07-.79.2-1.56.4-2.33.39-1.54,1.03-3.01,1.89-4.35.38-.59.8-1.15,1.27-1.68-.52,2.44-1.23,4.83-2.14,7.16-.13.21-.25.42-.37.64-.23.42-.42.84-.61,1.28-.16.4-.34.81-.4,1.24-.03.06-.06.12-.08.17h0ZM173.18,42.22c-.77,1.66-1.71,3.24-2.84,4.69-1.37,1.77-3,3.35-4.8,4.69-.15.11-.3.22-.46.32.29-1.82,1.04-3.57,2.17-5.04.64-.82,1.39-1.56,2.24-2.17.82-.6,1.72-1.08,2.56-1.64.39-.26.77-.54,1.13-.85h0ZM165.04,52.26c.1-.07.2-.14.3-.21.93-.65,1.81-1.38,2.64-2.16,1.65-1.55,3.1-3.32,4.28-5.26.59-.97,1.11-2,1.56-3.05.05-.06.09-.1.14-.16-.47,2.16-1.41,4.23-2.76,6-1.45,1.91-3.35,3.46-5.51,4.53-.21.1-.42.2-.63.29h0ZM164.37,52.38h0c-.01-.21-.02-.4-.03-.6-.01-.35-.01-.7-.01-1.06,0-.74.04-1.47.1-2.2.13-1.44.37-2.87.72-4.28.1-.4.21-.79.32-1.18.05-.18.11-.36.16-.54.12-.13.24-.26.37-.38-.32,2.64-.66,5.29-1.04,7.92-.1.71-.21,1.41-.29,2.12-.1.06-.2.13-.3.19h0ZM163.95,52.44c-.58-1.38-.84-2.89-.72-4.37.12-1.52.62-2.98,1.44-4.27.18-.28.37-.55.58-.81-.1.31-.18.61-.27.92-.19.72-.36,1.44-.49,2.17-.27,1.45-.42,2.93-.46,4.4,0,.4-.01.81,0,1.22,0,.21.01.42.02.63v.08s-.06.01-.09.02h0ZM167.48,54.37c2.22-.08,4.43.03,6.63.33,1.46.19,2.91.48,4.35.83-2.96.64-6.08.49-8.96-.4-.69-.22-1.36-.47-2.01-.76ZM158.34,48.36c-.27.92-.6,1.84-1,2.72-.79,1.77-1.79,3.46-3.01,4.97-.16.2-.33.4-.5.6.14-.3.28-.6.41-.9.36-.77.72-1.55,1.08-2.32.72-1.56,1.45-3.14,2.17-4.7.35-.76.71-1.51,1.01-2.28.1-.14.19-.28.29-.42-.01.26-.04.52-.06.78,0,.05-.02.1-.03.15-.11.47-.23.95-.36,1.41h0ZM153.55,57.27s.02-.04.03-.06c.9-.96,1.72-2,2.43-3.1.75-1.15,1.39-2.38,1.9-3.65-.17.48-.35.95-.56,1.41-.89,1.98-2.16,3.8-3.72,5.32-.03.03-.06.06-.08.08h0ZM152.58,57.99c.56-1.56,1.19-3.09,1.9-4.58.82-1.74,1.75-3.43,2.76-5.06.25-.39.5-.78.75-1.16-.19.4-.38.79-.56,1.19-.37.77-.73,1.54-1.09,2.32-.74,1.56-1.47,3.12-2.21,4.68-.2.44-.41.87-.62,1.31-.11.22-.22.45-.32.67-.2.22-.41.43-.61.64h0ZM168.88,60.66c-2.34-.3-4.69-.56-7.05-.68-.28-.01-.56-.03-.84-.03,2.65-.24,5.33,0,7.89.72ZM159.98,60.25c2.05.05,4.09.22,6.13.44,1.54.17,3.08.37,4.62.58h.01c-2.77.88-5.8.85-8.55-.06-.76-.25-1.5-.58-2.2-.95h0ZM149.38,66.01s-.01.01-.02.03h0c-.9.56-1.75,1.23-2.55,1.91-.85.72-1.65,1.5-2.41,2.32-.08.08-.15.16-.22.24.4-.49.82-.98,1.27-1.43.92-.92,1.92-1.76,3-2.48.3-.2.62-.4.93-.58ZM149.61,66.01s.08-.06.11-.09c-.03.04-.06.08-.09.12,0-.01-.01-.02-.02-.03ZM143.6,71.44c.63-.7,1.24-1.4,1.93-2.05.8-.76,1.65-1.47,2.53-2.14.44-.33.91-.64,1.36-.95-1.32,1.7-2.9,3.19-4.69,4.4-.37.26-.75.5-1.15.74h0ZM157.16,67.83c-1.64.59-3.29,1.14-4.96,1.65-1.91.58-3.83,1.1-5.76,1.56-.67.16-1.33.31-2,.47,1.13-.5,2.28-.96,3.45-1.38,1.66-.59,3.35-1.09,5.06-1.5,1.39-.33,2.8-.6,4.22-.8h0ZM143.56,71.9c.06-.03.11-.05.17-.08,1.77-.33,3.53-.75,5.28-1.21,1.93-.51,3.86-1.06,5.76-1.67.42-.13.84-.28,1.26-.42-1.08.48-2.17.92-3.29,1.32-2.01.72-4.09,1.3-6.2,1.67-.99.17-1.98.3-2.98.38ZM129.61,76.86c-.32-1.26-.68-2.51-1.05-3.76.03-.11.06-.22.1-.32.37.74.71,1.5.99,2.29.32.88.56,1.77.75,2.68.38,1.84.49,3.73.35,5.59-.01.2-.03.4-.06.61-.05-2.4-.5-4.76-1.09-7.09h0ZM129.65,80.92c-.6-1.77-1.22-3.54-1.32-5.42-.04-.72,0-1.47.18-2.18.62,2.24,1.22,4.48,1.58,6.77.17,1.07.27,2.16.32,3.23-.21-.82-.49-1.63-.75-2.42h0ZM136.7,83.82c.14-.19.27-.39.42-.58.35-.44.7-.86,1.09-1.26.78-.81,1.65-1.54,2.6-2.16.46-.31.94-.58,1.43-.86-.08.09-.15.19-.24.28-.21.24-.43.47-.66.7-.46.47-.93.91-1.43,1.34-.99.85-2.02,1.63-3.05,2.42-.06.04-.11.08-.16.12ZM139.85,81.77c.56-.47,1.1-.95,1.6-1.47.2-.21.4-.42.6-.63-.13.23-.27.45-.42.67-.32.47-.67.91-1.07,1.32-.78.82-1.69,1.51-2.69,2.05-.42.22-.85.42-1.3.6,1.1-.83,2.21-1.66,3.26-2.55h0ZM136.95,84.6c2.1-.67,4.19-1.69,5.18-3.71.08-.16.15-.33.21-.49-.13.79-.37,1.56-.87,2.19-.9,1.13-2.38,1.53-3.74,1.84-.26.06-.52.12-.78.18h0ZM136.1,84.69c.06-.04.11-.08.17-.13,2.19-.6,4.14-2.09,5.43-3.92.18-.26.36-.53.52-.8.02-.04.05-.08.07-.12-.05.32-.14.63-.27.93-.25.56-.6,1.06-1.03,1.51-.89.94-2.08,1.53-3.29,1.98-.53.19-1.07.37-1.61.54h0ZM135.93,84.42c1.07-2.04,2.76-3.76,4.79-4.88.32-.18.65-.34,1-.49-.29.15-.57.32-.84.49-.49.31-.95.64-1.4,1-.89.72-1.72,1.53-2.43,2.42-.2.24-.39.5-.57.76-.13.18-.27.37-.39.57-.05.04-.11.08-.15.12Z"/><path class="w" d="M210,147c27.61,0,50-22.39,50-50s-22.39-50-50-50-50,22.39-50,50,22.39,50,50,50Z"/></svg>