<svg width="160" height="160" viewBox="0 0 160 160" fill="none" xmlns="http://www.w3.org/2000/svg">
<path fill-rule="evenodd" clip-rule="evenodd" d="M77.4799 26.2073C92.263 29.2151 103.992 37.4363 115.874 46.7318C130.411 58.1045 150.81 66.7753 152.792 85.1257C154.844 104.114 140.669 121.653 125.177 132.822C111.642 142.58 94.1653 139.449 77.4799 139.422C60.8394 139.396 43.0092 142.965 29.9356 132.67C15.7404 121.492 10.3108 103.106 8.52846 85.1257C6.51058 64.7699 3.92082 40.4065 19.4722 27.118C34.7558 14.0583 57.78 22.1992 77.4799 26.2073Z" fill="#1F386B" fill-opacity="0.05"/>
<path d="M124.659 60.0567L117.62 53.5223L124.155 46.4836L131.194 53.018L124.659 60.0567ZM121.163 53.391L124.526 56.5123L127.648 53.1492L124.285 50.0265L121.162 53.3896L121.163 53.391Z" fill="#16366B"/>
<path d="M38.4269 65.9925L31.3882 59.4581L37.9226 52.4194L44.9613 58.9538L38.4269 65.9925ZM34.9326 59.3269L38.2957 62.4496L41.4184 59.0865L38.0553 55.9638L34.9326 59.3269Z" fill="#16366B"/>
<path d="M39.394 51.7015H36.8861V54.9451H39.394V51.7015Z" fill="#16366B"/>
<path d="M39.394 63.644H36.8861V66.8876H39.394V63.644Z" fill="#16366B"/>
<path d="M34.0125 58.1151H30.6215V60.623H34.0125V58.1151Z" fill="#16366B"/>
<path d="M45.3911 58H42V60.5079H45.3911V58Z" fill="#16366B"/>
<path d="M104.852 29.9189H102.344V40.9237H104.852V29.9189Z" fill="#16366B"/>
<path d="M109.407 33.9971H98.1305V36.505H109.407V33.9971Z" fill="#16366B"/>
<path d="M38.7467 98.3479C36.7637 98.3479 35.1522 96.7349 35.1522 94.7533C35.1522 92.7718 36.7652 91.1588 38.7467 91.1588C40.7283 91.1588 42.3413 92.7718 42.3413 94.7533C42.3413 96.7349 40.7283 98.3479 38.7467 98.3479ZM38.7467 93.6652C38.1467 93.6652 37.6587 94.1533 37.6587 94.7533C37.6587 95.3534 38.1467 95.8414 38.7467 95.8414C39.3468 95.8414 39.8349 95.3534 39.8349 94.7533C39.8349 94.1533 39.3468 93.6652 38.7467 93.6652Z" fill="#16366B"/>
<path d="M21 117.61C21 117.61 77.3345 112.512 110.238 112.021C143.141 111.531 137.657 121.61 137.657 121.61V133H21V117.61Z" fill="#F5E4D7"/>
<path d="M22.5329 132.195H20.0265V107.695H140V131.678H137.493V110.202H22.5329V132.195Z" fill="#16366B"/>
<path d="M139.454 112.095H20V114.601H139.454V112.095Z" fill="#16366B"/>
<path d="M64 85C62.8765 74.3264 70.2585 64.6236 80.845 62.8592L83 62.5V62.5C91.2279 64.557 97 71.9497 97 80.4309V85H64V85Z" fill="#F5E4D7"/>
<path d="M77.2296 110.202H74.7231V104.68C74.7231 101.493 77.3166 98.8993 80.5042 98.8993C83.6918 98.8993 86.2853 101.493 86.2853 104.68V109.684H83.7788V104.68C83.7788 102.874 82.3103 101.406 80.5042 101.406C78.6981 101.406 77.2296 102.874 77.2296 104.68V110.202Z" fill="#16366B"/>
<path d="M140 130.982H20.0265V133.489H140V130.982Z" fill="#16366B"/>
<path d="M117.672 109.466L117.014 108.399C114.723 104.676 109.168 104.197 108.727 104.166H83.7111V101.659H108.835C109.129 101.677 116.081 102.099 119.151 107.085L119.808 108.153L117.673 109.466H117.672Z" fill="#16366B"/>
<path d="M41.2017 109.515L39.4294 107.743L40.3155 106.857C44.7004 102.472 49.7796 101.702 49.9934 101.673L50.0819 101.659H77.2975V104.166H50.275C49.6794 104.274 45.5909 105.126 42.0878 108.629L41.2017 109.515Z" fill="#16366B"/>
<path d="M54.07 103.759C53.3785 103.759 52.8168 103.197 52.8168 102.506V94.2875C52.8168 93.596 53.3785 93.0343 54.07 93.0343H105.3C105.992 93.0343 106.554 93.596 106.554 94.2875V102.503C106.554 103.194 105.992 103.756 105.3 103.756C104.609 103.756 104.047 103.194 104.047 102.503V95.5408H55.3232V102.506C55.3232 103.197 54.7615 103.759 54.07 103.759Z" fill="#16366B"/>
<path d="M79.5 35L81.5 39.5L85.5 62.5H77.5V56.1068C77.5 51.3749 77.8359 46.649 78.5051 41.9646L79.5 35Z" fill="#F5E4D7"/>
<path d="M58.8574 95.0733C58.1659 95.0733 57.6041 94.5116 57.6041 93.8201V85.7493C57.6041 85.0579 58.1659 84.4961 58.8574 84.4961H100.515C101.206 84.4961 101.768 85.0579 101.768 85.7493V93.9646C101.768 94.6561 101.206 95.2178 100.515 95.2178C99.8231 95.2178 99.2613 94.6561 99.2613 93.9646V87.0026H60.1106V93.8201C60.1106 94.5116 59.5488 95.0733 58.8574 95.0733Z" fill="#16366B"/>
<path d="M97.8799 85.907L95.3956 85.5738L95.5622 84.3324C95.5681 84.2926 96.0974 80.1201 94.8928 75.5215C93.3403 69.5974 89.7443 65.7286 84.1991 64.0184H74.7306C74.1099 64.21 71.4044 65.1536 68.7918 67.6733C64.8301 71.4935 62.9252 76.9678 63.1272 83.9446L63.1641 85.1979L60.6591 85.2701L60.6223 84.0169C60.3421 74.3317 64.0207 68.7482 67.1567 65.7685C70.5891 62.5086 74.0952 61.5871 74.2441 61.5488L74.3959 61.5104H84.5677L84.7431 61.562C91.2172 63.4935 95.5725 68.1275 97.3388 74.9657C98.6466 80.0287 98.0716 84.4769 98.0465 84.6641L97.8799 85.9056V85.907Z" fill="#16366B"/>
<path d="M76.0014 51.9388H73.495V58.5853H76.0014V51.9388Z" fill="#16366B"/>
<path d="M85.8341 51.9388H83.3276V59.3608H85.8341V51.9388Z" fill="#16366B"/>
<path d="M85.8739 53.6683H73.7132C73.0217 53.6683 72.46 53.1065 72.46 52.4151C72.46 51.7236 73.0217 51.1618 73.7132 51.1618H85.8739C86.5654 51.1618 87.1271 51.7236 87.1271 52.4151C87.1271 53.1065 86.5654 53.6683 85.8739 53.6683Z" fill="#16366B"/>
<path d="M74.3826 53.3676C73.9049 53.3676 73.4493 53.0934 73.24 52.6304C73.0394 52.1851 73.1191 51.6853 73.4051 51.3285C74.0199 49.9323 76.3715 40.076 78.3162 31.3167C78.4666 30.6415 79.1345 30.2139 79.8113 30.3643C80.4865 30.5147 80.9126 31.184 80.7637 31.8593C80.7519 31.9094 79.6255 36.9828 78.4312 42.0266C77.728 44.9946 77.1397 47.3757 76.6812 49.1022C75.7567 52.5803 75.5341 52.9695 74.8986 53.257C74.7306 53.3322 74.5551 53.3691 74.3826 53.3691V53.3676Z" fill="#16366B"/>
<path d="M85.0586 53.1949C84.8861 53.1949 84.7107 53.1595 84.5426 53.0829C83.9071 52.7954 83.683 52.4061 82.7601 48.9281C82.3016 47.2016 81.7133 44.8219 81.01 41.8525C79.8157 36.8086 78.6893 31.7353 78.6775 31.6852C78.5271 31.0099 78.9532 30.3405 79.63 30.1901C80.3052 30.0397 80.9746 30.4658 81.125 31.1426C83.0697 39.9034 85.4213 49.7581 86.0347 51.1544C86.3207 51.5112 86.4018 52.011 86.1998 52.4563C85.9905 52.9192 85.5349 53.1934 85.0572 53.1934L85.0586 53.1949Z" fill="#16366B"/>
<path d="M92.0634 82.2581C91.3911 82.2581 90.8337 81.7244 90.8116 81.0476C90.7276 78.5706 90.011 72.4313 85.1736 68.9503C84.6119 68.5463 84.4836 67.7634 84.889 67.2017C85.293 66.6399 86.0759 66.5117 86.6377 66.9171C92.376 71.0483 93.2208 78.1165 93.3166 80.9636C93.3402 81.655 92.7976 82.2345 92.1061 82.2581C92.0914 82.2581 92.0766 82.2581 92.0634 82.2581Z" fill="#16366B"/>
<path d="M73.1943 64.4064C72.5028 64.4064 71.941 63.8446 71.941 63.1531V61.6198C71.941 59.3728 73.7693 57.5446 76.0162 57.5446H83.3144C85.5614 57.5446 87.3896 59.3728 87.3896 61.6198V62.4897C87.3896 63.1812 86.8279 63.7429 86.1364 63.7429C85.4449 63.7429 84.8832 63.1812 84.8832 62.4897V61.6198C84.8832 60.7543 84.1799 60.051 83.3144 60.051H76.0162C75.1508 60.051 74.4475 60.7543 74.4475 61.6198V63.1531C74.4475 63.8446 73.8858 64.4064 73.1943 64.4064Z" fill="#16366B"/>
<path d="M79.6639 33.2938C78.9724 33.2938 78.4106 32.732 78.4106 32.0406V27.2532C78.4106 26.5617 78.9724 26 79.6639 26C80.3554 26 80.9171 26.5617 80.9171 27.2532V32.0406C80.9171 32.732 80.3554 33.2938 79.6639 33.2938Z" fill="#16366B"/>
</svg>
